SplineFontDB: 3.0
FontName: Pinlight
FullName: Pinlight
FamilyName: Pinlight
Weight: Regular
Copyright: Made by Sik in 2016\nDo whatever you want with this font, no credit needed
UComments: "2016-3-3: Created." 
FontLog: "1.2 - Latin-1+AAoA-1.1 - Bold font+AAoA-1.0 - ASCII+AAoA-0.2 - Numbers+AAoA-0.1 - Letters" 
Version: 1.2
ItalicAngle: 0
UnderlinePosition: -113.778
UnderlineWidth: 75.8519
Ascent: 796
Descent: 228
LayerCount: 2
Layer: 0 0 "Atr+AOEA-s"  1
Layer: 1 0 "Fore"  0
XUID: [1021 571 375086453 4894787]
FSType: 8
OS2Version: 0
OS2_WeightWidthSlopeOnly: 0
OS2_UseTypoMetrics: 1
CreationTime: 1457045742
ModificationTime: 1468912133
PfmFamily: 33
TTFWeight: 500
TTFWidth: 5
LineGap: 0
VLineGap: 0
OS2TypoAscent: 0
OS2TypoAOffset: 1
OS2TypoDescent: 0
OS2TypoDOffset: 1
OS2TypoLinegap: 0
OS2WinAscent: 0
OS2WinAOffset: 1
OS2WinDescent: 0
OS2WinDOffset: 1
HheadAscent: 1024
HheadAOffset: 0
HheadDescent: -228
HheadDOffset: 0
OS2FamilyClass: 2058
OS2Vendor: 'Sik '
MarkAttachClasses: 1
DEI: 91125
Encoding: UnicodeBmp
UnicodeInterp: none
NameList: Adobe Glyph List
DisplaySize: -48
AntiAlias: 1
FitToEm: 1
WinInfo: 54 27 9
BeginPrivate: 0
EndPrivate
Grid
-1024 1024 m 0
 2048 1024 l 0
EndSplineSet
BeginChars: 65536 193

StartChar: I
Encoding: 73 73 0
Width: 455
VWidth: 0
Flags: W
HStem: 0 76<76 379> 114 76<152 303> 228 75<152 303> 341 76<152 303> 455 76<152 303> 569 76<152 303> 683 76<76 379>
VStem: 152 151<114 190 228 303 341 417 455 531 569 645>
LayerCount: 2
Fore
SplineSet
76 683 m 25
 76 759 l 25
 379 759 l 25
 379 683 l 25
 76 683 l 25
152 569 m 25
 152 645 l 25
 303 645 l 25
 303 569 l 25
 152 569 l 25
152 455 m 25
 152 531 l 25
 303 531 l 25
 303 455 l 25
 152 455 l 25
152 341 m 25
 152 417 l 25
 303 417 l 25
 303 341 l 25
 152 341 l 25
152 228 m 25
 152 303 l 25
 303 303 l 25
 303 228 l 25
 152 228 l 25
152 114 m 25
 152 190 l 25
 303 190 l 25
 303 114 l 25
 152 114 l 25
76 0 m 25
 76 76 l 25
 379 76 l 25
 379 0 l 25
 76 0 l 25
EndSplineSet
EndChar

StartChar: z
Encoding: 122 122 1
Width: 682
VWidth: 0
Flags: W
HStem: 0 76<76 607> 114 76<152 303> 228 75<265 417> 341 76<379 531> 455 76<76 607>
VStem: 152 151<114 190> 265 152<228 303> 379 152<341 417>
LayerCount: 2
Fore
SplineSet
265 228 m 25xfa
 265 303 l 25
 417 303 l 25
 417 228 l 25
 265 228 l 25xfa
531 417 m 25xf9
 531 341 l 25
 379 341 l 25
 379 417 l 25
 531 417 l 25xf9
152 114 m 25xfc
 152 190 l 25
 303 190 l 25
 303 114 l 25
 152 114 l 25xfc
76 531 m 25
 607 531 l 25
 607 455 l 25
 76 455 l 25
 76 531 l 25
76 0 m 25
 76 76 l 25
 607 76 l 25
 607 0 l 25
 76 0 l 25
EndSplineSet
EndChar

StartChar: H
Encoding: 72 72 2
Width: 758
VWidth: 0
Flags: W
HStem: 0 76<76 228 531 683> 114 76<76 228 531 683> 228 75<76 228 531 683> 341 76<76 683> 455 76<76 228 531 683> 569 76<76 228 531 683> 683 76<76 228 531 683>
VStem: 76 152<0 76 114 190 228 303 455 531 569 645 683 759> 531 152<0 76 114 190 228 303 455 531 569 645 683 759>
LayerCount: 2
Fore
SplineSet
76 341 m 29
 76 417 l 25
 683 417 l 25
 683 341 l 25
 76 341 l 29
531 683 m 25
 531 759 l 25
 683 759 l 25
 683 683 l 25
 531 683 l 25
531 569 m 25
 531 645 l 25
 683 645 l 25
 683 569 l 25
 531 569 l 25
531 455 m 25
 531 531 l 25
 683 531 l 25
 683 455 l 25
 531 455 l 25
76 683 m 25
 76 759 l 25
 228 759 l 25
 228 683 l 25
 76 683 l 25
76 569 m 25
 76 645 l 25
 228 645 l 25
 228 569 l 25
 76 569 l 25
76 455 m 25
 76 531 l 25
 228 531 l 25
 228 455 l 25
 76 455 l 25
531 228 m 25
 531 303 l 25
 683 303 l 25
 683 228 l 25
 531 228 l 25
531 114 m 25
 531 190 l 25
 683 190 l 25
 683 114 l 25
 531 114 l 25
531 0 m 25
 531 76 l 25
 683 76 l 25
 683 0 l 25
 531 0 l 25
76 228 m 25
 76 303 l 25
 228 303 l 25
 228 228 l 25
 76 228 l 25
76 114 m 25
 76 190 l 25
 228 190 l 25
 228 114 l 25
 76 114 l 25
76 0 m 25
 76 76 l 25
 228 76 l 25
 228 0 l 25
 76 0 l 25
EndSplineSet
EndChar

StartChar: T
Encoding: 84 84 3
Width: 682
VWidth: 0
Flags: W
HStem: 0 76<265 417> 114 76<265 417> 228 75<265 417> 341 76<265 417> 455 76<265 417> 569 76<265 417> 683 76<76 607>
VStem: 265 152<0 76 114 190 228 303 341 417 455 531 569 645>
LayerCount: 2
Fore
SplineSet
76 683 m 29
 76 759 l 29
 607 759 l 25
 607 683 l 25
 76 683 l 29
265 569 m 25
 265 645 l 25
 417 645 l 25
 417 569 l 25
 265 569 l 25
265 455 m 25
 265 531 l 25
 417 531 l 25
 417 455 l 25
 265 455 l 25
265 341 m 25
 265 417 l 25
 417 417 l 25
 417 341 l 25
 265 341 l 25
265 228 m 25
 265 303 l 25
 417 303 l 25
 417 228 l 25
 265 228 l 25
265 114 m 25
 265 190 l 25
 417 190 l 25
 417 114 l 25
 265 114 l 25
265 0 m 25
 265 76 l 25
 417 76 l 25
 417 0 l 25
 265 0 l 25
EndSplineSet
EndChar

StartChar: E
Encoding: 69 69 4
Width: 682
VWidth: 0
Flags: W
HStem: 0 76<76 607> 114 76<76 228> 228 75<76 228> 341 76<76 493> 455 76<76 228> 569 76<76 228> 683 76<76 607>
VStem: 76 152<114 190 228 303 455 531 569 645>
LayerCount: 2
Fore
SplineSet
76 683 m 25
 76 759 l 25
 607 759 l 25
 607 683 l 25
 76 683 l 25
76 569 m 25
 76 645 l 25
 228 645 l 25
 228 569 l 25
 76 569 l 25
76 455 m 25
 76 531 l 25
 228 531 l 25
 228 455 l 25
 76 455 l 25
76 341 m 25
 76 417 l 25
 493 417 l 29
 493 341 l 29
 76 341 l 25
76 228 m 25
 76 303 l 25
 228 303 l 25
 228 228 l 25
 76 228 l 25
76 114 m 25
 76 190 l 25
 228 190 l 25
 228 114 l 25
 76 114 l 25
76 0 m 25
 76 76 l 25
 607 76 l 25
 607 0 l 25
 76 0 l 25
EndSplineSet
EndChar

StartChar: F
Encoding: 70 70 5
Width: 682
VWidth: 0
Flags: W
HStem: 0 76<76 228> 114 76<76 228> 228 75<76 228> 341 76<76 493> 455 76<76 228> 569 76<76 228> 683 76<76 607>
VStem: 76 152<0 76 114 190 228 303 455 531 569 645>
LayerCount: 2
Fore
SplineSet
76 683 m 25
 76 759 l 25
 607 759 l 25
 607 683 l 25
 76 683 l 25
76 569 m 25
 76 645 l 25
 228 645 l 25
 228 569 l 25
 76 569 l 25
76 455 m 25
 76 531 l 25
 228 531 l 25
 228 455 l 25
 76 455 l 25
76 341 m 25
 76 417 l 25
 493 417 l 29
 493 341 l 29
 76 341 l 25
76 228 m 25
 76 303 l 25
 228 303 l 25
 228 228 l 25
 76 228 l 25
76 114 m 25
 76 190 l 25
 228 190 l 25
 228 114 l 25
 76 114 l 25
76 0 m 25
 76 76 l 25
 228 76 l 25
 228 0 l 25
 76 0 l 25
EndSplineSet
EndChar

StartChar: L
Encoding: 76 76 6
Width: 682
VWidth: 0
Flags: W
HStem: 0 76<76 607> 114 76<76 228> 228 75<76 228> 341 76<76 228> 455 76<76 228> 569 76<76 228> 683 76<76 228>
VStem: 76 152<114 190 228 303 341 417 455 531 569 645 683 759>
LayerCount: 2
Fore
SplineSet
76 683 m 25
 76 759 l 25
 228 759 l 29
 228 683 l 29
 76 683 l 25
76 569 m 25
 76 645 l 25
 228 645 l 25
 228 569 l 25
 76 569 l 25
76 455 m 25
 76 531 l 25
 228 531 l 25
 228 455 l 25
 76 455 l 25
76 341 m 25
 76 417 l 25
 228 417 l 25
 228 341 l 25
 76 341 l 25
76 228 m 25
 76 303 l 25
 228 303 l 25
 228 228 l 25
 76 228 l 25
76 114 m 25
 76 190 l 25
 228 190 l 25
 228 114 l 25
 76 114 l 25
76 0 m 25
 76 76 l 25
 607 76 l 25
 607 0 l 25
 76 0 l 25
EndSplineSet
EndChar

StartChar: N
Encoding: 78 78 7
Width: 758
VWidth: 0
Flags: W
HStem: 0 76<76 228 531 683> 114 76<76 228 455 683> 228 75<76 228 379 683> 341 76<76 228 303 455 531 683> 455 76<76 379 531 683> 569 76<76 303 531 683> 683 76<76 228 531 683>
VStem: 76 152<0 76 114 190 228 303 341 417 683 759> 303 152<341 417> 531 152<0 76 341 417 455 531 569 645 683 759>
LayerCount: 2
Fore
SplineSet
531 76 m 29
 683 76 l 25
 683 0 l 25
 531 0 l 25
 531 76 l 29
455 190 m 25
 683 190 l 25
 683 114 l 25
 455 114 l 25
 455 190 l 25
379 303 m 25
 683 303 l 25
 683 228 l 25
 379 228 l 25
 379 303 l 25
531 531 m 25
 683 531 l 25
 683 455 l 25
 531 455 l 25
 531 531 l 25
531 645 m 25
 683 645 l 25
 683 569 l 25
 531 569 l 25
 531 645 l 25
531 759 m 25
 683 759 l 25
 683 683 l 25
 531 683 l 25
 531 759 l 25
531 341 m 25
 531 417 l 25
 683 417 l 25
 683 341 l 25
 531 341 l 25
303 417 m 25
 455 417 l 25
 455 341 l 25
 303 341 l 25
 303 417 l 25
76 190 m 25
 228 190 l 25
 228 114 l 25
 76 114 l 25
 76 190 l 25
76 303 m 25
 228 303 l 25
 228 228 l 25
 76 228 l 25
 76 303 l 25
76 417 m 25
 228 417 l 25
 228 341 l 25
 76 341 l 25
 76 417 l 25
76 531 m 25
 379 531 l 25
 379 455 l 25
 76 455 l 25
 76 531 l 25
76 645 m 25
 303 645 l 25
 303 569 l 25
 76 569 l 25
 76 645 l 25
76 759 m 25
 228 759 l 25
 228 683 l 25
 76 683 l 25
 76 759 l 25
76 0 m 25
 76 76 l 25
 228 76 l 25
 228 0 l 25
 76 0 l 25
EndSplineSet
EndChar

StartChar: o
Encoding: 111 111 8
Width: 682
VWidth: 0
Flags: W
HStem: 0 76<190 493> 114 76<76 228 455 607> 228 75<76 228 455 607> 341 76<76 228 455 607> 455 76<190 493>
VStem: 76 152<114 190 228 303 341 417> 455 152<114 190 228 303 341 417>
LayerCount: 2
Fore
SplineSet
493 455 m 29
 190 455 l 25
 190 531 l 25
 493 531 l 29
 493 455 l 29
455 341 m 25
 455 417 l 25
 607 417 l 25
 607 341 l 25
 455 341 l 25
455 228 m 25
 455 303 l 25
 607 303 l 25
 607 228 l 25
 455 228 l 25
455 114 m 25
 455 190 l 25
 607 190 l 25
 607 114 l 25
 455 114 l 25
228 341 m 25
 76 341 l 25
 76 417 l 25
 228 417 l 25
 228 341 l 25
228 228 m 25
 76 228 l 25
 76 303 l 25
 228 303 l 25
 228 228 l 25
228 114 m 25
 76 114 l 25
 76 190 l 25
 228 190 l 25
 228 114 l 25
190 0 m 25
 190 76 l 25
 493 76 l 29
 493 0 l 29
 190 0 l 25
EndSplineSet
EndChar

StartChar: e
Encoding: 101 101 9
Width: 682
VWidth: 0
Flags: W
HStem: 0 76<152 531> 114 76<76 228> 228 75<76 607> 341 76<76 228 455 607> 455 76<152 531>
VStem: 76 152<114 190 341 417> 455 152<341 417>
LayerCount: 2
Fore
SplineSet
531 455 m 29
 152 455 l 25
 152 531 l 25
 531 531 l 29
 531 455 l 29
455 341 m 25
 455 417 l 25
 607 417 l 25
 607 341 l 25
 455 341 l 25
228 341 m 25
 76 341 l 25
 76 417 l 25
 228 417 l 25
 228 341 l 25
607 228 m 25
 76 228 l 25
 76 303 l 25
 607 303 l 25
 607 228 l 25
228 114 m 25
 76 114 l 25
 76 190 l 25
 228 190 l 25
 228 114 l 25
152 0 m 25
 152 76 l 25
 531 76 l 25
 531 0 l 25
 152 0 l 25
EndSplineSet
EndChar

StartChar: i
Encoding: 105 105 10
Width: 455
VWidth: 0
Flags: W
HStem: 0 76<76 379> 114 76<152 303> 228 75<152 303> 341 76<152 303> 455 76<76 303> 683 76<152 303>
VStem: 152 151<114 190 228 303 341 417 683 759>
LayerCount: 2
Fore
SplineSet
303 759 m 29
 303 683 l 25
 152 683 l 25
 152 759 l 25
 303 759 l 29
EndSplineSet
Refer: 107 305 N 1 0 0 1 0 0 2
EndChar

StartChar: c
Encoding: 99 99 11
Width: 682
VWidth: 0
Flags: W
HStem: 0 76<152 531> 114 76<76 228 455 607> 228 75<76 228> 341 76<76 228 455 607> 455 76<152 531>
VStem: 76 152<114 190 228 303 341 417> 455 152<114 190 341 417>
LayerCount: 2
Fore
SplineSet
531 455 m 29
 152 455 l 25
 152 531 l 25
 531 531 l 29
 531 455 l 29
455 341 m 25
 455 417 l 25
 607 417 l 25
 607 341 l 25
 455 341 l 25
455 114 m 25
 455 190 l 25
 607 190 l 25
 607 114 l 25
 455 114 l 25
228 341 m 25
 76 341 l 25
 76 417 l 25
 228 417 l 25
 228 341 l 25
228 228 m 25
 76 228 l 25
 76 303 l 25
 228 303 l 25
 228 228 l 25
228 114 m 25
 76 114 l 25
 76 190 l 25
 228 190 l 25
 228 114 l 25
152 0 m 25
 152 76 l 25
 531 76 l 29
 531 0 l 29
 152 0 l 25
EndSplineSet
EndChar

StartChar: C
Encoding: 67 67 12
Width: 758
VWidth: 0
Flags: W
HStem: 0 76<265 569> 114 76<152 303 531 683> 228 75<76 228> 341 76<76 228> 455 76<76 228> 569 76<152 303 531 683> 683 76<265 569>
VStem: 76 152<228 303 341 417 455 531> 152 151<114 190 569 645> 531 152<114 190 569 645>
LayerCount: 2
Fore
SplineSet
265 683 m 25xfe40
 265 759 l 25
 569 759 l 29
 569 683 l 29
 265 683 l 25xfe40
265 0 m 25
 265 76 l 25
 569 76 l 29
 569 0 l 29
 265 0 l 25
531 114 m 25
 531 190 l 25
 683 190 l 25
 683 114 l 25
 531 114 l 25
531 569 m 25
 531 645 l 25
 683 645 l 25
 683 569 l 25
 531 569 l 25
152 569 m 25xfec0
 152 645 l 25
 303 645 l 25
 303 569 l 25
 152 569 l 25xfec0
76 455 m 25xff40
 76 531 l 25
 228 531 l 25
 228 455 l 25
 76 455 l 25xff40
76 341 m 25
 76 417 l 25
 228 417 l 25
 228 341 l 25
 76 341 l 25
76 228 m 25
 76 303 l 25
 228 303 l 25
 228 228 l 25
 76 228 l 25
152 114 m 25xfec0
 152 190 l 25
 303 190 l 25
 303 114 l 25
 152 114 l 25xfec0
EndSplineSet
EndChar

StartChar: O
Encoding: 79 79 13
Width: 834
VWidth: 0
Flags: W
HStem: 0 76<265 569> 114 76<152 303 531 683> 228 75<76 228 607 759> 341 76<76 228 607 759> 455 76<76 228 607 759> 569 76<152 303 531 683> 683 76<265 569>
VStem: 76 152<228 303 341 417 455 531> 152 151<114 190 569 645> 531 152<114 190 569 645> 607 152<228 303 341 417 455 531>
LayerCount: 2
Fore
SplineSet
265 683 m 25xfe
 265 759 l 25
 569 759 l 29
 569 683 l 29
 265 683 l 25xfe
265 0 m 25
 265 76 l 25
 569 76 l 25
 569 0 l 25
 265 0 l 25
531 114 m 25xfe40
 531 190 l 25
 683 190 l 25
 683 114 l 25
 531 114 l 25xfe40
607 455 m 25xfe20
 607 531 l 25
 759 531 l 25
 759 455 l 25
 607 455 l 25xfe20
607 341 m 25
 607 417 l 25
 759 417 l 25
 759 341 l 25
 607 341 l 25
607 228 m 25
 607 303 l 25
 759 303 l 25
 759 228 l 25
 607 228 l 25
531 569 m 25xfe40
 531 645 l 25
 683 645 l 25
 683 569 l 25
 531 569 l 25xfe40
152 569 m 25xfe80
 152 645 l 25
 303 645 l 25
 303 569 l 25
 152 569 l 25xfe80
76 455 m 25xff
 76 531 l 25
 228 531 l 25
 228 455 l 25
 76 455 l 25xff
76 341 m 25
 76 417 l 25
 228 417 l 25
 228 341 l 25
 76 341 l 25
76 228 m 25
 76 303 l 25
 228 303 l 25
 228 228 l 25
 76 228 l 25
152 114 m 25xfe80
 152 190 l 25
 303 190 l 25
 303 114 l 25
 152 114 l 25xfe80
EndSplineSet
EndChar

StartChar: X
Encoding: 88 88 14
Width: 834
VWidth: 0
Flags: W
HStem: 0 76<76 228 607 759> 114 76<152 303 531 683> 228 75<228 379 455 607> 341 76<303 531> 455 76<228 379 455 607> 569 76<152 303 531 683> 683 76<76 228 607 759>
VStem: 76 152<0 76 683 759> 152 151<114 190 569 645> 228 151<228 303 455 531> 455 152<228 303 455 531> 531 152<114 190 569 645> 607 152<0 76 683 759>
LayerCount: 2
Fore
SplineSet
455 531 m 25xfe20
 607 531 l 25
 607 455 l 25
 455 455 l 25
 455 531 l 25xfe20
228 455 m 25xfe40
 228 531 l 25
 379 531 l 25
 379 455 l 25
 228 455 l 25xfe40
531 645 m 25xfe10
 683 645 l 25
 683 569 l 25
 531 569 l 25
 531 645 l 25xfe10
152 569 m 25xfe80
 152 645 l 25
 303 645 l 25
 303 569 l 25
 152 569 l 25xfe80
607 683 m 25xfe08
 607 759 l 25
 759 759 l 25
 759 683 l 25
 607 683 l 25xfe08
76 683 m 25xff
 76 759 l 25
 228 759 l 25
 228 683 l 25
 76 683 l 25xff
607 0 m 25xfe08
 607 76 l 25
 759 76 l 25
 759 0 l 25
 607 0 l 25xfe08
531 190 m 25xfe10
 683 190 l 25
 683 114 l 25
 531 114 l 25
 531 190 l 25xfe10
455 303 m 25xfe20
 607 303 l 25
 607 228 l 25
 455 228 l 25
 455 303 l 25xfe20
303 341 m 25xfe90
 303 417 l 25
 531 417 l 25
 531 341 l 25
 303 341 l 25xfe90
228 228 m 25xfe40
 228 303 l 25
 379 303 l 25
 379 228 l 25
 228 228 l 25xfe40
152 114 m 25xfe80
 152 190 l 25
 303 190 l 25
 303 114 l 25
 152 114 l 25xfe80
76 0 m 25xff
 76 76 l 25
 228 76 l 25
 228 0 l 25
 76 0 l 25xff
EndSplineSet
EndChar

StartChar: U
Encoding: 85 85 15
Width: 758
VWidth: 0
Flags: W
HStem: 0 76<228 531> 114 76<114 265 493 645> 228 75<76 228 531 683> 341 76<76 228 531 683> 455 76<76 228 531 683> 569 76<76 228 531 683> 683 76<76 228 531 683>
VStem: 76 152<228 303 341 417 455 531 569 645 683 759> 114 151<114 190> 493 152<114 190> 531 152<228 303 341 417 455 531 569 645 683 759>
LayerCount: 2
Fore
SplineSet
531 683 m 25xfe20
 531 759 l 25
 683 759 l 25
 683 683 l 25
 531 683 l 25xfe20
531 569 m 25
 531 645 l 25
 683 645 l 25
 683 569 l 25
 531 569 l 25
531 455 m 25
 531 531 l 25
 683 531 l 25
 683 455 l 25
 531 455 l 25
531 341 m 25
 531 417 l 25
 683 417 l 25
 683 341 l 25
 531 341 l 25
531 228 m 25
 531 303 l 25
 683 303 l 25
 683 228 l 25
 531 228 l 25
493 114 m 25xfe40
 493 190 l 25
 645 190 l 25
 645 114 l 25
 493 114 l 25xfe40
76 683 m 25xff
 76 759 l 25
 228 759 l 25
 228 683 l 25
 76 683 l 25xff
76 569 m 25
 76 645 l 25
 228 645 l 25
 228 569 l 25
 76 569 l 25
76 455 m 25
 76 531 l 25
 228 531 l 25
 228 455 l 25
 76 455 l 25
76 341 m 25
 76 417 l 25
 228 417 l 25
 228 341 l 25
 76 341 l 25
76 228 m 25
 76 303 l 25
 228 303 l 25
 228 228 l 25
 76 228 l 25
114 114 m 25xfe80
 114 190 l 25
 265 190 l 25
 265 114 l 25
 114 114 l 25xfe80
228 0 m 25xff20
 228 76 l 25
 531 76 l 29
 531 0 l 29
 228 0 l 25xff20
EndSplineSet
EndChar

StartChar: P
Encoding: 80 80 16
Width: 758
VWidth: 0
Flags: W
HStem: 0 76<76 228> 114 76<76 228> 228 75<76 228> 341 76<76 607> 455 76<76 228 531 683> 569 76<76 228 531 683> 683 76<76 607>
VStem: 76 152<0 76 114 190 228 303 455 531 569 645> 531 152<455 531 569 645>
LayerCount: 2
Fore
SplineSet
607 683 m 25
 76 683 l 25
 76 759 l 25
 607 759 l 25
 607 683 l 25
531 569 m 25
 531 645 l 25
 683 645 l 25
 683 569 l 25
 531 569 l 25
531 455 m 25
 531 531 l 25
 683 531 l 25
 683 455 l 25
 531 455 l 25
76 569 m 25
 76 645 l 25
 228 645 l 25
 228 569 l 25
 76 569 l 25
76 455 m 25
 76 531 l 25
 228 531 l 25
 228 455 l 25
 76 455 l 25
76 341 m 25
 76 417 l 25
 607 417 l 25
 607 341 l 25
 76 341 l 25
228 228 m 25
 76 228 l 25
 76 303 l 25
 228 303 l 25
 228 228 l 25
228 114 m 25
 76 114 l 25
 76 190 l 25
 228 190 l 25
 228 114 l 25
76 0 m 25
 76 76 l 25
 228 76 l 25
 228 0 l 25
 76 0 l 25
EndSplineSet
EndChar

StartChar: B
Encoding: 66 66 17
Width: 758
VWidth: 0
Flags: W
HStem: 0 76<76 569> 114 76<76 228 531 683> 228 75<76 228 531 683> 341 76<76 569> 455 76<76 228 531 683> 569 76<76 228 531 683> 683 76<76 569>
VStem: 76 152<114 190 228 303 455 531 569 645> 531 152<114 190 228 303 455 531 569 645>
LayerCount: 2
Fore
SplineSet
76 341 m 25
 76 417 l 25
 569 417 l 25
 569 341 l 25
 76 341 l 25
76 683 m 25
 76 759 l 25
 569 759 l 25
 569 683 l 25
 76 683 l 25
683 569 m 25
 531 569 l 25
 531 645 l 25
 683 645 l 25
 683 569 l 25
76 569 m 25
 76 645 l 25
 228 645 l 25
 228 569 l 25
 76 569 l 25
683 455 m 25
 531 455 l 25
 531 531 l 25
 683 531 l 25
 683 455 l 25
76 455 m 25
 76 531 l 25
 228 531 l 25
 228 455 l 25
 76 455 l 25
683 228 m 25
 531 228 l 25
 531 303 l 25
 683 303 l 25
 683 228 l 25
76 228 m 25
 76 303 l 25
 228 303 l 25
 228 228 l 25
 76 228 l 25
683 114 m 25
 531 114 l 25
 531 190 l 25
 683 190 l 25
 683 114 l 25
76 114 m 25
 76 190 l 25
 228 190 l 25
 228 114 l 25
 76 114 l 25
76 0 m 25
 76 76 l 25
 569 76 l 29
 569 0 l 29
 76 0 l 25
EndSplineSet
EndChar

StartChar: R
Encoding: 82 82 18
Width: 758
VWidth: 0
Flags: W
HStem: 0 76<76 228 531 683> 114 76<76 228 455 607> 228 75<76 228 379 531> 341 76<76 607> 455 76<76 228 531 683> 569 76<76 228 531 683> 683 76<76 607>
VStem: 76 152<0 76 114 190 228 303 455 531 569 645> 379 152<228 303> 455 152<114 190> 531 152<0 76 455 531 569 645>
LayerCount: 2
Fore
SplineSet
531 228 m 29xff80
 379 228 l 25
 379 303 l 25
 531 303 l 25
 531 228 l 29xff80
607 114 m 25xff40
 455 114 l 25
 455 190 l 25
 607 190 l 25
 607 114 l 25xff40
683 0 m 25xff20
 531 0 l 25
 531 76 l 25
 683 76 l 25
 683 0 l 25xff20
607 683 m 25xff40
 76 683 l 25
 76 759 l 25
 607 759 l 25
 607 683 l 25xff40
531 569 m 25xff20
 531 645 l 25
 683 645 l 25
 683 569 l 25
 531 569 l 25xff20
531 455 m 25
 531 531 l 25
 683 531 l 25
 683 455 l 25
 531 455 l 25
76 569 m 25
 76 645 l 25
 228 645 l 25
 228 569 l 25
 76 569 l 25
76 455 m 25
 76 531 l 25
 228 531 l 25
 228 455 l 25
 76 455 l 25
76 341 m 25
 76 417 l 25
 607 417 l 25
 607 341 l 25xff40
 76 341 l 25
228 228 m 25
 76 228 l 25
 76 303 l 25
 228 303 l 25
 228 228 l 25
228 114 m 25
 76 114 l 25
 76 190 l 25
 228 190 l 25
 228 114 l 25
76 0 m 25
 76 76 l 25
 228 76 l 25
 228 0 l 25
 76 0 l 25
EndSplineSet
EndChar

StartChar: S
Encoding: 83 83 19
Width: 758
VWidth: 0
Flags: W
HStem: 0 76<152 607> 114 76<76 228 531 683> 228 75<531 683> 341 76<152 607> 455 76<76 228> 569 76<76 228 531 683> 683 76<152 607>
VStem: 76 152<114 190 455 531 569 645> 531 152<114 190 228 303 569 645>
LayerCount: 2
Fore
SplineSet
531 645 m 29
 683 645 l 25
 683 569 l 25
 531 569 l 25
 531 645 l 29
152 683 m 25
 152 759 l 25
 607 759 l 25
 607 683 l 25
 152 683 l 25
228 569 m 25
 76 569 l 25
 76 645 l 25
 228 645 l 25
 228 569 l 25
228 455 m 25
 76 455 l 25
 76 531 l 25
 228 531 l 25
 228 455 l 25
607 341 m 25
 152 341 l 25
 152 417 l 25
 607 417 l 25
 607 341 l 25
683 228 m 25
 531 228 l 25
 531 303 l 25
 683 303 l 25
 683 228 l 25
683 114 m 25
 531 114 l 25
 531 190 l 25
 683 190 l 25
 683 114 l 25
152 0 m 25
 152 76 l 25
 607 76 l 25
 607 0 l 25
 152 0 l 25
76 114 m 25
 76 190 l 25
 228 190 l 25
 228 114 l 25
 76 114 l 25
EndSplineSet
EndChar

StartChar: M
Encoding: 77 77 20
Width: 834
VWidth: 0
Flags: W
HStem: 0 76<76 228 607 759> 114 76<76 228 607 759> 228 75<76 228 379 455 607 759> 341 76<76 228 303 531 607 759> 455 76<76 379 455 759> 569 76<76 303 531 759> 683 76<76 228 607 759>
VStem: 76 152<0 76 114 190 228 303 341 417 683 759> 379 76<228 303> 607 152<0 76 114 190 228 303 341 417 683 759>
LayerCount: 2
Fore
SplineSet
759 76 m 25
 759 0 l 25
 607 0 l 25
 607 76 l 25
 759 76 l 25
759 190 m 25
 759 114 l 25
 607 114 l 25
 607 190 l 25
 759 190 l 25
759 303 m 25
 759 228 l 25
 607 228 l 25
 607 303 l 25
 759 303 l 25
759 417 m 25
 759 341 l 25
 607 341 l 25
 607 417 l 25
 759 417 l 25
759 683 m 25
 607 683 l 25
 607 759 l 25
 759 759 l 25
 759 683 l 25
531 569 m 25
 531 645 l 25
 759 645 l 25
 759 569 l 25
 531 569 l 25
455 455 m 25
 455 531 l 25
 759 531 l 25
 759 455 l 25
 455 455 l 25
379 303 m 25
 455 303 l 25
 455 228 l 25
 379 228 l 25
 379 303 l 25
228 759 m 25
 228 683 l 25
 76 683 l 25
 76 759 l 25
 228 759 l 25
228 76 m 25
 228 0 l 25
 76 0 l 25
 76 76 l 25
 228 76 l 25
228 190 m 25
 228 114 l 25
 76 114 l 25
 76 190 l 25
 228 190 l 25
228 303 m 25
 228 228 l 25
 76 228 l 25
 76 303 l 25
 228 303 l 25
228 417 m 25
 228 341 l 25
 76 341 l 25
 76 417 l 25
 228 417 l 25
303 417 m 25
 531 417 l 25
 531 341 l 25
 303 341 l 25
 303 417 l 25
76 531 m 25
 379 531 l 25
 379 455 l 25
 76 455 l 25
 76 531 l 25
76 645 m 25
 303 645 l 25
 303 569 l 25
 76 569 l 25
 76 645 l 25
EndSplineSet
EndChar

StartChar: A
Encoding: 65 65 21
Width: 758
VWidth: 0
Flags: W
HStem: 0 76<76 228 531 683> 114 76<76 228 531 683> 228 75<76 228 531 683> 341 76<76 683> 455 76<76 228 531 683> 569 76<114 265 493 645> 683 76<190 569>
VStem: 76 152<0 76 114 190 228 303 455 531> 114 151<569 645> 493 152<569 645> 531 152<0 76 114 190 228 303 455 531>
LayerCount: 2
Fore
SplineSet
531 228 m 25xfe20
 531 303 l 25
 683 303 l 25
 683 228 l 25
 531 228 l 25xfe20
531 114 m 25
 531 190 l 25
 683 190 l 25
 683 114 l 25
 531 114 l 25
531 0 m 25
 531 76 l 25
 683 76 l 25
 683 0 l 25
 531 0 l 25
531 455 m 25
 531 531 l 25
 683 531 l 25
 683 455 l 25
 531 455 l 25
645 645 m 25xfe40
 645 569 l 25
 493 569 l 25
 493 645 l 25
 645 645 l 25xfe40
190 683 m 25
 190 759 l 25
 569 759 l 29
 569 683 l 29
 190 683 l 25
114 569 m 25xfe80
 114 645 l 25
 265 645 l 25
 265 569 l 25
 114 569 l 25xfe80
76 455 m 25xff
 76 531 l 25
 228 531 l 25
 228 455 l 25
 76 455 l 25xff
76 341 m 25
 76 417 l 25
 683 417 l 25
 683 341 l 25xff20
 76 341 l 25
76 228 m 25
 76 303 l 25
 228 303 l 25
 228 228 l 25
 76 228 l 25
76 114 m 25
 76 190 l 25
 228 190 l 25
 228 114 l 25
 76 114 l 25
76 0 m 25
 76 76 l 25
 228 76 l 25
 228 0 l 25
 76 0 l 25
EndSplineSet
EndChar

StartChar: V
Encoding: 86 86 22
Width: 758
VWidth: 0
Flags: W
HStem: 0 76<265 493> 114 76<190 341 417 569> 228 75<152 303 455 607> 341 76<114 265 493 645> 455 76<76 228 531 683> 569 76<76 228 531 683> 683 76<76 228 531 683>
VStem: 76 152<455 531 569 645 683 759> 114 151<341 417> 152 151<228 303> 190 151<114 190> 417 152<114 190> 455 152<228 303> 493 152<341 417> 531 152<455 531 569 645 683 759>
LayerCount: 2
Fore
SplineSet
531 683 m 25xfe02
 531 759 l 25
 683 759 l 25
 683 683 l 25
 531 683 l 25xfe02
531 569 m 25
 531 645 l 25
 683 645 l 25
 683 569 l 25
 531 569 l 25
531 455 m 25
 531 531 l 25
 683 531 l 25
 683 455 l 25
 531 455 l 25
493 341 m 25xfe04
 493 417 l 25
 645 417 l 25
 645 341 l 25
 493 341 l 25xfe04
455 228 m 25xfe08
 455 303 l 25
 607 303 l 25
 607 228 l 25
 455 228 l 25xfe08
417 114 m 25xfe10
 417 190 l 25
 569 190 l 25
 569 114 l 25
 417 114 l 25xfe10
76 683 m 25xff
 76 759 l 25
 228 759 l 25
 228 683 l 25
 76 683 l 25xff
76 569 m 25
 76 645 l 25
 228 645 l 25
 228 569 l 25
 76 569 l 25
76 455 m 25
 76 531 l 25
 228 531 l 25
 228 455 l 25
 76 455 l 25
114 341 m 25xfe80
 114 417 l 25
 265 417 l 25
 265 341 l 25
 114 341 l 25xfe80
152 228 m 25xfe40
 152 303 l 25
 303 303 l 25
 303 228 l 25
 152 228 l 25xfe40
190 114 m 25xfe20
 190 190 l 25
 341 190 l 25
 341 114 l 25
 190 114 l 25xfe20
265 0 m 25xfe84
 265 76 l 25
 493 76 l 25
 493 0 l 25
 265 0 l 25xfe84
EndSplineSet
EndChar

StartChar: a
Encoding: 97 97 23
Width: 682
VWidth: 0
Flags: W
HStem: 0 76<152 607> 114 76<76 228 455 607> 228 75<152 607> 341 76<455 607> 455 76<190 493>
VStem: 76 152<114 190> 455 152<114 190 341 417>
LayerCount: 2
Fore
SplineSet
493 455 m 25
 190 455 l 25
 190 531 l 25
 493 531 l 25
 493 455 l 25
607 341 m 25
 455 341 l 25
 455 417 l 25
 607 417 l 25
 607 341 l 25
152 228 m 25
 152 303 l 25
 607 303 l 25
 607 228 l 25
 152 228 l 25
228 114 m 25
 76 114 l 25
 76 190 l 25
 228 190 l 25
 228 114 l 25
607 114 m 25
 455 114 l 25
 455 190 l 25
 607 190 l 25
 607 114 l 25
607 0 m 25
 152 0 l 25
 152 76 l 25
 607 76 l 25
 607 0 l 25
EndSplineSet
EndChar

StartChar: r
Encoding: 114 114 24
Width: 682
VWidth: 0
Flags: W
HStem: 0 76<76 228> 114 76<76 228> 228 75<76 228> 341 76<76 303 455 607> 455 76<76 228 303 531>
VStem: 76 152<0 76 114 190 228 303 455 531> 455 152<341 417>
LayerCount: 2
Fore
SplineSet
455 417 m 29
 607 417 l 25
 607 341 l 25
 455 341 l 29
 455 417 l 29
303 455 m 25
 303 531 l 25
 531 531 l 25
 531 455 l 25
 303 455 l 25
228 455 m 25
 76 455 l 25
 76 531 l 25
 228 531 l 25
 228 455 l 25
303 341 m 25
 76 341 l 25
 76 417 l 25
 303 417 l 25
 303 341 l 25
228 228 m 25
 76 228 l 25
 76 303 l 25
 228 303 l 25
 228 228 l 25
228 114 m 25
 76 114 l 25
 76 190 l 25
 228 190 l 25
 228 114 l 25
76 0 m 25
 76 76 l 25
 228 76 l 25
 228 0 l 25
 76 0 l 25
EndSplineSet
EndChar

StartChar: s
Encoding: 115 115 25
Width: 682
VWidth: 0
Flags: W
HStem: 0 76<76 531> 114 76<455 607> 228 75<190 493> 341 76<76 228> 455 76<152 607>
VStem: 76 152<341 417> 455 152<114 190>
LayerCount: 2
Fore
SplineSet
152 455 m 25
 152 531 l 25
 607 531 l 25
 607 455 l 25
 152 455 l 25
228 341 m 25
 76 341 l 25
 76 417 l 25
 228 417 l 25
 228 341 l 25
493 228 m 29
 190 228 l 25
 190 303 l 25
 493 303 l 29
 493 228 l 29
607 114 m 25
 455 114 l 25
 455 190 l 25
 607 190 l 25
 607 114 l 25
76 0 m 25
 76 76 l 25
 531 76 l 25
 531 0 l 25
 76 0 l 25
EndSplineSet
EndChar

StartChar: g
Encoding: 103 103 26
Width: 682
VWidth: 0
Flags: W
HStem: -228 76<152 531> -114 76<76 228 455 607> 0 76<152 531> 114 76<76 228> 228 75<152 531> 341 76<76 228 455 607> 455 76<152 531> 569 76<455 607>
VStem: 76 152<-114 -38 114 190 341 417> 152 379<-228 -152 0 76 228 303 455 531> 455 152<-114 -38 341 417 569 645>
LayerCount: 2
Fore
SplineSet
607 569 m 25xff20
 455 569 l 25
 455 645 l 25
 607 645 l 25
 607 569 l 25xff20
152 455 m 25xff40
 152 531 l 25
 531 531 l 25
 531 455 l 25
 152 455 l 25xff40
607 341 m 25xff20
 455 341 l 25
 455 417 l 25
 607 417 l 25
 607 341 l 25xff20
76 341 m 25xff80
 76 417 l 25
 228 417 l 25
 228 341 l 25
 76 341 l 25xff80
152 228 m 25xff40
 152 303 l 25
 531 303 l 25
 531 228 l 25
 152 228 l 25xff40
228 114 m 25xff80
 76 114 l 25
 76 190 l 25
 228 190 l 25
 228 114 l 25xff80
152 0 m 25xff40
 152 76 l 25
 531 76 l 25
 531 0 l 25
 152 0 l 25xff40
607 -114 m 25xff20
 455 -114 l 25
 455 -38 l 25
 607 -38 l 25
 607 -114 l 25xff20
76 -114 m 25xff80
 76 -38 l 25
 228 -38 l 25
 228 -114 l 25
 76 -114 l 25xff80
152 -228 m 25xff40
 152 -152 l 25
 531 -152 l 25
 531 -228 l 25
 152 -228 l 25xff40
EndSplineSet
EndChar

StartChar: Q
Encoding: 81 81 27
Width: 834
VWidth: 0
Flags: W
HStem: -114 76<569 721> 0 76<265 645> 114 76<152 303 455 683> 228 75<76 228 379 531 607 759> 341 76<76 228 607 759> 455 76<76 228 607 759> 569 76<152 303 531 683> 683 76<265 569>
VStem: 76 152<228 303 341 417 455 531> 152 151<114 190 569 645> 379 152<228 303> 531 152<569 645> 569 152<-114 -38> 607 152<228 303 341 417 455 531>
LayerCount: 2
Fore
SplineSet
569 -114 m 25xff08
 569 -38 l 25
 721 -38 l 25
 721 -114 l 25
 569 -114 l 25xff08
379 228 m 25xff20
 379 303 l 25
 531 303 l 25
 531 228 l 25
 379 228 l 25xff20
265 683 m 25
 265 759 l 25
 569 759 l 25
 569 683 l 25xff08
 265 683 l 25
265 0 m 25
 265 76 l 25
 645 76 l 25
 645 0 l 25
 265 0 l 25
455 114 m 25
 455 190 l 25
 683 190 l 25
 683 114 l 25xff10
 455 114 l 25
607 455 m 25xff04
 607 531 l 25
 759 531 l 25
 759 455 l 25
 607 455 l 25xff04
607 341 m 25
 607 417 l 25
 759 417 l 25
 759 341 l 25
 607 341 l 25
607 228 m 25
 607 303 l 25
 759 303 l 25
 759 228 l 25
 607 228 l 25
531 569 m 25xff10
 531 645 l 25
 683 645 l 25
 683 569 l 25
 531 569 l 25xff10
152 569 m 25xff40
 152 645 l 25
 303 645 l 25
 303 569 l 25
 152 569 l 25xff40
76 455 m 25xff80
 76 531 l 25
 228 531 l 25
 228 455 l 25
 76 455 l 25xff80
76 341 m 25
 76 417 l 25
 228 417 l 25
 228 341 l 25
 76 341 l 25
76 228 m 25
 76 303 l 25
 228 303 l 25
 228 228 l 25
 76 228 l 25
152 114 m 25xff40
 152 190 l 25
 303 190 l 25
 303 114 l 25
 152 114 l 25xff40
EndSplineSet
EndChar

StartChar: J
Encoding: 74 74 28
Width: 758
VWidth: 0
Flags: W
HStem: 0 76<228 531> 114 76<114 265 493 645> 228 75<76 228 531 683> 341 76<531 683> 455 76<531 683> 569 76<531 683> 683 76<531 683>
VStem: 76 152<228 303> 114 151<114 190> 493 152<114 190> 531 152<228 303 341 417 455 531 569 645 683 759>
LayerCount: 2
Fore
SplineSet
76 228 m 25xff
 76 303 l 25
 228 303 l 25
 228 228 l 25
 76 228 l 25xff
531 683 m 25xfe20
 531 759 l 25
 683 759 l 25
 683 683 l 25
 531 683 l 25xfe20
531 569 m 25
 531 645 l 25
 683 645 l 25
 683 569 l 25
 531 569 l 25
531 455 m 25
 531 531 l 25
 683 531 l 25
 683 455 l 25
 531 455 l 25
531 341 m 25
 531 417 l 25
 683 417 l 25
 683 341 l 25
 531 341 l 25
531 228 m 25
 531 303 l 25
 683 303 l 25
 683 228 l 25
 531 228 l 25
493 114 m 29xfe40
 493 190 l 29
 645 190 l 29
 645 114 l 29
 493 114 l 29xfe40
114 114 m 25xfe80
 114 190 l 25
 265 190 l 25
 265 114 l 25
 114 114 l 25xfe80
228 0 m 25xff20
 228 76 l 25
 531 76 l 29
 531 0 l 29
 228 0 l 25xff20
EndSplineSet
EndChar

StartChar: K
Encoding: 75 75 29
Width: 758
VWidth: 0
Flags: W
HStem: 0 76<76 228 531 683> 114 76<76 228 455 607> 228 75<76 228 379 531> 341 76<76 455> 455 76<76 228 379 531> 569 76<76 228 455 607> 683 76<76 228 531 683>
VStem: 76 152<0 76 114 190 228 303 455 531 569 645 683 759> 379 152<228 303 455 531> 455 152<114 190 569 645> 531 152<0 76 683 759>
LayerCount: 2
Fore
SplineSet
379 531 m 25xff80
 531 531 l 25
 531 455 l 25
 379 455 l 25
 379 531 l 25xff80
76 455 m 25
 76 531 l 25
 228 531 l 25
 228 455 l 25
 76 455 l 25
455 645 m 25xff40
 607 645 l 25
 607 569 l 25
 455 569 l 25
 455 645 l 25xff40
76 569 m 25
 76 645 l 25
 228 645 l 25
 228 569 l 25
 76 569 l 25
531 683 m 25xff20
 531 759 l 25
 683 759 l 25
 683 683 l 25
 531 683 l 25xff20
76 683 m 25
 76 759 l 25
 228 759 l 25
 228 683 l 25
 76 683 l 25
531 0 m 25
 531 76 l 25
 683 76 l 25
 683 0 l 25
 531 0 l 25
455 190 m 25xff40
 607 190 l 25
 607 114 l 25
 455 114 l 25
 455 190 l 25xff40
379 303 m 25xff80
 531 303 l 25
 531 228 l 25
 379 228 l 25
 379 303 l 25xff80
76 341 m 25
 76 417 l 25
 455 417 l 25
 455 341 l 25xff40
 76 341 l 25
76 228 m 25
 76 303 l 25
 228 303 l 25
 228 228 l 25
 76 228 l 25
76 114 m 25
 76 190 l 25
 228 190 l 25
 228 114 l 25
 76 114 l 25
76 0 m 25
 76 76 l 25
 228 76 l 25
 228 0 l 25
 76 0 l 25
EndSplineSet
EndChar

StartChar: D
Encoding: 68 68 30
Width: 758
VWidth: 0
Flags: W
HStem: 0 76<76 455> 114 76<76 228 455 607> 228 75<76 228 531 683> 341 76<76 228 531 683> 455 76<76 228 531 683> 569 76<76 228 455 607> 683 76<76 455>
VStem: 76 152<114 190 228 303 341 417 455 531 569 645> 455 152<114 190 569 645> 531 152<228 303 341 417 455 531>
LayerCount: 2
Fore
SplineSet
76 683 m 25xff80
 76 759 l 25
 455 759 l 25
 455 683 l 25
 76 683 l 25xff80
76 0 m 25
 76 76 l 25
 455 76 l 29
 455 0 l 29
 76 0 l 25
455 114 m 25
 455 190 l 25
 607 190 l 25
 607 114 l 25
 455 114 l 25
531 455 m 25xff40
 531 531 l 25
 683 531 l 25
 683 455 l 25
 531 455 l 25xff40
531 341 m 25
 531 417 l 25
 683 417 l 25
 683 341 l 25
 531 341 l 25
531 228 m 25
 531 303 l 25
 683 303 l 25
 683 228 l 25
 531 228 l 25
455 569 m 25xff80
 455 645 l 25
 607 645 l 25
 607 569 l 25
 455 569 l 25xff80
76 569 m 25
 76 645 l 25
 228 645 l 25
 228 569 l 25
 76 569 l 25
76 455 m 25
 76 531 l 25
 228 531 l 25
 228 455 l 25
 76 455 l 25
76 341 m 25
 76 417 l 25
 228 417 l 25
 228 341 l 25
 76 341 l 25
76 228 m 25
 76 303 l 25
 228 303 l 25
 228 228 l 25
 76 228 l 25
76 114 m 25
 76 190 l 25
 228 190 l 25
 228 114 l 25
 76 114 l 25
EndSplineSet
EndChar

StartChar: W
Encoding: 87 87 31
Width: 910
VWidth: 0
Flags: W
HStem: 0 76<190 417 493 721> 114 76<114 265 341 569 645 796> 228 75<76 228 379 531 683 834> 341 76<76 228 379 531 683 834> 455 76<76 228 379 531 683 834> 569 76<76 228 683 834> 683 76<76 228 683 834>
VStem: 76 152<228 303 341 417 455 531 569 645 683 759> 114 151<114 190> 379 152<228 303 341 417 455 531> 645 151<114 190> 683 151<228 303 341 417 455 531 569 645 683 759>
LayerCount: 2
Fore
SplineSet
683 455 m 25xfe50
 683 531 l 25
 834 531 l 25
 834 455 l 25
 683 455 l 25xfe50
379 455 m 25
 379 531 l 25
 531 531 l 25
 531 455 l 25
 379 455 l 25
76 455 m 25xff40
 76 531 l 25
 228 531 l 25
 228 455 l 25
 76 455 l 25xff40
683 341 m 25xfe50
 683 417 l 25
 834 417 l 25
 834 341 l 25
 683 341 l 25xfe50
379 341 m 25
 379 417 l 25
 531 417 l 25
 531 341 l 25
 379 341 l 25
76 341 m 25xff40
 76 417 l 25
 228 417 l 25
 228 341 l 25
 76 341 l 25xff40
493 0 m 25
 493 76 l 25
 721 76 l 25
 721 0 l 25
 493 0 l 25
190 0 m 25
 190 76 l 25
 417 76 l 25
 417 0 l 25
 190 0 l 25
683 683 m 25xfe50
 683 759 l 25
 834 759 l 25
 834 683 l 25
 683 683 l 25xfe50
683 569 m 25
 683 645 l 25
 834 645 l 25
 834 569 l 25
 683 569 l 25
683 228 m 25
 683 303 l 25
 834 303 l 25
 834 228 l 25
 683 228 l 25
645 114 m 25xfe60
 645 190 l 25
 796 190 l 25
 796 114 l 25
 645 114 l 25xfe60
379 228 m 25
 379 303 l 25
 531 303 l 25
 531 228 l 25
 379 228 l 25
341 114 m 25
 341 190 l 25
 569 190 l 25
 569 114 l 25
 341 114 l 25
76 683 m 25xff40
 76 759 l 25
 228 759 l 25
 228 683 l 25
 76 683 l 25xff40
76 569 m 25
 76 645 l 25
 228 645 l 25
 228 569 l 25
 76 569 l 25
76 228 m 25
 76 303 l 25
 228 303 l 25
 228 228 l 25
 76 228 l 25
114 114 m 25xfec0
 114 190 l 25
 265 190 l 25
 265 114 l 25
 114 114 l 25xfec0
EndSplineSet
EndChar

StartChar: Z
Encoding: 90 90 32
Width: 758
VWidth: 0
Flags: W
HStem: 0 76<76 683> 114 76<76 228> 228 75<190 341> 341 76<303 455> 455 76<417 569> 569 76<531 683> 683 76<76 683>
VStem: 76 152<114 190> 190 151<228 303> 303 152<341 417> 417 152<455 531> 531 152<569 645>
LayerCount: 2
Fore
SplineSet
303 341 m 25xfe40
 303 417 l 25
 455 417 l 25
 455 341 l 25
 303 341 l 25xfe40
569 531 m 25xfe20
 569 455 l 25
 417 455 l 25
 417 531 l 25
 569 531 l 25xfe20
190 228 m 25xfe80
 190 303 l 25
 341 303 l 25
 341 228 l 25
 190 228 l 25xfe80
683 645 m 25xfe10
 683 569 l 25
 531 569 l 25
 531 645 l 25
 683 645 l 25xfe10
76 114 m 25xff
 76 190 l 25
 228 190 l 25
 228 114 l 25
 76 114 l 25xff
76 759 m 25
 683 759 l 25
 683 683 l 25xff10
 76 683 l 25
 76 759 l 25
76 0 m 25
 76 76 l 25
 683 76 l 25
 683 0 l 25
 76 0 l 25
EndSplineSet
EndChar

StartChar: w
Encoding: 119 119 33
Width: 910
VWidth: 0
Flags: W
HStem: 0 76<190 417 493 721> 114 76<114 265 341 569 645 796> 228 75<76 228 379 531 683 834> 341 76<76 228 379 531 683 834> 455 76<76 228 683 834>
VStem: 76 152<228 303 341 417 455 531> 114 151<114 190> 379 152<228 303 341 417> 645 151<114 190> 683 151<228 303 341 417 455 531>
LayerCount: 2
Fore
SplineSet
493 0 m 25xf9
 493 76 l 25
 721 76 l 25
 721 0 l 25
 493 0 l 25xf9
190 0 m 25
 190 76 l 25
 417 76 l 25
 417 0 l 25
 190 0 l 25
683 455 m 25xf940
 683 531 l 25
 834 531 l 25
 834 455 l 25
 683 455 l 25xf940
683 341 m 25
 683 417 l 25
 834 417 l 25
 834 341 l 25
 683 341 l 25
683 228 m 25
 683 303 l 25
 834 303 l 25
 834 228 l 25
 683 228 l 25
645 114 m 25xf980
 645 190 l 25
 796 190 l 25
 796 114 l 25
 645 114 l 25xf980
379 341 m 25
 379 417 l 25
 531 417 l 25
 531 341 l 25
 379 341 l 25
379 228 m 25
 379 303 l 25
 531 303 l 25
 531 228 l 25
 379 228 l 25
341 114 m 25
 341 190 l 25
 569 190 l 29
 569 114 l 29
 341 114 l 25
76 455 m 25xfd
 76 531 l 25
 228 531 l 25
 228 455 l 25
 76 455 l 25xfd
76 341 m 25
 76 417 l 25
 228 417 l 25
 228 341 l 25
 76 341 l 25
76 228 m 25
 76 303 l 25
 228 303 l 25
 228 228 l 25
 76 228 l 25
114 114 m 25xfb
 114 190 l 25
 265 190 l 25
 265 114 l 25
 114 114 l 25xfb
EndSplineSet
EndChar

StartChar: v
Encoding: 118 118 34
Width: 682
VWidth: 0
Flags: W
HStem: 0 76<228 455> 114 76<152 303 379 531> 228 75<114 265 417 569> 341 76<76 228 455 607> 455 76<76 228 455 607>
VStem: 76 152<341 417 455 531> 114 151<228 303> 152 151<114 190> 379 152<114 190> 417 152<228 303> 455 152<341 417 455 531>
LayerCount: 2
Fore
SplineSet
455 455 m 25xf820
 455 531 l 25
 607 531 l 25
 607 455 l 25
 455 455 l 25xf820
455 341 m 25
 455 417 l 25
 607 417 l 25
 607 341 l 25
 455 341 l 25
417 228 m 25xf840
 417 303 l 25
 569 303 l 25
 569 228 l 25
 417 228 l 25xf840
379 114 m 25xf880
 379 190 l 25
 531 190 l 25
 531 114 l 25
 379 114 l 25xf880
76 455 m 25xfc
 76 531 l 25
 228 531 l 25
 228 455 l 25
 76 455 l 25xfc
76 341 m 25
 76 417 l 25
 228 417 l 25
 228 341 l 25
 76 341 l 25
114 228 m 25xfa
 114 303 l 25
 265 303 l 25
 265 228 l 25
 114 228 l 25xfa
152 114 m 25xf9
 152 190 l 25
 303 190 l 25
 303 114 l 25
 152 114 l 25xf9
228 0 m 25xfc20
 228 76 l 25
 455 76 l 25
 455 0 l 25
 228 0 l 25xfc20
EndSplineSet
EndChar

StartChar: x
Encoding: 120 120 35
Width: 682
VWidth: 0
Flags: W
HStem: 0 76<76 228 455 607> 114 76<152 303 379 531> 228 75<228 455> 341 76<152 303 379 531> 455 76<76 228 455 607>
VStem: 76 152<0 76 455 531> 152 151<114 190 341 417> 379 152<114 190 341 417> 455 152<0 76 455 531>
LayerCount: 2
Fore
SplineSet
379 417 m 25xf9
 531 417 l 25
 531 341 l 25
 379 341 l 25
 379 417 l 25xf9
152 341 m 25xfa
 152 417 l 25
 303 417 l 25
 303 341 l 25
 152 341 l 25xfa
455 531 m 25xf880
 607 531 l 25
 607 455 l 25
 455 455 l 25
 455 531 l 25xf880
76 455 m 25xfc
 76 531 l 25
 228 531 l 25
 228 455 l 25
 76 455 l 25xfc
455 76 m 25xf880
 607 76 l 25
 607 0 l 25
 455 0 l 25
 455 76 l 25xf880
379 190 m 25xf9
 531 190 l 25
 531 114 l 25
 379 114 l 25
 379 190 l 25xf9
228 228 m 25xfc80
 228 303 l 25
 455 303 l 25
 455 228 l 25
 228 228 l 25xfc80
152 114 m 25xfa
 152 190 l 25
 303 190 l 25
 303 114 l 25
 152 114 l 25xfa
76 0 m 25xfc
 76 76 l 25
 228 76 l 25
 228 0 l 25
 76 0 l 25xfc
EndSplineSet
EndChar

StartChar: b
Encoding: 98 98 36
Width: 682
VWidth: 0
Flags: W
HStem: 0 76<76 531> 114 76<76 228 455 607> 228 75<76 228 455 607> 341 76<76 303 455 607> 455 76<76 228 303 531> 569 76<76 228> 683 76<76 228>
VStem: 76 152<114 190 228 303 455 531 569 645 683 759> 455 152<114 190 228 303 341 417>
LayerCount: 2
Fore
SplineSet
228 683 m 29
 76 683 l 25
 76 759 l 25
 228 759 l 25
 228 683 l 29
228 569 m 25
 76 569 l 25
 76 645 l 25
 228 645 l 25
 228 569 l 25
228 455 m 25
 76 455 l 25
 76 531 l 25
 228 531 l 25
 228 455 l 25
228 303 m 25
 228 228 l 25
 76 228 l 25
 76 303 l 25
 228 303 l 25
303 417 m 25
 303 341 l 25
 76 341 l 25
 76 417 l 25
 303 417 l 25
531 455 m 25
 303 455 l 25
 303 531 l 25
 531 531 l 25
 531 455 l 25
607 341 m 25
 455 341 l 25
 455 417 l 25
 607 417 l 25
 607 341 l 25
607 228 m 25
 455 228 l 25
 455 303 l 25
 607 303 l 25
 607 228 l 25
607 114 m 25
 455 114 l 25
 455 190 l 25
 607 190 l 25
 607 114 l 25
76 114 m 25
 76 190 l 25
 228 190 l 25
 228 114 l 25
 76 114 l 25
76 0 m 25
 76 76 l 25
 531 76 l 25
 531 0 l 25
 76 0 l 25
EndSplineSet
EndChar

StartChar: d
Encoding: 100 100 37
Width: 682
VWidth: 0
Flags: W
HStem: 0 76<152 417 493 607> 114 76<76 228 379 607> 228 75<76 228 455 607> 341 76<114 265 455 607> 455 76<190 607> 569 76<455 607> 683 76<455 607>
VStem: 76 152<114 190 228 303> 114 151<341 417> 455 152<228 303 341 417 569 645 683 759> 493 114<0 76>
LayerCount: 2
Fore
SplineSet
76 190 m 25xff
 228 190 l 25
 228 114 l 25
 76 114 l 25
 76 190 l 25xff
76 303 m 25
 228 303 l 25
 228 228 l 25
 76 228 l 25
 76 303 l 25
114 417 m 25xfe80
 265 417 l 25
 265 341 l 25
 114 341 l 25
 114 417 l 25xfe80
607 683 m 25xfe40
 455 683 l 25
 455 759 l 25
 607 759 l 25
 607 683 l 25xfe40
607 569 m 25
 455 569 l 25
 455 645 l 25
 607 645 l 25
 607 569 l 25
607 455 m 25xfe20
 190 455 l 25
 190 531 l 25
 607 531 l 25
 607 455 l 25xfe20
607 341 m 25xfe40
 455 341 l 25
 455 417 l 25
 607 417 l 25
 607 341 l 25xfe40
607 228 m 25
 455 228 l 25
 455 303 l 25
 607 303 l 25
 607 228 l 25
607 114 m 25xfe20
 379 114 l 25
 379 190 l 25
 607 190 l 25
 607 114 l 25xfe20
417 0 m 25
 152 0 l 25
 152 76 l 25
 417 76 l 25
 417 0 l 25
607 0 m 25
 493 0 l 25
 493 76 l 25
 607 76 l 25
 607 0 l 25
EndSplineSet
EndChar

StartChar: p
Encoding: 112 112 38
Width: 682
VWidth: 0
Flags: W
HStem: -228 76<76 228> -114 76<76 228> 0 76<76 228 303 531> 114 76<76 303 455 607> 228 75<76 228 455 607> 341 76<76 303 455 607> 455 76<76 228 303 531>
VStem: 76 227<114 190 341 417> 76 152<-228 -152 -114 -38 0 76 228 303 455 531> 303 228<0 76 455 531> 455 152<114 190 228 303 341 417>
LayerCount: 2
Fore
SplineSet
531 76 m 25xfe40
 531 0 l 25
 303 0 l 25
 303 76 l 25
 531 76 l 25xfe40
455 190 m 25xfe20
 607 190 l 25
 607 114 l 25
 455 114 l 25
 455 190 l 25xfe20
455 303 m 25
 607 303 l 25
 607 228 l 25
 455 228 l 25
 455 303 l 25
455 417 m 25
 607 417 l 25
 607 341 l 25
 455 341 l 25
 455 417 l 25
303 455 m 25xfe40
 303 531 l 25
 531 531 l 25
 531 455 l 25
 303 455 l 25xfe40
76 455 m 25xfe80
 76 531 l 25
 228 531 l 25
 228 455 l 25
 76 455 l 25xfe80
76 341 m 25xff
 76 417 l 25
 303 417 l 25
 303 341 l 25
 76 341 l 25xff
76 228 m 25xfe80
 76 303 l 25
 228 303 l 25
 228 228 l 25
 76 228 l 25xfe80
76 114 m 25xff
 76 190 l 25
 303 190 l 25
 303 114 l 25
 76 114 l 25xff
76 0 m 25xfe80
 76 76 l 25
 228 76 l 25
 228 0 l 25
 76 0 l 25xfe80
76 -114 m 25
 76 -38 l 25
 228 -38 l 25
 228 -114 l 25
 76 -114 l 25
76 -228 m 25
 76 -152 l 25
 228 -152 l 25
 228 -228 l 25
 76 -228 l 25
EndSplineSet
EndChar

StartChar: q
Encoding: 113 113 39
Width: 682
VWidth: 0
Flags: W
HStem: -228 76<455 607> -114 76<455 607> 0 76<152 607> 114 76<76 228 455 607> 228 75<76 228 455 607> 341 76<76 228 455 607> 455 76<152 607>
VStem: 76 152<114 190 228 303 341 417> 455 152<-228 -152 -114 -38 114 190 228 303 341 417>
LayerCount: 2
Fore
SplineSet
455 341 m 25
 455 417 l 25
 607 417 l 25
 607 341 l 25
 455 341 l 25
455 228 m 25
 455 303 l 25
 607 303 l 25
 607 228 l 25
 455 228 l 25
455 114 m 25
 455 190 l 25
 607 190 l 25
 607 114 l 25
 455 114 l 25
152 455 m 25
 152 531 l 25
 607 531 l 25
 607 455 l 25
 152 455 l 25
76 341 m 25
 76 417 l 25
 228 417 l 25
 228 341 l 25
 76 341 l 25
76 228 m 25
 76 303 l 25
 228 303 l 25
 228 228 l 25
 76 228 l 25
76 114 m 25
 76 190 l 25
 228 190 l 25
 228 114 l 25
 76 114 l 25
607 0 m 25
 152 0 l 25
 152 76 l 25
 607 76 l 25
 607 0 l 25
607 -114 m 25
 455 -114 l 25
 455 -38 l 25
 607 -38 l 25
 607 -114 l 25
607 -228 m 25
 455 -228 l 25
 455 -152 l 25
 607 -152 l 25
 607 -228 l 25
EndSplineSet
EndChar

StartChar: u
Encoding: 117 117 40
Width: 682
VWidth: 0
Flags: W
HStem: 0 76<152 607> 114 76<76 228 455 607> 228 75<76 228 455 607> 341 76<76 228 455 607> 455 76<76 228 455 607>
VStem: 76 152<114 190 228 303 341 417 455 531> 455 152<114 190 228 303 341 417 455 531>
LayerCount: 2
Fore
SplineSet
228 455 m 29
 76 455 l 29
 76 531 l 29
 228 531 l 29
 228 455 l 29
228 341 m 29
 76 341 l 29
 76 417 l 29
 228 417 l 29
 228 341 l 29
228 228 m 29
 76 228 l 29
 76 303 l 29
 228 303 l 29
 228 228 l 29
228 114 m 29
 76 114 l 29
 76 190 l 29
 228 190 l 29
 228 114 l 29
607 455 m 25
 455 455 l 25
 455 531 l 25
 607 531 l 25
 607 455 l 25
607 341 m 25
 455 341 l 25
 455 417 l 25
 607 417 l 25
 607 341 l 25
607 228 m 25
 455 228 l 25
 455 303 l 25
 607 303 l 25
 607 228 l 25
607 114 m 25
 455 114 l 25
 455 190 l 25
 607 190 l 25
 607 114 l 25
607 0 m 25
 152 0 l 25
 152 76 l 25
 607 76 l 25
 607 0 l 25
EndSplineSet
EndChar

StartChar: n
Encoding: 110 110 41
Width: 682
VWidth: 0
Flags: W
HStem: 0 76<76 228 455 607> 114 76<76 228 455 607> 228 75<76 228 455 607> 341 76<76 303 455 607> 455 76<76 228 303 531>
VStem: 76 152<0 76 114 190 228 303 455 531> 455 152<0 76 114 190 228 303 341 417>
LayerCount: 2
Fore
SplineSet
607 228 m 25
 455 228 l 25
 455 303 l 25
 607 303 l 25
 607 228 l 25
607 114 m 25
 455 114 l 25
 455 190 l 25
 607 190 l 25
 607 114 l 25
455 0 m 25
 455 76 l 25
 607 76 l 25
 607 0 l 25
 455 0 l 25
455 417 m 25
 607 417 l 25
 607 341 l 25
 455 341 l 25
 455 417 l 25
303 455 m 25
 303 531 l 25
 531 531 l 25
 531 455 l 25
 303 455 l 25
228 455 m 25
 76 455 l 25
 76 531 l 25
 228 531 l 25
 228 455 l 25
303 341 m 25
 76 341 l 25
 76 417 l 25
 303 417 l 25
 303 341 l 25
228 228 m 25
 76 228 l 25
 76 303 l 25
 228 303 l 25
 228 228 l 25
228 114 m 25
 76 114 l 25
 76 190 l 25
 228 190 l 25
 228 114 l 25
76 0 m 25
 76 76 l 25
 228 76 l 25
 228 0 l 25
 76 0 l 25
EndSplineSet
EndChar

StartChar: m
Encoding: 109 109 42
Width: 910
VWidth: 0
Flags: W
HStem: 0 76<76 228 379 531 683 834> 114 76<76 228 379 531 683 834> 228 75<76 228 379 531 683 834> 341 76<76 303 379 607 683 834> 455 76<76 228 303 455 607 759>
VStem: 76 152<0 76 114 190 228 303 455 531> 303 152<455 531> 379 152<0 76 114 190 228 303> 607 152<455 531> 683 151<0 76 114 190 228 303 341 417>
LayerCount: 2
Fore
SplineSet
834 228 m 25xfc40
 683 228 l 25
 683 303 l 25
 834 303 l 25
 834 228 l 25xfc40
834 114 m 25
 683 114 l 25
 683 190 l 25
 834 190 l 25
 834 114 l 25
683 0 m 25
 683 76 l 25
 834 76 l 25
 834 0 l 25
 683 0 l 25
683 417 m 25
 834 417 l 25
 834 341 l 25
 683 341 l 25
 683 417 l 25
607 455 m 25xfc80
 607 531 l 25
 759 531 l 25
 759 455 l 25
 607 455 l 25xfc80
531 228 m 25xfd
 379 228 l 25
 379 303 l 25
 531 303 l 25
 531 228 l 25xfd
531 114 m 25
 379 114 l 25
 379 190 l 25
 531 190 l 25
 531 114 l 25
379 0 m 25
 379 76 l 25
 531 76 l 25
 531 0 l 25
 379 0 l 25
379 417 m 25
 607 417 l 25
 607 341 l 25xfd80
 379 341 l 25
 379 417 l 25
303 455 m 25xfe
 303 531 l 25
 455 531 l 25
 455 455 l 25
 303 455 l 25xfe
228 455 m 25
 76 455 l 25
 76 531 l 25
 228 531 l 25
 228 455 l 25
303 341 m 25
 76 341 l 25
 76 417 l 25
 303 417 l 25
 303 341 l 25
228 228 m 25
 76 228 l 25
 76 303 l 25
 228 303 l 25
 228 228 l 25
228 114 m 25
 76 114 l 25
 76 190 l 25
 228 190 l 25
 228 114 l 25
76 0 m 25
 76 76 l 25
 228 76 l 25
 228 0 l 25
 76 0 l 25
EndSplineSet
EndChar

StartChar: Y
Encoding: 89 89 43
Width: 758
VWidth: 0
Flags: W
HStem: 0 76<303 455> 114 76<303 455> 228 75<303 455> 341 76<228 531> 455 76<152 303 455 607> 569 76<76 228 531 683> 683 76<76 228 531 683>
VStem: 76 152<569 645 683 759> 152 151<455 531> 303 152<0 76 114 190 228 303> 455 152<455 531> 531 152<569 645 683 759>
LayerCount: 2
Fore
SplineSet
683 683 m 25xfe10
 531 683 l 25
 531 759 l 25
 683 759 l 25
 683 683 l 25xfe10
683 569 m 25
 531 569 l 25
 531 645 l 25
 683 645 l 25
 683 569 l 25
607 455 m 25xfe20
 455 455 l 25
 455 531 l 25
 607 531 l 25
 607 455 l 25xfe20
228 759 m 25xff
 228 683 l 25
 76 683 l 25
 76 759 l 25
 228 759 l 25xff
76 569 m 25
 76 645 l 25
 228 645 l 25
 228 569 l 25
 76 569 l 25
152 455 m 29xfe80
 152 531 l 29
 303 531 l 29
 303 455 l 29
 152 455 l 29xfe80
228 341 m 25xff10
 228 417 l 25
 531 417 l 25
 531 341 l 25
 228 341 l 25xff10
303 228 m 25xfe40
 303 303 l 25
 455 303 l 25
 455 228 l 25
 303 228 l 25xfe40
303 114 m 25
 303 190 l 25
 455 190 l 25
 455 114 l 25
 303 114 l 25
303 0 m 25
 303 76 l 25
 455 76 l 25
 455 0 l 25
 303 0 l 25
EndSplineSet
EndChar

StartChar: G
Encoding: 71 71 44
Width: 758
VWidth: 0
Flags: W
HStem: 0 76<265 683> 114 76<152 303 531 683> 228 75<76 228 531 683> 341 76<76 228 379 683> 455 76<76 228> 569 76<152 303 531 683> 683 76<265 569>
VStem: 76 152<228 303 341 417 455 531> 152 151<114 190 569 645> 531 152<114 190 228 303 569 645>
LayerCount: 2
Fore
SplineSet
379 341 m 25xfe40
 379 417 l 25
 683 417 l 25
 683 341 l 25
 379 341 l 25xfe40
531 228 m 25
 531 303 l 25
 683 303 l 25
 683 228 l 25
 531 228 l 25
265 683 m 25
 265 759 l 25
 569 759 l 25
 569 683 l 25
 265 683 l 25
265 0 m 25
 265 76 l 25
 683 76 l 25
 683 0 l 25
 265 0 l 25
531 114 m 25
 531 190 l 25
 683 190 l 25
 683 114 l 25
 531 114 l 25
531 569 m 25
 531 645 l 25
 683 645 l 25
 683 569 l 25
 531 569 l 25
152 569 m 25xfec0
 152 645 l 25
 303 645 l 25
 303 569 l 25
 152 569 l 25xfec0
76 455 m 25xff40
 76 531 l 25
 228 531 l 25
 228 455 l 25
 76 455 l 25xff40
76 341 m 25
 76 417 l 25
 228 417 l 25
 228 341 l 25
 76 341 l 25
76 228 m 25
 76 303 l 25
 228 303 l 25
 228 228 l 25
 76 228 l 25
152 114 m 25xfec0
 152 190 l 25
 303 190 l 25
 303 114 l 25
 152 114 l 25xfec0
EndSplineSet
EndChar

StartChar: h
Encoding: 104 104 45
Width: 682
VWidth: 0
Flags: W
HStem: 0 76<76 228 455 607> 114 76<76 228 455 607> 228 75<76 228 455 607> 341 76<76 303 455 607> 455 76<76 228 303 531> 569 76<76 228> 683 76<76 228>
VStem: 76 152<0 76 114 190 228 303 455 531 569 645 683 759> 455 152<0 76 114 190 228 303 341 417>
LayerCount: 2
Fore
SplineSet
228 683 m 29
 76 683 l 29
 76 759 l 29
 228 759 l 29
 228 683 l 29
76 569 m 29
 76 645 l 29
 228 645 l 29
 228 569 l 29
 76 569 l 29
607 228 m 25
 455 228 l 25
 455 303 l 25
 607 303 l 25
 607 228 l 25
607 114 m 25
 455 114 l 25
 455 190 l 25
 607 190 l 25
 607 114 l 25
455 0 m 25
 455 76 l 25
 607 76 l 25
 607 0 l 25
 455 0 l 25
455 417 m 25
 607 417 l 25
 607 341 l 25
 455 341 l 25
 455 417 l 25
303 455 m 25
 303 531 l 25
 531 531 l 25
 531 455 l 25
 303 455 l 25
228 455 m 25
 76 455 l 25
 76 531 l 25
 228 531 l 25
 228 455 l 25
303 341 m 25
 76 341 l 25
 76 417 l 25
 303 417 l 25
 303 341 l 25
228 228 m 25
 76 228 l 25
 76 303 l 25
 228 303 l 25
 228 228 l 25
228 114 m 25
 76 114 l 25
 76 190 l 25
 228 190 l 25
 228 114 l 25
76 0 m 25
 76 76 l 25
 228 76 l 25
 228 0 l 25
 76 0 l 25
EndSplineSet
EndChar

StartChar: k
Encoding: 107 107 46
Width: 682
VWidth: 0
Flags: W
HStem: 38 76<76 228 455 607> 152 76<76 228 379 531> 265 76<76 455> 379 76<76 228 379 531> 493 76<76 228 455 607> 607 76<76 228> 721 75<76 228>
VStem: 76 152<38 114 152 228 379 455 493 569 607 683 721 796> 379 152<152 228 379 455> 455 152<38 114 493 569>
LayerCount: 2
Fore
SplineSet
379 455 m 29xff80
 531 455 l 29
 531 379 l 29
 379 379 l 29
 379 455 l 29xff80
76 379 m 25
 76 455 l 25
 228 455 l 25
 228 379 l 25
 76 379 l 25
455 569 m 29xff40
 607 569 l 29
 607 493 l 29
 455 493 l 29
 455 569 l 29xff40
76 493 m 25
 76 569 l 25
 228 569 l 25
 228 493 l 25
 76 493 l 25
76 607 m 25
 76 683 l 25
 228 683 l 25
 228 607 l 25
 76 607 l 25
455 114 m 29
 607 114 l 29
 607 38 l 29
 455 38 l 29
 455 114 l 29
379 228 m 29xff80
 531 228 l 29
 531 152 l 29
 379 152 l 29
 379 228 l 29xff80
76 265 m 25
 76 341 l 25
 455 341 l 29
 455 265 l 29xff40
 76 265 l 25
76 152 m 25
 76 228 l 25
 228 228 l 25
 228 152 l 25
 76 152 l 25
76 38 m 25
 76 114 l 25
 228 114 l 25
 228 38 l 25
 76 38 l 25
76 721 m 25
 76 796 l 25
 228 796 l 25
 228 721 l 25
 76 721 l 25
EndSplineSet
EndChar

StartChar: y
Encoding: 121 121 47
Width: 682
VWidth: 0
Flags: W
HStem: -228 76<152 531> -114 76<455 607> 0 76<152 379 455 607> 114 76<76 228 379 607> 228 75<76 228 455 607> 341 76<76 228 455 607> 455 76<76 228 455 607>
VStem: 76 152<114 190 228 303 341 417 455 531> 455 152<-114 -38 0 76 228 303 341 417 455 531>
LayerCount: 2
Fore
SplineSet
531 -152 m 29
 531 -228 l 25
 152 -228 l 25
 152 -152 l 25
 531 -152 l 29
455 -38 m 25
 607 -38 l 25
 607 -114 l 25
 455 -114 l 25
 455 -38 l 25
455 0 m 25
 455 76 l 25
 607 76 l 25
 607 0 l 25
 455 0 l 25
228 455 m 25
 76 455 l 25
 76 531 l 25
 228 531 l 25
 228 455 l 25
228 341 m 25
 76 341 l 25
 76 417 l 25
 228 417 l 25
 228 341 l 25
228 228 m 25
 76 228 l 25
 76 303 l 25
 228 303 l 25
 228 228 l 25
228 114 m 25
 76 114 l 25
 76 190 l 25
 228 190 l 25
 228 114 l 25
607 455 m 25
 455 455 l 25
 455 531 l 25
 607 531 l 25
 607 455 l 25
607 341 m 25
 455 341 l 25
 455 417 l 25
 607 417 l 25
 607 341 l 25
607 228 m 25
 455 228 l 25
 455 303 l 25
 607 303 l 25
 607 228 l 25
607 114 m 25
 379 114 l 25
 379 190 l 25
 607 190 l 25
 607 114 l 25
379 0 m 25
 152 0 l 25
 152 76 l 25
 379 76 l 25
 379 0 l 25
EndSplineSet
EndChar

StartChar: f
Encoding: 102 102 48
Width: 682
VWidth: 0
Flags: W
HStem: 0 76<152 303> 114 76<152 303> 228 75<152 303> 341 76<76 531> 455 76<152 303> 569 76<152 303 455 607> 683 76<228 531>
VStem: 152 151<0 76 114 190 228 303 455 531 569 645> 455 152<569 645>
LayerCount: 2
Fore
SplineSet
152 0 m 29
 152 76 l 29
 303 76 l 29
 303 0 l 29
 152 0 l 29
228 683 m 25
 228 759 l 25
 531 759 l 25
 531 683 l 25
 228 683 l 25
152 569 m 25
 152 645 l 25
 303 645 l 25
 303 569 l 25
 152 569 l 25
607 569 m 25
 455 569 l 25
 455 645 l 25
 607 645 l 25
 607 569 l 25
152 455 m 25
 152 531 l 25
 303 531 l 25
 303 455 l 25
 152 455 l 25
76 341 m 29
 76 417 l 29
 531 417 l 29
 531 341 l 29
 76 341 l 29
152 228 m 29
 152 303 l 29
 303 303 l 29
 303 228 l 29
 152 228 l 29
152 114 m 29
 152 190 l 29
 303 190 l 29
 303 114 l 29
 152 114 l 29
EndSplineSet
EndChar

StartChar: t
Encoding: 116 116 49
Width: 682
VWidth: 0
Flags: W
HStem: 0 76<228 531> 114 76<152 303 455 607> 228 75<152 303> 341 76<152 303> 455 76<76 531> 569 76<152 303> 683 76<152 303>
VStem: 152 151<114 190 228 303 341 417 569 645 683 759> 455 152<114 190>
LayerCount: 2
Fore
SplineSet
152 683 m 25
 152 759 l 25
 303 759 l 25
 303 683 l 25
 152 683 l 25
152 569 m 25
 152 645 l 25
 303 645 l 25
 303 569 l 25
 152 569 l 25
76 455 m 25
 76 531 l 25
 531 531 l 25
 531 455 l 25
 76 455 l 25
152 341 m 25
 152 417 l 25
 303 417 l 25
 303 341 l 25
 152 341 l 25
152 228 m 25
 152 303 l 25
 303 303 l 25
 303 228 l 25
 152 228 l 25
228 0 m 25
 228 76 l 25
 531 76 l 25
 531 0 l 25
 228 0 l 25
152 114 m 25
 152 190 l 25
 303 190 l 25
 303 114 l 25
 152 114 l 25
607 114 m 25
 455 114 l 25
 455 190 l 25
 607 190 l 25
 607 114 l 25
EndSplineSet
EndChar

StartChar: l
Encoding: 108 108 50
Width: 379
VWidth: 0
Flags: W
HStem: 0 76<152 303> 114 76<76 228> 228 75<76 228> 341 76<76 228> 455 76<76 228> 569 76<76 228> 683 76<76 228>
VStem: 76 152<114 190 228 303 341 417 455 531 569 645 683 759> 152 151<0 76>
LayerCount: 2
Fore
SplineSet
76 683 m 25xff
 76 759 l 25
 228 759 l 25
 228 683 l 25
 76 683 l 25xff
76 569 m 25
 76 645 l 25
 228 645 l 25
 228 569 l 25
 76 569 l 25
76 455 m 25
 76 531 l 25
 228 531 l 25
 228 455 l 25
 76 455 l 25
76 341 m 25
 76 417 l 25
 228 417 l 25
 228 341 l 25
 76 341 l 25
76 228 m 25
 76 303 l 25
 228 303 l 25
 228 228 l 25
 76 228 l 25
76 114 m 25
 76 190 l 25
 228 190 l 25
 228 114 l 25
 76 114 l 25
152 0 m 25xfe80
 152 76 l 25
 303 76 l 25
 303 0 l 25
 152 0 l 25xfe80
EndSplineSet
EndChar

StartChar: j
Encoding: 106 106 51
Width: 455
VWidth: 0
Flags: W
HStem: -228 76<76 303> -114 76<228 379> 0 76<228 379> 114 76<228 379> 228 75<228 379> 341 76<228 379> 455 76<76 379> 683 76<152 303>
VStem: 152 151<683 759> 228 151<-114 -38 0 76 114 190 228 303 341 417>
LayerCount: 2
Fore
SplineSet
76 -228 m 25xff80
 76 -152 l 25
 303 -152 l 25
 303 -228 l 25
 76 -228 l 25xff80
228 -114 m 25xff40
 228 -38 l 25
 379 -38 l 25
 379 -114 l 25
 228 -114 l 25xff40
152 683 m 29xff80
 152 759 l 29
 303 759 l 29
 303 683 l 29
 152 683 l 29xff80
76 455 m 25
 76 531 l 25
 379 531 l 25
 379 455 l 25xff40
 76 455 l 25
228 341 m 25
 228 417 l 25
 379 417 l 25
 379 341 l 25
 228 341 l 25
228 228 m 25
 228 303 l 25
 379 303 l 25
 379 228 l 25
 228 228 l 25
228 114 m 25
 228 190 l 25
 379 190 l 25
 379 114 l 25
 228 114 l 25
228 0 m 25
 228 76 l 25
 379 76 l 25
 379 0 l 25
 228 0 l 25
EndSplineSet
EndChar

StartChar: zero
Encoding: 48 48 52
Width: 758
VWidth: 0
Flags: W
HStem: 0 76<190 569> 114 76<76 228 531 683> 228 75<76 341 531 683> 341 76<76 228 303 455 531 683> 455 76<76 228 417 683> 569 76<76 228 531 683> 683 76<190 569>
VStem: 76 152<114 190 341 417 455 531 569 645> 303 152<341 417> 531 152<114 190 228 303 341 417 569 645>
LayerCount: 2
Fore
SplineSet
303 417 m 25
 455 417 l 25
 455 341 l 25
 303 341 l 25
 303 417 l 25
190 0 m 25
 190 76 l 25
 569 76 l 25
 569 0 l 25
 190 0 l 25
190 683 m 25
 190 759 l 25
 569 759 l 25
 569 683 l 25
 190 683 l 25
531 569 m 25
 531 645 l 25
 683 645 l 25
 683 569 l 25
 531 569 l 25
417 455 m 25
 417 531 l 25
 683 531 l 25
 683 455 l 25
 417 455 l 25
531 341 m 25
 531 417 l 25
 683 417 l 25
 683 341 l 25
 531 341 l 25
531 228 m 25
 531 303 l 25
 683 303 l 25
 683 228 l 25
 531 228 l 25
531 114 m 25
 531 190 l 25
 683 190 l 25
 683 114 l 25
 531 114 l 25
76 569 m 25
 76 645 l 25
 228 645 l 25
 228 569 l 25
 76 569 l 25
76 455 m 25
 76 531 l 25
 228 531 l 25
 228 455 l 25
 76 455 l 25
76 341 m 25
 76 417 l 25
 228 417 l 25
 228 341 l 25
 76 341 l 25
76 228 m 25
 76 303 l 25
 341 303 l 25
 341 228 l 25
 76 228 l 25
76 114 m 29
 76 190 l 29
 228 190 l 29
 228 114 l 29
 76 114 l 29
EndSplineSet
EndChar

StartChar: eight
Encoding: 56 56 53
Width: 758
VWidth: 0
Flags: W
HStem: 0 76<190 569> 114 76<76 228 531 683> 228 75<76 228 531 683> 341 76<190 569> 455 76<76 228 531 683> 569 76<76 228 531 683> 683 76<190 569>
VStem: 76 152<114 190 228 303 455 531 569 645> 531 152<114 190 228 303 455 531 569 645>
LayerCount: 2
Fore
SplineSet
190 0 m 25
 190 76 l 25
 569 76 l 29
 569 0 l 29
 190 0 l 25
190 683 m 25
 190 759 l 25
 569 759 l 29
 569 683 l 29
 190 683 l 25
531 569 m 25
 531 645 l 25
 683 645 l 25
 683 569 l 25
 531 569 l 25
531 455 m 25
 531 531 l 25
 683 531 l 25
 683 455 l 25
 531 455 l 25
190 341 m 25
 190 417 l 25
 569 417 l 25
 569 341 l 25
 190 341 l 25
531 228 m 25
 531 303 l 25
 683 303 l 25
 683 228 l 25
 531 228 l 25
531 114 m 25
 531 190 l 25
 683 190 l 25
 683 114 l 25
 531 114 l 25
76 569 m 25
 76 645 l 25
 228 645 l 25
 228 569 l 25
 76 569 l 25
76 455 m 25
 76 531 l 25
 228 531 l 25
 228 455 l 25
 76 455 l 25
76 228 m 25
 76 303 l 25
 228 303 l 25
 228 228 l 25
 76 228 l 25
76 114 m 25
 76 190 l 25
 228 190 l 25
 228 114 l 25
 76 114 l 25
EndSplineSet
EndChar

StartChar: three
Encoding: 51 51 54
Width: 758
VWidth: 0
Flags: W
HStem: 0 76<190 569> 114 76<76 228 531 683> 228 75<531 683> 341 76<303 569> 455 76<531 683> 569 76<76 228 531 683> 683 76<190 569>
VStem: 76 152<114 190 569 645> 531 152<114 190 228 303 455 531 569 645>
LayerCount: 2
Fore
SplineSet
190 0 m 25
 190 76 l 25
 569 76 l 29
 569 0 l 29
 190 0 l 25
190 683 m 25
 190 759 l 25
 569 759 l 29
 569 683 l 29
 190 683 l 25
531 569 m 25
 531 645 l 25
 683 645 l 25
 683 569 l 25
 531 569 l 25
531 455 m 25
 531 531 l 25
 683 531 l 25
 683 455 l 25
 531 455 l 25
303 341 m 25
 303 417 l 25
 569 417 l 25
 569 341 l 25
 303 341 l 25
531 228 m 25
 531 303 l 25
 683 303 l 25
 683 228 l 25
 531 228 l 25
531 114 m 25
 531 190 l 25
 683 190 l 25
 683 114 l 25
 531 114 l 25
76 569 m 25
 76 645 l 25
 228 645 l 25
 228 569 l 25
 76 569 l 25
76 114 m 25
 76 190 l 25
 228 190 l 25
 228 114 l 25
 76 114 l 25
EndSplineSet
EndChar

StartChar: six
Encoding: 54 54 55
Width: 758
VWidth: 0
Flags: W
HStem: 0 76<190 569> 114 76<76 228 531 683> 228 75<76 228 531 683> 341 76<76 569> 455 76<76 228> 569 76<76 228 531 683> 683 76<190 569>
VStem: 76 152<114 190 228 303 455 531 569 645> 531 152<114 190 228 303 569 645>
LayerCount: 2
Fore
SplineSet
190 0 m 25
 190 76 l 25
 569 76 l 25
 569 0 l 25
 190 0 l 25
190 683 m 25
 190 759 l 25
 569 759 l 25
 569 683 l 25
 190 683 l 25
531 569 m 25
 531 645 l 25
 683 645 l 25
 683 569 l 25
 531 569 l 25
76 341 m 25
 76 417 l 25
 569 417 l 25
 569 341 l 25
 76 341 l 25
531 228 m 25
 531 303 l 25
 683 303 l 25
 683 228 l 25
 531 228 l 25
531 114 m 25
 531 190 l 25
 683 190 l 25
 683 114 l 25
 531 114 l 25
76 569 m 25
 76 645 l 25
 228 645 l 25
 228 569 l 25
 76 569 l 25
76 455 m 25
 76 531 l 25
 228 531 l 25
 228 455 l 25
 76 455 l 25
76 228 m 25
 76 303 l 25
 228 303 l 25
 228 228 l 25
 76 228 l 25
76 114 m 25
 76 190 l 25
 228 190 l 25
 228 114 l 25
 76 114 l 25
EndSplineSet
EndChar

StartChar: nine
Encoding: 57 57 56
Width: 758
VWidth: 0
Flags: W
HStem: 0 76<190 493> 114 76<455 607> 228 75<531 683> 341 76<190 683> 455 76<76 228 531 683> 569 76<76 228 531 683> 683 76<190 569>
VStem: 76 152<455 531 569 645> 455 152<114 190> 531 152<228 303 455 531 569 645>
LayerCount: 2
Fore
SplineSet
190 0 m 25xff
 190 76 l 25
 493 76 l 25
 493 0 l 25
 190 0 l 25xff
190 683 m 25
 190 759 l 25
 569 759 l 25
 569 683 l 25
 190 683 l 25
531 569 m 25xff40
 531 645 l 25
 683 645 l 25
 683 569 l 25
 531 569 l 25xff40
531 455 m 25
 531 531 l 25
 683 531 l 25
 683 455 l 25
 531 455 l 25
190 341 m 25
 190 417 l 25
 683 417 l 25
 683 341 l 25
 190 341 l 25
531 228 m 25
 531 303 l 25
 683 303 l 25
 683 228 l 25
 531 228 l 25
455 114 m 25xff80
 455 190 l 25
 607 190 l 25
 607 114 l 25
 455 114 l 25xff80
76 569 m 25
 76 645 l 25
 228 645 l 25
 228 569 l 25
 76 569 l 25
76 455 m 25
 76 531 l 25
 228 531 l 25
 228 455 l 25
 76 455 l 25
EndSplineSet
EndChar

StartChar: seven
Encoding: 55 55 57
Width: 758
VWidth: 0
Flags: W
HStem: 0 76<303 455> 114 76<303 455> 228 75<341 493> 341 76<379 531> 455 76<455 607> 569 76<76 228 531 683> 683 76<76 683>
VStem: 76 152<569 645> 303 152<0 76 114 190> 341 152<228 303> 379 152<341 417> 455 152<455 531> 531 152<569 645>
LayerCount: 2
Fore
SplineSet
455 76 m 29xff80
 455 0 l 29
 303 0 l 29
 303 76 l 29
 455 76 l 29xff80
455 190 m 25
 455 114 l 25
 303 114 l 25
 303 190 l 25
 455 190 l 25
493 303 m 25xff40
 493 228 l 25
 341 228 l 25
 341 303 l 25
 493 303 l 25xff40
531 417 m 25xff20
 531 341 l 25
 379 341 l 25
 379 417 l 25
 531 417 l 25xff20
607 531 m 25xff10
 607 455 l 25
 455 455 l 25
 455 531 l 25
 607 531 l 25xff10
683 645 m 25xff08
 683 569 l 25
 531 569 l 25
 531 645 l 25
 683 645 l 25xff08
76 645 m 25
 228 645 l 25
 228 569 l 25
 76 569 l 25
 76 645 l 25
76 759 m 25
 683 759 l 25
 683 683 l 25
 76 683 l 25
 76 759 l 25
EndSplineSet
EndChar

StartChar: two
Encoding: 50 50 58
Width: 758
VWidth: 0
Flags: W
HStem: 0 76<76 683> 114 76<76 228> 228 75<152 303> 341 76<265 569> 455 76<531 683> 569 76<76 228 531 683> 683 76<190 569>
VStem: 76 152<114 190 569 645> 152 151<228 303> 531 152<455 531 569 645>
LayerCount: 2
Fore
SplineSet
76 0 m 25xff40
 76 76 l 25
 683 76 l 25
 683 0 l 25
 76 0 l 25xff40
190 683 m 25
 190 759 l 25
 569 759 l 25
 569 683 l 25
 190 683 l 25
531 569 m 25
 531 645 l 25
 683 645 l 25
 683 569 l 25
 531 569 l 25
531 455 m 25
 531 531 l 25
 683 531 l 25
 683 455 l 25
 531 455 l 25
265 341 m 25
 265 417 l 25
 569 417 l 25
 569 341 l 25
 265 341 l 25
152 228 m 25xfec0
 152 303 l 25
 303 303 l 25
 303 228 l 25
 152 228 l 25xfec0
76 569 m 25xff40
 76 645 l 25
 228 645 l 25
 228 569 l 25
 76 569 l 25xff40
76 114 m 25
 76 190 l 25
 228 190 l 25
 228 114 l 25
 76 114 l 25
EndSplineSet
EndChar

StartChar: one
Encoding: 49 49 59
Width: 758
VWidth: 0
Flags: W
HStem: 0 76<190 569> 114 76<303 455> 228 75<303 455> 341 76<303 455> 455 76<303 455> 569 76<190 455> 683 76<303 455>
VStem: 303 152<114 190 228 303 341 417 455 531 683 759>
LayerCount: 2
Fore
SplineSet
190 76 m 29
 569 76 l 25
 569 0 l 25
 190 0 l 25
 190 76 l 29
303 190 m 25
 455 190 l 25
 455 114 l 25
 303 114 l 25
 303 190 l 25
303 303 m 25
 455 303 l 25
 455 228 l 25
 303 228 l 25
 303 303 l 25
303 417 m 25
 455 417 l 25
 455 341 l 25
 303 341 l 25
 303 417 l 25
303 531 m 25
 455 531 l 25
 455 455 l 25
 303 455 l 25
 303 531 l 25
455 645 m 25
 455 569 l 25
 190 569 l 25
 190 645 l 25
 455 645 l 25
303 759 m 25
 455 759 l 25
 455 683 l 25
 303 683 l 25
 303 759 l 25
EndSplineSet
EndChar

StartChar: five
Encoding: 53 53 60
Width: 758
VWidth: 0
Flags: W
HStem: 0 76<190 569> 114 76<76 228 531 683> 228 75<531 683> 341 76<76 228 531 683> 455 76<76 569> 569 76<76 228> 683 76<76 607>
VStem: 76 152<114 190 341 417 569 645> 531 152<114 190 228 303 341 417>
LayerCount: 2
Fore
SplineSet
190 0 m 25
 190 76 l 25
 569 76 l 25
 569 0 l 25
 190 0 l 25
76 683 m 25
 76 759 l 25
 607 759 l 29
 607 683 l 29
 76 683 l 25
76 455 m 25
 76 531 l 25
 569 531 l 25
 569 455 l 25
 76 455 l 25
531 228 m 25
 531 303 l 25
 683 303 l 25
 683 228 l 25
 531 228 l 25
531 114 m 25
 531 190 l 25
 683 190 l 25
 683 114 l 25
 531 114 l 25
76 569 m 25
 76 645 l 25
 228 645 l 25
 228 569 l 25
 76 569 l 25
531 341 m 25
 531 417 l 25
 683 417 l 25
 683 341 l 25
 531 341 l 25
76 341 m 25
 76 417 l 25
 228 417 l 25
 228 341 l 25
 76 341 l 25
76 114 m 25
 76 190 l 25
 228 190 l 25
 228 114 l 25
 76 114 l 25
EndSplineSet
EndChar

StartChar: four
Encoding: 52 52 61
Width: 758
VWidth: 0
Flags: W
HStem: 0 76<417 569> 114 76<417 569> 228 75<76 683> 341 76<76 228 417 569> 455 76<152 303 417 569> 569 76<228 569> 683 76<303 569>
VStem: 76 152<341 417> 152 151<455 531> 417 152<0 76 114 190 341 417 455 531>
LayerCount: 2
Fore
SplineSet
569 683 m 25xfec0
 303 683 l 25
 303 759 l 25
 569 759 l 25
 569 683 l 25xfec0
569 645 m 25
 569 569 l 25
 228 569 l 25
 228 645 l 25xff40
 569 645 l 25
303 531 m 25xfec0
 303 455 l 25
 152 455 l 25
 152 531 l 25
 303 531 l 25xfec0
228 417 m 25xff40
 228 341 l 25
 76 341 l 25
 76 417 l 25
 228 417 l 25xff40
569 531 m 25
 569 455 l 25
 417 455 l 25
 417 531 l 25
 569 531 l 25
569 417 m 25
 569 341 l 25
 417 341 l 25
 417 417 l 25
 569 417 l 25
569 76 m 25
 569 0 l 25
 417 0 l 25
 417 76 l 25
 569 76 l 25
569 190 m 25
 569 114 l 25
 417 114 l 25
 417 190 l 25
 569 190 l 25
683 228 m 25
 76 228 l 25
 76 303 l 25
 683 303 l 25
 683 228 l 25
EndSplineSet
EndChar

StartChar: dollar
Encoding: 36 36 63
Width: 758
VWidth: 0
Flags: W
HStem: -228 76<303 455> -114 76<303 455> 0 76<152 607> 114 76<76 228 303 455 531 683> 228 75<303 455 531 683> 341 76<152 607> 455 76<76 228 303 455> 569 76<76 228 303 455 531 683> 683 76<152 607> 796 76<303 455> 910 76<303 455>
VStem: 76 152<114 190 455 531 569 645> 303 152<-228 -152 -114 -38 114 190 228 303 455 531 569 645 796 872 910 986> 531 152<114 190 228 303 569 645>
LayerCount: 2
Fore
SplineSet
455 -114 m 29
 303 -114 l 29
 303 -38 l 29
 455 -38 l 29
 455 -114 l 29
455 -228 m 29
 303 -228 l 29
 303 -152 l 29
 455 -152 l 29
 455 -228 l 29
455 910 m 25
 303 910 l 25
 303 986 l 25
 455 986 l 25
 455 910 l 25
455 796 m 25
 303 796 l 25
 303 872 l 25
 455 872 l 25
 455 796 l 25
455 228 m 25
 303 228 l 25
 303 303 l 25
 455 303 l 25
 455 228 l 25
455 114 m 25
 303 114 l 25
 303 190 l 25
 455 190 l 25
 455 114 l 25
455 569 m 25
 303 569 l 25
 303 645 l 25
 455 645 l 25
 455 569 l 25
455 455 m 25
 303 455 l 25
 303 531 l 25
 455 531 l 25
 455 455 l 25
531 645 m 25
 683 645 l 25
 683 569 l 25
 531 569 l 25
 531 645 l 25
152 683 m 25
 152 759 l 25
 607 759 l 25
 607 683 l 25
 152 683 l 25
228 569 m 25
 76 569 l 25
 76 645 l 25
 228 645 l 25
 228 569 l 25
228 455 m 25
 76 455 l 25
 76 531 l 25
 228 531 l 25
 228 455 l 25
607 341 m 25
 152 341 l 25
 152 417 l 25
 607 417 l 25
 607 341 l 25
683 228 m 25
 531 228 l 25
 531 303 l 25
 683 303 l 25
 683 228 l 25
683 114 m 25
 531 114 l 25
 531 190 l 25
 683 190 l 25
 683 114 l 25
152 0 m 25
 152 76 l 25
 607 76 l 25
 607 0 l 25
 152 0 l 25
76 114 m 25
 76 190 l 25
 228 190 l 25
 228 114 l 25
 76 114 l 25
EndSplineSet
EndChar

StartChar: slash
Encoding: 47 47 64
Width: 758
VWidth: 0
Flags: W
HStem: 0 76<76 228> 114 76<152 303> 228 75<228 379> 341 76<303 455> 455 76<379 531> 569 76<455 607> 683 76<531 683>
VStem: 76 152<0 76> 152 151<114 190> 228 151<228 303> 303 152<341 417> 379 152<455 531> 455 152<569 645> 531 152<683 759>
LayerCount: 2
Fore
SplineSet
531 683 m 25xfe04
 531 759 l 25
 683 759 l 25
 683 683 l 25
 531 683 l 25xfe04
455 569 m 25xfe08
 455 645 l 25
 607 645 l 25
 607 569 l 25
 455 569 l 25xfe08
379 455 m 25xfe10
 379 531 l 25
 531 531 l 25
 531 455 l 25
 379 455 l 25xfe10
303 341 m 25xfe20
 303 417 l 25
 455 417 l 25
 455 341 l 25
 303 341 l 25xfe20
228 228 m 25xfe40
 228 303 l 25
 379 303 l 25
 379 228 l 25
 228 228 l 25xfe40
152 114 m 25xfe80
 152 190 l 25
 303 190 l 25
 303 114 l 25
 152 114 l 25xfe80
76 0 m 25xff
 76 76 l 25
 228 76 l 25
 228 0 l 25
 76 0 l 25xff
EndSplineSet
EndChar

StartChar: backslash
Encoding: 92 92 65
Width: 758
VWidth: 0
Flags: W
HStem: 0 76<531 683> 114 76<455 607> 228 75<379 531> 341 76<303 455> 455 76<228 379> 569 76<152 303> 683 76<76 228>
VStem: 76 152<683 759> 152 151<569 645> 228 151<455 531> 303 152<341 417> 379 152<228 303> 455 152<114 190> 531 152<0 76>
LayerCount: 2
Fore
SplineSet
76 683 m 29xff
 76 759 l 29
 228 759 l 29
 228 683 l 29
 76 683 l 29xff
152 569 m 25xfe80
 152 645 l 25
 303 645 l 25
 303 569 l 25
 152 569 l 25xfe80
228 455 m 25xfe40
 228 531 l 25
 379 531 l 25
 379 455 l 25
 228 455 l 25xfe40
303 341 m 25xfe20
 303 417 l 25
 455 417 l 25
 455 341 l 25
 303 341 l 25xfe20
379 228 m 25xfe10
 379 303 l 25
 531 303 l 25
 531 228 l 25
 379 228 l 25xfe10
455 114 m 25xfe08
 455 190 l 25
 607 190 l 25
 607 114 l 25
 455 114 l 25xfe08
531 0 m 25xfe04
 531 76 l 25
 683 76 l 25
 683 0 l 25
 531 0 l 25xfe04
EndSplineSet
EndChar

StartChar: less
Encoding: 60 60 66
Width: 682
VWidth: 0
Flags: W
HStem: 0 76<417 607> 114 76<303 493> 228 75<190 379> 341 76<76 265> 455 76<190 379> 569 76<303 493> 683 76<417 607>
VStem: 190 189<228 303 455 531> 303 190<114 190 569 645> 417 190<0 76 683 759>
LayerCount: 2
Fore
SplineSet
417 0 m 25xfe40
 417 76 l 25
 607 76 l 25
 607 0 l 25
 417 0 l 25xfe40
303 114 m 25xfe80
 303 190 l 25
 493 190 l 25
 493 114 l 25
 303 114 l 25xfe80
190 228 m 25xff
 190 303 l 25
 379 303 l 25
 379 228 l 25
 190 228 l 25xff
417 683 m 25xfe40
 417 759 l 25
 607 759 l 25
 607 683 l 25
 417 683 l 25xfe40
303 569 m 25xfe80
 303 645 l 25
 493 645 l 25
 493 569 l 25
 303 569 l 25xfe80
190 455 m 25xff
 190 531 l 25
 379 531 l 25
 379 455 l 25
 190 455 l 25xff
76 341 m 25
 76 417 l 25
 265 417 l 25
 265 341 l 25
 76 341 l 25
EndSplineSet
EndChar

StartChar: greater
Encoding: 62 62 67
Width: 682
VWidth: 0
Flags: W
HStem: 0 76<76 265> 114 76<190 379> 228 75<303 493> 341 76<417 607> 455 76<303 493> 569 76<190 379> 683 76<76 265>
VStem: 76 189<0 76 683 759> 190 189<114 190 569 645> 303 190<228 303 455 531>
LayerCount: 2
Fore
SplineSet
76 683 m 29xff
 76 759 l 29
 265 759 l 29
 265 683 l 29
 76 683 l 29xff
190 569 m 25xfe80
 190 645 l 25
 379 645 l 25
 379 569 l 25
 190 569 l 25xfe80
303 455 m 25xfe40
 303 531 l 25
 493 531 l 25
 493 455 l 25
 303 455 l 25xfe40
417 341 m 25
 417 417 l 25
 607 417 l 25
 607 341 l 25
 417 341 l 25
303 228 m 25
 303 303 l 25
 493 303 l 25
 493 228 l 25
 303 228 l 25
190 114 m 25xfe80
 190 190 l 25
 379 190 l 25
 379 114 l 25
 190 114 l 25xfe80
76 0 m 25xff
 76 76 l 25
 265 76 l 25
 265 0 l 25
 76 0 l 25xff
EndSplineSet
EndChar

StartChar: question
Encoding: 63 63 68
Width: 758
VWidth: 0
Flags: W
HStem: 0 76<303 455> 228 75<303 455> 341 76<379 607> 455 76<531 683> 569 76<76 228 531 683> 683 76<152 607>
VStem: 76 152<569 645> 303 152<0 76 228 303> 531 152<455 531 569 645>
LayerCount: 2
Fore
SplineSet
303 0 m 25
 303 76 l 25
 455 76 l 25
 455 0 l 25
 303 0 l 25
455 303 m 25
 455 228 l 25
 303 228 l 25
 303 303 l 25
 455 303 l 25
607 417 m 25
 607 341 l 25
 379 341 l 25
 379 417 l 25
 607 417 l 25
531 531 m 25
 683 531 l 25
 683 455 l 25
 531 455 l 25
 531 531 l 25
531 645 m 25
 683 645 l 25
 683 569 l 25
 531 569 l 25
 531 645 l 25
76 645 m 25
 228 645 l 25
 228 569 l 25
 76 569 l 25
 76 645 l 25
152 759 m 25
 607 759 l 25
 607 683 l 25
 152 683 l 25
 152 759 l 25
EndSplineSet
EndChar

StartChar: percent
Encoding: 37 37 69
Width: 758
VWidth: 0
Flags: W
HStem: 0 76<76 228 455 683> 114 76<152 303 455 683> 228 75<228 379> 341 76<303 455> 455 76<379 531> 569 76<76 303 455 607> 683 76<76 303 531 683>
VStem: 76 152<0 76> 152 151<114 190> 228 151<228 303> 303 152<341 417> 379 152<455 531> 455 152<569 645> 531 152<683 759>
LayerCount: 2
Fore
SplineSet
455 76 m 29xfe08
 683 76 l 29
 683 0 l 29xfe04
 455 0 l 29
 455 76 l 29xfe08
455 190 m 29xfe08
 683 190 l 29
 683 114 l 29xfe04
 455 114 l 29
 455 190 l 29xfe08
76 645 m 25xff20
 303 645 l 25
 303 569 l 25
 76 569 l 25
 76 645 l 25xff20
76 759 m 25
 303 759 l 25
 303 683 l 25
 76 683 l 25
 76 759 l 25
531 683 m 25xfe04
 531 759 l 25
 683 759 l 25
 683 683 l 25
 531 683 l 25xfe04
455 569 m 25xfe08
 455 645 l 25
 607 645 l 25
 607 569 l 25
 455 569 l 25xfe08
379 455 m 25xfe10
 379 531 l 25
 531 531 l 25
 531 455 l 25
 379 455 l 25xfe10
303 341 m 25xfe20
 303 417 l 25
 455 417 l 25
 455 341 l 25
 303 341 l 25xfe20
228 228 m 25xfe40
 228 303 l 25
 379 303 l 25
 379 228 l 25
 228 228 l 25xfe40
152 114 m 25xfe80
 152 190 l 25
 303 190 l 25
 303 114 l 25
 152 114 l 25xfe80
76 0 m 25xff
 76 76 l 25
 228 76 l 25
 228 0 l 25
 76 0 l 25xff
EndSplineSet
EndChar

StartChar: at
Encoding: 64 64 70
Width: 986
VWidth: 0
Flags: W
HStem: 0 76<265 721> 114 76<152 303> 228 75<76 228 341 569 645 834> 341 76<76 228 303 455 531 683 759 910> 455 76<76 228 379 683 759 910> 569 76<152 303 683 834> 683 76<265 721>
VStem: 76 152<228 303 341 417 455 531> 152 151<114 190 569 645> 303 152<341 417> 531 152<341 417> 683 151<569 645> 759 151<341 417 455 531>
LayerCount: 2
Fore
SplineSet
265 0 m 25xfe
 265 76 l 25
 721 76 l 25
 721 0 l 25
 265 0 l 25xfe
265 683 m 25
 265 759 l 25
 721 759 l 25
 721 683 l 25
 265 683 l 25
683 569 m 25xfe10
 683 645 l 25
 834 645 l 25
 834 569 l 25
 683 569 l 25xfe10
759 455 m 25xfe08
 759 531 l 25
 910 531 l 25
 910 455 l 25
 759 455 l 25xfe08
759 341 m 25
 759 417 l 25
 910 417 l 25
 910 341 l 25
 759 341 l 25
645 303 m 25
 834 303 l 25
 834 228 l 25xfe10
 645 228 l 25
 645 303 l 25
531 417 m 25xfe20
 683 417 l 25
 683 341 l 25
 531 341 l 25
 531 417 l 25xfe20
341 303 m 25
 569 303 l 25
 569 228 l 25
 341 228 l 25
 341 303 l 25
379 455 m 29
 379 531 l 29
 683 531 l 25
 683 455 l 25xfe10
 379 455 l 29
303 341 m 25xfe40
 303 417 l 25
 455 417 l 25
 455 341 l 25
 303 341 l 25xfe40
152 569 m 25xfe80
 152 645 l 25
 303 645 l 25
 303 569 l 25
 152 569 l 25xfe80
76 455 m 25xff
 76 531 l 25
 228 531 l 25
 228 455 l 25
 76 455 l 25xff
76 341 m 25
 76 417 l 25
 228 417 l 25
 228 341 l 25
 76 341 l 25
76 228 m 25
 76 303 l 25
 228 303 l 25
 228 228 l 25
 76 228 l 25
152 114 m 25xfe80
 152 190 l 25
 303 190 l 25
 303 114 l 25
 152 114 l 25xfe80
EndSplineSet
EndChar

StartChar: bracketleft
Encoding: 91 91 71
Width: 455
VWidth: 0
Flags: W
HStem: -114 76<76 455> 0 76<76 228> 114 76<76 228> 228 75<76 228> 341 76<76 228> 455 76<76 228> 569 76<76 228> 683 76<76 228> 796 76<76 455>
VStem: 76 152<0 76 114 190 228 303 341 417 455 531 569 645 683 759>
LayerCount: 2
Fore
SplineSet
76 872 m 25
 455 872 l 25
 455 796 l 25
 76 796 l 25
 76 872 l 25
76 683 m 25
 76 759 l 25
 228 759 l 25
 228 683 l 25
 76 683 l 25
76 569 m 25
 76 645 l 25
 228 645 l 25
 228 569 l 25
 76 569 l 25
76 455 m 25
 76 531 l 25
 228 531 l 25
 228 455 l 25
 76 455 l 25
76 341 m 25
 76 417 l 25
 228 417 l 25
 228 341 l 25
 76 341 l 25
76 228 m 25
 76 303 l 25
 228 303 l 25
 228 228 l 25
 76 228 l 25
76 114 m 25
 76 190 l 25
 228 190 l 25
 228 114 l 25
 76 114 l 25
76 -38 m 25
 455 -38 l 25
 455 -114 l 25
 76 -114 l 25
 76 -38 l 25
76 0 m 25
 76 76 l 25
 228 76 l 25
 228 0 l 25
 76 0 l 25
EndSplineSet
EndChar

StartChar: bracketright
Encoding: 93 93 72
Width: 455
VWidth: 0
Flags: W
HStem: -114 76<0 379> 0 76<228 379> 114 76<228 379> 228 75<228 379> 341 76<228 379> 455 76<228 379> 569 76<228 379> 683 76<228 379> 796 76<0 379>
VStem: 228 151<0 76 114 190 228 303 341 417 455 531 569 645 683 759>
LayerCount: 2
Fore
SplineSet
0 872 m 25
 379 872 l 25
 379 796 l 25
 0 796 l 25
 0 872 l 25
228 683 m 29
 228 759 l 29
 379 759 l 29
 379 683 l 29
 228 683 l 29
228 569 m 29
 228 645 l 29
 379 645 l 29
 379 569 l 29
 228 569 l 29
228 455 m 29
 228 531 l 29
 379 531 l 29
 379 455 l 29
 228 455 l 29
228 341 m 29
 228 417 l 29
 379 417 l 29
 379 341 l 29
 228 341 l 29
228 228 m 29
 228 303 l 29
 379 303 l 29
 379 228 l 29
 228 228 l 29
228 114 m 29
 228 190 l 29
 379 190 l 29
 379 114 l 29
 228 114 l 29
0 -38 m 25
 379 -38 l 25
 379 -114 l 25
 0 -114 l 25
 0 -38 l 25
228 0 m 29
 228 76 l 29
 379 76 l 29
 379 0 l 29
 228 0 l 29
EndSplineSet
EndChar

StartChar: asciicircum
Encoding: 94 94 73
Width: 834
VWidth: 0
Flags: W
HStem: 341 76<76 228 607 759> 455 76<152 303 531 683> 569 76<228 379 455 607> 683 76<303 531>
VStem: 76 152<341 417> 152 151<455 531> 228 151<569 645> 455 152<569 645> 531 152<455 531> 607 152<341 417>
LayerCount: 2
Fore
SplineSet
607 417 m 25xf040
 759 417 l 25
 759 341 l 25
 607 341 l 25
 607 417 l 25xf040
531 531 m 25xf080
 683 531 l 25
 683 455 l 25
 531 455 l 25
 531 531 l 25xf080
455 645 m 25xf1
 607 645 l 25
 607 569 l 25
 455 569 l 25
 455 645 l 25xf1
303 683 m 25xf480
 303 759 l 25
 531 759 l 25
 531 683 l 25
 303 683 l 25xf480
228 569 m 25xf2
 228 645 l 25
 379 645 l 25
 379 569 l 25
 228 569 l 25xf2
152 455 m 25xf4
 152 531 l 25
 303 531 l 25
 303 455 l 25
 152 455 l 25xf4
76 341 m 25xf8
 76 417 l 25
 228 417 l 25
 228 341 l 25
 76 341 l 25xf8
EndSplineSet
EndChar

StartChar: parenleft
Encoding: 40 40 74
Width: 455
VWidth: 0
Flags: W
HStem: -114 76<228 455> 0 76<152 303> 114 76<76 228> 228 75<76 228> 341 76<76 228> 455 76<76 228> 569 76<76 228> 683 76<152 303> 796 76<228 455>
VStem: 76 152<114 190 228 303 341 417 455 531 569 645> 152 151<0 76 683 759> 228 227<-114 -38 796 872>
LayerCount: 2
Fore
SplineSet
228 872 m 25xff90
 455 872 l 25
 455 796 l 25
 228 796 l 25
 228 872 l 25xff90
152 683 m 25xffa0
 152 759 l 25
 303 759 l 25
 303 683 l 25
 152 683 l 25xffa0
76 569 m 25xffc0
 76 645 l 25
 228 645 l 25
 228 569 l 25
 76 569 l 25xffc0
76 455 m 25
 76 531 l 25
 228 531 l 25
 228 455 l 25
 76 455 l 25
76 341 m 25
 76 417 l 25
 228 417 l 25
 228 341 l 25
 76 341 l 25
76 228 m 25
 76 303 l 25
 228 303 l 25
 228 228 l 25
 76 228 l 25
76 114 m 25
 76 190 l 25
 228 190 l 25
 228 114 l 25
 76 114 l 25
228 -38 m 25xff90
 455 -38 l 25
 455 -114 l 25
 228 -114 l 25
 228 -38 l 25xff90
152 0 m 25xffa0
 152 76 l 25
 303 76 l 25
 303 0 l 25
 152 0 l 25xffa0
EndSplineSet
EndChar

StartChar: parenright
Encoding: 41 41 75
Width: 455
VWidth: 0
Flags: W
HStem: -114 76<0 228> 0 76<152 303> 114 76<228 379> 228 75<228 379> 341 76<228 379> 455 76<228 379> 569 76<228 379> 683 76<152 303> 796 76<0 228>
VStem: 0 228<-114 -38 796 872> 152 151<0 76 683 759> 228 151<114 190 228 303 341 417 455 531 569 645>
LayerCount: 2
Fore
SplineSet
0 872 m 25xffc0
 228 872 l 25
 228 796 l 25
 0 796 l 25
 0 872 l 25xffc0
152 683 m 29xffa0
 152 759 l 29
 303 759 l 29
 303 683 l 29
 152 683 l 29xffa0
228 569 m 29xff90
 228 645 l 29
 379 645 l 29
 379 569 l 29
 228 569 l 29xff90
228 455 m 29
 228 531 l 29
 379 531 l 29
 379 455 l 29
 228 455 l 29
228 341 m 29
 228 417 l 29
 379 417 l 29
 379 341 l 29
 228 341 l 29
228 228 m 29
 228 303 l 29
 379 303 l 29
 379 228 l 29
 228 228 l 29
228 114 m 29
 228 190 l 29
 379 190 l 29
 379 114 l 29
 228 114 l 29
0 -38 m 25xffc0
 228 -38 l 25
 228 -114 l 25
 0 -114 l 25
 0 -38 l 25xffc0
152 0 m 29xffa0
 152 76 l 29
 303 76 l 29
 303 0 l 29
 152 0 l 29xffa0
EndSplineSet
EndChar

StartChar: underscore
Encoding: 95 95 76
Width: 682
VWidth: 0
Flags: W
HStem: -114 76<76 607>
LayerCount: 2
Fore
SplineSet
76 -38 m 29
 607 -38 l 25
 607 -114 l 25
 76 -114 l 25
 76 -38 l 29
EndSplineSet
EndChar

StartChar: period
Encoding: 46 46 77
Width: 379
VWidth: 0
Flags: W
HStem: 0 76<76 303> 114 76<76 303>
VStem: 76 227<0 76 114 190>
LayerCount: 2
Fore
SplineSet
303 114 m 25
 76 114 l 25
 76 190 l 25
 303 190 l 25
 303 114 l 25
76 0 m 25
 76 76 l 25
 303 76 l 25
 303 0 l 25
 76 0 l 25
EndSplineSet
EndChar

StartChar: comma
Encoding: 44 44 78
Width: 379
VWidth: 0
Flags: W
HStem: -228 76<76 228> -114 76<190 303> 0 76<76 303> 114 76<76 303>
VStem: 76 152<-228 -152> 190 113<-114 -38>
LayerCount: 2
Fore
SplineSet
228 -152 m 29xf8
 228 -228 l 25
 76 -228 l 25
 76 -152 l 25
 228 -152 l 29xf8
303 -38 m 25xf4
 303 -114 l 25
 190 -114 l 25
 190 -38 l 25
 303 -38 l 25xf4
303 114 m 25
 76 114 l 25
 76 190 l 25xf8
 303 190 l 25
 303 114 l 25
76 0 m 25
 76 76 l 25xf8
 303 76 l 25
 303 0 l 25xf4
 76 0 l 25
EndSplineSet
EndChar

StartChar: plus
Encoding: 43 43 79
Width: 682
VWidth: 0
Flags: W
HStem: 114 76<265 417> 228 75<265 417> 341 76<76 607> 455 76<265 417> 569 76<265 417>
VStem: 265 152<114 190 228 303 455 531 569 645>
LayerCount: 2
Fore
SplineSet
265 114 m 25
 265 190 l 25
 417 190 l 25
 417 114 l 25
 265 114 l 25
265 228 m 25
 265 303 l 25
 417 303 l 25
 417 228 l 25
 265 228 l 25
265 569 m 25
 265 645 l 25
 417 645 l 25
 417 569 l 25
 265 569 l 25
265 455 m 25
 265 531 l 25
 417 531 l 25
 417 455 l 25
 265 455 l 25
76 341 m 25
 76 417 l 25
 607 417 l 25
 607 341 l 25
 76 341 l 25
EndSplineSet
EndChar

StartChar: hyphen
Encoding: 45 45 80
Width: 682
VWidth: 0
Flags: W
HStem: 341 76<76 607>
LayerCount: 2
Fore
SplineSet
76 341 m 25
 76 417 l 25
 607 417 l 25
 607 341 l 25
 76 341 l 25
EndSplineSet
EndChar

StartChar: equal
Encoding: 61 61 81
Width: 682
VWidth: 0
Flags: W
HStem: 228 75<76 607> 455 76<76 607>
LayerCount: 2
Fore
SplineSet
76 455 m 25
 76 531 l 25
 607 531 l 25
 607 455 l 25
 76 455 l 25
76 228 m 25
 76 303 l 25
 607 303 l 25
 607 228 l 25
 76 228 l 25
EndSplineSet
EndChar

StartChar: asterisk
Encoding: 42 42 82
Width: 758
VWidth: 0
Flags: W
HStem: 114 76<303 455> 228 75<76 228 303 455 531 683> 341 76<190 569> 455 76<76 228 303 455 531 683> 569 76<303 455>
VStem: 76 152<228 303 455 531> 303 152<114 190 228 303 455 531 569 645> 531 152<228 303 455 531>
LayerCount: 2
Fore
SplineSet
303 645 m 25
 455 645 l 25
 455 569 l 25
 303 569 l 25
 303 645 l 25
531 531 m 25
 683 531 l 25
 683 455 l 25
 531 455 l 25
 531 531 l 25
303 531 m 25
 455 531 l 25
 455 455 l 25
 303 455 l 25
 303 531 l 25
76 531 m 25
 228 531 l 25
 228 455 l 25
 76 455 l 25
 76 531 l 25
303 190 m 25
 455 190 l 25
 455 114 l 25
 303 114 l 25
 303 190 l 25
190 341 m 25
 190 417 l 25
 569 417 l 25
 569 341 l 25
 190 341 l 25
531 303 m 25
 683 303 l 25
 683 228 l 25
 531 228 l 25
 531 303 l 25
303 303 m 25
 455 303 l 25
 455 228 l 25
 303 228 l 25
 303 303 l 25
76 303 m 25
 228 303 l 25
 228 228 l 25
 76 228 l 25
 76 303 l 25
EndSplineSet
EndChar

StartChar: semicolon
Encoding: 59 59 83
Width: 379
VWidth: 0
Flags: W
HStem: -114 76<76 228> 0 76<190 303> 114 76<76 303> 228 75<76 303> 455 76<76 303> 569 76<76 303>
VStem: 76 152<-114 -38> 190 113<0 76>
LayerCount: 2
Fore
SplineSet
303 569 m 25xfd
 76 569 l 25
 76 645 l 25xfe
 303 645 l 25
 303 569 l 25xfd
76 455 m 25
 76 531 l 25xfe
 303 531 l 25
 303 455 l 25xfd
 76 455 l 25
228 -38 m 25
 228 -114 l 25
 76 -114 l 25
 76 -38 l 25
 228 -38 l 25
303 76 m 25xfd
 303 0 l 25
 190 0 l 25
 190 76 l 25
 303 76 l 25xfd
303 228 m 25
 76 228 l 25
 76 303 l 25xfe
 303 303 l 25
 303 228 l 25
76 114 m 25
 76 190 l 25xfe
 303 190 l 25
 303 114 l 25xfd
 76 114 l 25
EndSplineSet
EndChar

StartChar: colon
Encoding: 58 58 84
Width: 379
VWidth: 0
Flags: W
HStem: 114 76<76 303> 228 75<76 303> 455 76<76 303> 569 76<76 303>
VStem: 76 227<114 190 228 303 455 531 569 645>
LayerCount: 2
Fore
SplineSet
303 569 m 25
 76 569 l 25
 76 645 l 25
 303 645 l 25
 303 569 l 25
76 455 m 25
 76 531 l 25
 303 531 l 25
 303 455 l 25
 76 455 l 25
303 228 m 25
 76 228 l 25
 76 303 l 25
 303 303 l 25
 303 228 l 25
76 114 m 25
 76 190 l 25
 303 190 l 25
 303 114 l 25
 76 114 l 25
EndSplineSet
EndChar

StartChar: quotesingle
Encoding: 39 39 85
Width: 379
VWidth: 0
Flags: W
HStem: 379 76<76 228> 493 76<190 303> 607 76<76 303> 721 75<76 303>
VStem: 76 152<379 455> 190 113<493 569>
LayerCount: 2
Fore
SplineSet
228 455 m 29xf8
 228 379 l 29
 76 379 l 29
 76 455 l 29
 228 455 l 29xf8
303 569 m 29xf4
 303 493 l 29
 190 493 l 29
 190 569 l 29
 303 569 l 29xf4
303 721 m 29
 76 721 l 29
 76 796 l 29xf8
 303 796 l 29
 303 721 l 29
76 607 m 29
 76 683 l 29xf8
 303 683 l 29
 303 607 l 29xf4
 76 607 l 29
EndSplineSet
EndChar

StartChar: quotedbl
Encoding: 34 34 86
Width: 682
VWidth: 0
Flags: W
HStem: 379 76<76 228 379 531> 493 76<190 303 493 607> 607 76<76 303 379 607> 721 75<76 303 379 607>
VStem: 76 152<379 455> 190 113<493 569> 379 152<379 455> 493 114<493 569>
LayerCount: 2
Fore
SplineSet
531 455 m 25xf2
 531 379 l 25
 379 379 l 25
 379 455 l 25
 531 455 l 25xf2
607 569 m 25xf1
 607 493 l 25
 493 493 l 25
 493 569 l 25
 607 569 l 25xf1
607 721 m 25
 379 721 l 25
 379 796 l 25xf2
 607 796 l 25
 607 721 l 25
379 607 m 25
 379 683 l 25xf2
 607 683 l 25
 607 607 l 25xf1
 379 607 l 25
228 455 m 25xf8
 228 379 l 25
 76 379 l 25
 76 455 l 25
 228 455 l 25xf8
303 569 m 25xf4
 303 493 l 25
 190 493 l 25
 190 569 l 25
 303 569 l 25xf4
303 721 m 25
 76 721 l 25
 76 796 l 25xf8
 303 796 l 25
 303 721 l 25
76 607 m 25
 76 683 l 25xf8
 303 683 l 25
 303 607 l 25xf4
 76 607 l 25
EndSplineSet
EndChar

StartChar: grave
Encoding: 96 96 87
Width: 455
VWidth: 0
Flags: W
HStem: 455 76<228 379> 569 76<114 265> 683 76<76 228>
VStem: 76 152<683 759> 114 151<569 645> 228 151<455 531>
CounterMasks: 1 e0
LayerCount: 2
Fore
SplineSet
76 683 m 25xf0
 76 759 l 25
 228 759 l 25
 228 683 l 25
 76 683 l 25xf0
114 569 m 25xe8
 114 645 l 25
 265 645 l 25
 265 569 l 25
 114 569 l 25xe8
228 455 m 25xe4
 228 531 l 25
 379 531 l 25
 379 455 l 25
 228 455 l 25xe4
EndSplineSet
EndChar

StartChar: exclam
Encoding: 33 33 88
Width: 455
VWidth: 0
Flags: W
HStem: 0 76<152 303> 228 75<152 303> 341 76<152 303> 455 76<76 379> 569 76<76 379> 683 76<152 303>
VStem: 152 151<0 76 228 303 341 417 683 759>
LayerCount: 2
Fore
SplineSet
152 341 m 25
 152 417 l 25
 303 417 l 25
 303 341 l 25
 152 341 l 25
76 455 m 25
 76 531 l 25
 379 531 l 25
 379 455 l 25
 76 455 l 25
152 228 m 25
 152 303 l 25
 303 303 l 25
 303 228 l 25
 152 228 l 25
76 569 m 25
 76 645 l 25
 379 645 l 25
 379 569 l 25
 76 569 l 25
152 683 m 25
 152 759 l 25
 303 759 l 25
 303 683 l 25
 152 683 l 25
152 0 m 25
 152 76 l 25
 303 76 l 25
 303 0 l 25
 152 0 l 25
EndSplineSet
EndChar

StartChar: bar
Encoding: 124 124 89
Width: 303
VWidth: 0
Flags: W
HStem: -114 76<76 228> 0 76<76 228> 114 76<76 228> 228 75<76 228> 341 76<76 228> 455 76<76 228> 569 76<76 228> 683 76<76 228> 796 76<76 228>
VStem: 76 152<-114 -38 0 76 114 190 228 303 341 417 455 531 569 645 683 759 796 872>
LayerCount: 2
Fore
SplineSet
76 796 m 29
 76 872 l 29
 228 872 l 29
 228 796 l 29
 76 796 l 29
76 -114 m 25
 76 -38 l 25
 228 -38 l 25
 228 -114 l 25
 76 -114 l 25
76 683 m 25
 76 759 l 25
 228 759 l 25
 228 683 l 25
 76 683 l 25
76 569 m 25
 76 645 l 25
 228 645 l 25
 228 569 l 25
 76 569 l 25
76 455 m 25
 76 531 l 25
 228 531 l 25
 228 455 l 25
 76 455 l 25
76 341 m 25
 76 417 l 25
 228 417 l 25
 228 341 l 25
 76 341 l 25
76 228 m 25
 76 303 l 25
 228 303 l 25
 228 228 l 25
 76 228 l 25
76 114 m 25
 76 190 l 25
 228 190 l 25
 228 114 l 25
 76 114 l 25
76 0 m 25
 76 76 l 25
 228 76 l 25
 228 0 l 25
 76 0 l 25
EndSplineSet
EndChar

StartChar: braceleft
Encoding: 123 123 90
Width: 455
VWidth: 0
Flags: W
HStem: -114 76<228 455> 0 76<152 303> 114 76<152 303> 228 75<152 303> 341 76<0 228> 455 76<152 303> 569 76<152 303> 683 76<152 303> 796 76<228 455>
VStem: 152 151<0 76 114 190 228 303 455 531 569 645 683 759> 228 227<-114 -38 796 872>
LayerCount: 2
Fore
SplineSet
228 872 m 25xffa0
 455 872 l 25
 455 796 l 25
 228 796 l 25
 228 872 l 25xffa0
152 683 m 25xffc0
 152 759 l 25
 303 759 l 25
 303 683 l 25
 152 683 l 25xffc0
152 569 m 25
 152 645 l 25
 303 645 l 25
 303 569 l 25
 152 569 l 25
152 455 m 25
 152 531 l 25
 303 531 l 25
 303 455 l 25
 152 455 l 25
0 341 m 25
 0 417 l 25
 228 417 l 25
 228 341 l 25xffa0
 0 341 l 25
152 228 m 25xffc0
 152 303 l 25
 303 303 l 25
 303 228 l 25
 152 228 l 25xffc0
152 114 m 25
 152 190 l 25
 303 190 l 25
 303 114 l 25
 152 114 l 25
228 -38 m 25xffa0
 455 -38 l 25
 455 -114 l 25
 228 -114 l 25
 228 -38 l 25xffa0
152 0 m 25xffc0
 152 76 l 25
 303 76 l 25
 303 0 l 25
 152 0 l 25xffc0
EndSplineSet
EndChar

StartChar: braceright
Encoding: 125 125 91
Width: 455
VWidth: 0
Flags: W
HStem: -114 76<0 228> 0 76<152 303> 114 76<152 303> 228 75<152 303> 341 76<228 455> 455 76<152 303> 569 76<152 303> 683 76<152 303> 796 76<0 228>
VStem: 0 228<-114 -38 796 872> 152 151<0 76 114 190 228 303 455 531 569 645 683 759>
LayerCount: 2
Fore
SplineSet
0 872 m 25xffc0
 228 872 l 25
 228 796 l 25
 0 796 l 25
 0 872 l 25xffc0
152 683 m 25xffa0
 152 759 l 25
 303 759 l 25
 303 683 l 25
 152 683 l 25xffa0
152 569 m 25
 152 645 l 25
 303 645 l 25
 303 569 l 25
 152 569 l 25
152 455 m 25
 152 531 l 25
 303 531 l 25
 303 455 l 25
 152 455 l 25
228 341 m 25xffc0
 228 417 l 25
 455 417 l 25
 455 341 l 25
 228 341 l 25xffc0
152 228 m 25xffa0
 152 303 l 25
 303 303 l 25
 303 228 l 25
 152 228 l 25xffa0
152 114 m 25
 152 190 l 25
 303 190 l 25
 303 114 l 25
 152 114 l 25
0 -38 m 29xffc0
 228 -38 l 29
 228 -114 l 29
 0 -114 l 29
 0 -38 l 29xffc0
152 0 m 25xffa0
 152 76 l 25
 303 76 l 25
 303 0 l 25
 152 0 l 25xffa0
EndSplineSet
EndChar

StartChar: numbersign
Encoding: 35 35 92
Width: 910
VWidth: 0
Flags: W
HStem: 0 76<228 379 531 683> 114 76<76 834> 228 75<228 379 531 683> 341 76<228 379 531 683> 455 76<228 379 531 683> 569 76<76 834> 683 76<228 379 531 683>
VStem: 228 151<0 76 228 303 341 417 455 531 683 759> 531 152<0 76 228 303 341 417 455 531 683 759>
LayerCount: 2
Fore
SplineSet
834 569 m 25
 76 569 l 25
 76 645 l 25
 834 645 l 25
 834 569 l 25
531 683 m 25
 531 759 l 25
 683 759 l 25
 683 683 l 25
 531 683 l 25
228 683 m 25
 228 759 l 25
 379 759 l 25
 379 683 l 25
 228 683 l 25
531 455 m 25
 531 531 l 25
 683 531 l 25
 683 455 l 25
 531 455 l 25
228 455 m 25
 228 531 l 25
 379 531 l 25
 379 455 l 25
 228 455 l 25
531 341 m 25
 531 417 l 25
 683 417 l 25
 683 341 l 25
 531 341 l 25
228 341 m 25
 228 417 l 25
 379 417 l 25
 379 341 l 25
 228 341 l 25
531 228 m 25
 531 303 l 25
 683 303 l 25
 683 228 l 25
 531 228 l 25
228 228 m 25
 228 303 l 25
 379 303 l 25
 379 228 l 25
 228 228 l 25
834 114 m 25
 76 114 l 25
 76 190 l 25
 834 190 l 25
 834 114 l 25
531 0 m 25
 531 76 l 25
 683 76 l 25
 683 0 l 25
 531 0 l 25
228 0 m 25
 228 76 l 25
 379 76 l 25
 379 0 l 25
 228 0 l 25
EndSplineSet
EndChar

StartChar: asciitilde
Encoding: 126 126 93
Width: 910
VWidth: 0
Flags: W
HStem: 228 75<455 759> 341 76<76 228 379 531 683 834> 455 76<152 455>
VStem: 76 152<341 417> 379 152<341 417> 683 151<341 417>
LayerCount: 2
Fore
SplineSet
455 303 m 25
 759 303 l 25
 759 228 l 25
 455 228 l 25
 455 303 l 25
455 455 m 25
 152 455 l 25
 152 531 l 25
 455 531 l 25
 455 455 l 25
683 341 m 25
 683 417 l 25
 834 417 l 25
 834 341 l 25
 683 341 l 25
379 341 m 25
 379 417 l 25
 531 417 l 25
 531 341 l 25
 379 341 l 25
76 341 m 25
 76 417 l 25
 228 417 l 25
 228 341 l 25
 76 341 l 25
EndSplineSet
EndChar

StartChar: ampersand
Encoding: 38 38 94
Width: 834
VWidth: 0
Flags: W
HStem: 0 76<152 531 607 759> 114 76<76 228 455 683> 228 75<76 228 379 683> 341 76<152 455 607 759> 455 76<76 228 379 531> 569 76<76 228 455 607> 683 76<152 531>
VStem: 76 152<114 190 228 303 455 531 569 645> 379 152<455 531> 455 152<569 645> 607 152<0 76 341 417>
LayerCount: 2
Fore
SplineSet
531 76 m 25xff80
 531 0 l 25
 152 0 l 25
 152 76 l 25
 531 76 l 25xff80
607 0 m 25xff20
 607 76 l 25
 759 76 l 25
 759 0 l 25
 607 0 l 25xff20
455 190 m 25xff40
 683 190 l 25
 683 114 l 25
 455 114 l 25
 455 190 l 25xff40
379 303 m 25xff80
 683 303 l 25
 683 228 l 25
 379 228 l 25
 379 303 l 25xff80
607 417 m 25xff20
 759 417 l 25
 759 341 l 25
 607 341 l 25
 607 417 l 25xff20
152 417 m 25
 455 417 l 29
 455 341 l 29xff40
 152 341 l 25
 152 417 l 25
531 683 m 25xff80
 152 683 l 25
 152 759 l 25
 531 759 l 25
 531 683 l 25xff80
455 569 m 25xff40
 455 645 l 25
 607 645 l 25
 607 569 l 25
 455 569 l 25xff40
379 455 m 25xff80
 379 531 l 25
 531 531 l 25
 531 455 l 25
 379 455 l 25xff80
228 569 m 25
 76 569 l 25
 76 645 l 25
 228 645 l 25
 228 569 l 25
228 455 m 25
 76 455 l 25
 76 531 l 25
 228 531 l 25
 228 455 l 25
228 228 m 25
 76 228 l 25
 76 303 l 25
 228 303 l 25
 228 228 l 25
76 114 m 25
 76 190 l 25
 228 190 l 25
 228 114 l 25
 76 114 l 25
EndSplineSet
EndChar

StartChar: uni0000
Encoding: 0 0 95
Width: 758
VWidth: 0
Flags: W
HStem: 0 76<76 683> 114 76<76 303 455 683> 228 75<76 683> 341 76<76 303 455 683> 455 76<76 417 569 683> 569 76<76 228 493 683> 683 76<76 683>
VStem: 76 227<114 190 341 417> 76 152<569 645> 455 228<114 190 341 417> 569 114<455 531>
LayerCount: 2
Fore
SplineSet
455 190 m 25xfe40
 683 190 l 25
 683 114 l 25
 455 114 l 25
 455 190 l 25xfe40
76 190 m 25xff
 303 190 l 25
 303 114 l 25
 76 114 l 25
 76 190 l 25xff
76 0 m 25xfea0
 76 76 l 25
 683 76 l 25
 683 0 l 25
 76 0 l 25xfea0
76 228 m 25
 76 303 l 25
 683 303 l 25
 683 228 l 25
 76 228 l 25
76 683 m 25
 76 759 l 25
 683 759 l 25
 683 683 l 25
 76 683 l 25
455 417 m 25xfe40
 683 417 l 25
 683 341 l 25
 455 341 l 25
 455 417 l 25xfe40
493 569 m 25
 493 645 l 25
 683 645 l 25
 683 569 l 25xfe20
 493 569 l 25
569 455 m 25
 569 531 l 25
 683 531 l 25
 683 455 l 25
 569 455 l 25
76 417 m 25xff
 303 417 l 25
 303 341 l 25
 76 341 l 25
 76 417 l 25xff
76 531 m 25xfe80
 417 531 l 25
 417 455 l 25
 76 455 l 25
 76 531 l 25xfe80
76 645 m 25
 228 645 l 25
 228 569 l 25
 76 569 l 25
 76 645 l 25
EndSplineSet
EndChar

StartChar: egrave
Encoding: 232 232 99
Width: 682
VWidth: 0
Flags: W
HStem: 0 76<152 531> 114 76<76 228> 228 75<76 607> 341 76<76 228 455 607> 455 76<152 531> 683 76<228 417> 796 76<114 303>
VStem: 76 152<114 190 341 417> 455 152<341 417>
LayerCount: 2
Fore
SplineSet
303 796 m 29
 114 796 l 29
 114 872 l 29
 303 872 l 29
 303 796 l 29
228 683 m 29
 228 759 l 29
 417 759 l 29
 417 683 l 29
 228 683 l 29
EndSplineSet
Refer: 9 101 N 1 0 0 1 0 0 2
EndChar

StartChar: eacute
Encoding: 233 233 100
Width: 682
VWidth: 0
Flags: W
HStem: 0 76<152 531> 114 76<76 228> 228 75<76 607> 341 76<76 228 455 607> 455 76<152 531> 683 76<265 455> 796 76<379 569>
VStem: 76 152<114 190 341 417> 455 152<341 417>
LayerCount: 2
Fore
SplineSet
569 796 m 29
 379 796 l 29
 379 872 l 29
 569 872 l 29
 569 796 l 29
265 683 m 29
 265 759 l 29
 455 759 l 29
 455 683 l 29
 265 683 l 29
EndSplineSet
Refer: 9 101 N 1 0 0 1 0 0 2
EndChar

StartChar: ecircumflex
Encoding: 234 234 101
Width: 682
VWidth: 0
Flags: W
HStem: 0 76<152 531> 114 76<76 228> 228 75<76 607> 341 76<76 228 455 607> 455 76<152 531> 683 76<114 265 417 569> 796 76<228 455>
VStem: 76 152<114 190 341 417> 114 151<683 759> 417 152<683 759> 455 152<341 417>
LayerCount: 2
Fore
SplineSet
417 759 m 29xfe40
 569 759 l 29
 569 683 l 29
 417 683 l 29
 417 759 l 29xfe40
265 759 m 29xfe80
 265 683 l 29
 114 683 l 29
 114 759 l 29
 265 759 l 29xfe80
228 796 m 29xff20
 228 872 l 29
 455 872 l 29
 455 796 l 29
 228 796 l 29xff20
EndSplineSet
Refer: 9 101 N 1 0 0 1 0 0 2
EndChar

StartChar: edieresis
Encoding: 235 235 102
Width: 682
VWidth: 0
Flags: W
HStem: 0 76<152 531> 114 76<76 228> 228 75<76 607> 341 76<76 228 455 607> 455 76<152 531> 683 76<114 265 417 569>
VStem: 76 152<114 190 341 417> 114 151<683 759> 417 152<683 759> 455 152<341 417>
LayerCount: 2
Fore
SplineSet
417 759 m 29xfc80
 569 759 l 29
 569 683 l 29
 417 683 l 29
 417 759 l 29xfc80
265 759 m 29xfd
 265 683 l 29
 114 683 l 29
 114 759 l 29
 265 759 l 29xfd
EndSplineSet
Refer: 9 101 N 1 0 0 1 0 0 2
EndChar

StartChar: ugrave
Encoding: 249 249 103
Width: 682
VWidth: 0
Flags: W
HStem: 0 76<152 607> 114 76<76 228 455 607> 228 75<76 228 455 607> 341 76<76 228 455 607> 455 76<76 228 455 607> 683 76<228 417> 796 76<114 303>
VStem: 76 152<114 190 228 303 341 417 455 531> 455 152<114 190 228 303 341 417 455 531>
LayerCount: 2
Fore
SplineSet
303 796 m 29
 114 796 l 29
 114 872 l 29
 303 872 l 29
 303 796 l 29
228 683 m 29
 228 759 l 29
 417 759 l 29
 417 683 l 29
 228 683 l 29
EndSplineSet
Refer: 40 117 N 1 0 0 1 0 0 2
EndChar

StartChar: uacute
Encoding: 250 250 104
Width: 682
VWidth: 0
Flags: W
HStem: 0 76<152 607> 114 76<76 228 455 607> 228 75<76 228 455 607> 341 76<76 228 455 607> 455 76<76 228 455 607> 683 76<265 455> 796 76<379 569>
VStem: 76 152<114 190 228 303 341 417 455 531> 455 152<114 190 228 303 341 417 455 531>
LayerCount: 2
Fore
SplineSet
569 796 m 29
 379 796 l 29
 379 872 l 29
 569 872 l 29
 569 796 l 29
265 683 m 29
 265 759 l 29
 455 759 l 29
 455 683 l 29
 265 683 l 29
EndSplineSet
Refer: 40 117 N 1 0 0 1 0 0 2
EndChar

StartChar: ucircumflex
Encoding: 251 251 105
Width: 682
VWidth: 0
Flags: W
HStem: 0 76<152 607> 114 76<76 228 455 607> 228 75<76 228 455 607> 341 76<76 228 455 607> 455 76<76 228 455 607> 683 76<114 265 417 569> 796 76<228 455>
VStem: 76 152<114 190 228 303 341 417 455 531> 114 151<683 759> 417 152<683 759> 455 152<114 190 228 303 341 417 455 531>
LayerCount: 2
Fore
SplineSet
417 759 m 29xfe40
 569 759 l 29
 569 683 l 29
 417 683 l 29
 417 759 l 29xfe40
265 759 m 29xfe80
 265 683 l 29
 114 683 l 29
 114 759 l 29
 265 759 l 29xfe80
228 796 m 29xff20
 228 872 l 29
 455 872 l 29
 455 796 l 29
 228 796 l 29xff20
EndSplineSet
Refer: 40 117 N 1 0 0 1 0 0 2
EndChar

StartChar: udieresis
Encoding: 252 252 106
Width: 682
VWidth: 0
Flags: W
HStem: 0 76<152 607> 114 76<76 228 455 607> 228 75<76 228 455 607> 341 76<76 228 455 607> 455 76<76 228 455 607> 683 76<114 265 417 569>
VStem: 76 152<114 190 228 303 341 417 455 531> 114 151<683 759> 417 152<683 759> 455 152<114 190 228 303 341 417 455 531>
LayerCount: 2
Fore
SplineSet
417 759 m 29xfc80
 569 759 l 29
 569 683 l 29
 417 683 l 29
 417 759 l 29xfc80
265 759 m 29xfd
 265 683 l 29
 114 683 l 29
 114 759 l 29
 265 759 l 29xfd
EndSplineSet
Refer: 40 117 N 1 0 0 1 0 0 2
EndChar

StartChar: dotlessi
Encoding: 305 305 107
Width: 455
VWidth: 0
Flags: W
HStem: 0 76<76 379> 114 76<152 303> 228 75<152 303> 341 76<152 303> 455 76<76 303>
VStem: 152 151<114 190 228 303 341 417>
LayerCount: 2
Fore
SplineSet
76 455 m 25
 76 531 l 25
 303 531 l 25
 303 455 l 25
 76 455 l 25
152 341 m 25
 152 417 l 25
 303 417 l 25
 303 341 l 25
 152 341 l 25
152 228 m 25
 152 303 l 25
 303 303 l 25
 303 228 l 25
 152 228 l 25
152 114 m 25
 152 190 l 25
 303 190 l 25
 303 114 l 25
 152 114 l 25
76 0 m 25
 76 76 l 25
 379 76 l 25
 379 0 l 25
 76 0 l 25
EndSplineSet
EndChar

StartChar: igrave
Encoding: 236 236 108
Width: 455
VWidth: 0
Flags: W
HStem: 0 76<76 379> 114 76<152 303> 228 75<152 303> 341 76<152 303> 455 76<76 303> 683 76<114 303> 796 76<0 190>
VStem: 152 151<114 190 228 303 341 417>
LayerCount: 2
Fore
SplineSet
190 796 m 29
 0 796 l 29
 0 872 l 29
 190 872 l 29
 190 796 l 29
114 683 m 29
 114 759 l 29
 303 759 l 29
 303 683 l 29
 114 683 l 29
EndSplineSet
Refer: 107 305 N 1 0 0 1 0 0 2
EndChar

StartChar: iacute
Encoding: 237 237 109
Width: 455
VWidth: 0
Flags: W
HStem: 0 76<76 379> 114 76<152 303> 228 75<152 303> 341 76<152 303> 455 76<76 303> 683 76<152 341> 796 76<265 455>
VStem: 152 151<114 190 228 303 341 417>
LayerCount: 2
Fore
SplineSet
455 796 m 29
 265 796 l 29
 265 872 l 29
 455 872 l 29
 455 796 l 29
152 683 m 29
 152 759 l 29
 341 759 l 29
 341 683 l 29
 152 683 l 29
EndSplineSet
Refer: 107 305 N 1 0 0 1 0 0 2
EndChar

StartChar: icircumflex
Encoding: 238 238 110
Width: 455
VWidth: 0
Flags: W
HStem: 0 76<76 379> 114 76<152 303> 228 75<152 303> 341 76<152 303> 455 76<76 303> 683 76<0 152 303 455> 796 76<114 341>
VStem: 0 152<683 759> 152 151<114 190 228 303 341 417> 303 152<683 759>
LayerCount: 2
Fore
SplineSet
303 759 m 29xfe40
 455 759 l 29
 455 683 l 29
 303 683 l 29
 303 759 l 29xfe40
152 759 m 29xff
 152 683 l 29
 0 683 l 29
 0 759 l 29
 152 759 l 29xff
114 796 m 29
 114 872 l 29
 341 872 l 29
 341 796 l 29
 114 796 l 29
EndSplineSet
Refer: 107 305 N 1 0 0 1 0 0 2
EndChar

StartChar: idieresis
Encoding: 239 239 111
Width: 455
VWidth: 0
Flags: W
HStem: 0 76<76 379> 114 76<152 303> 228 75<152 303> 341 76<152 303> 455 76<76 303> 683 76<0 152 303 455>
VStem: 0 152<683 759> 152 151<114 190 228 303 341 417> 303 152<683 759>
LayerCount: 2
Fore
SplineSet
303 759 m 29xfc80
 455 759 l 29
 455 683 l 29
 303 683 l 29
 303 759 l 29xfc80
152 759 m 29xfe
 152 683 l 29
 0 683 l 29
 0 759 l 29
 152 759 l 29xfe
EndSplineSet
Refer: 107 305 N 1 0 0 1 0 0 2
EndChar

StartChar: Idotaccent
Encoding: 304 304 112
Width: 455
VWidth: 0
Flags: W
HStem: 0 76<76 379> 114 76<152 303> 228 75<152 303> 341 76<152 303> 455 76<152 303> 569 76<152 303> 683 76<76 379> 910 76<152 303>
VStem: 152 151<114 190 228 303 341 417 455 531 569 645 910 986>
LayerCount: 2
Fore
SplineSet
152 910 m 29
 152 986 l 25
 303 986 l 25
 303 910 l 25
 152 910 l 29
EndSplineSet
Refer: 0 73 N 1 0 0 1 0 0 2
EndChar

StartChar: ccedilla
Encoding: 231 231 113
Width: 682
VWidth: 0
Flags: W
HStem: -228 76<152 531> -114 76<303 455> 0 76<152 531> 114 76<76 228 455 607> 228 75<76 228> 341 76<76 228 455 607> 455 76<152 531>
VStem: 76 152<114 190 228 303 341 417> 303 152<-114 -38> 455 152<114 190 341 417>
LayerCount: 2
Fore
SplineSet
531 -152 m 29xff
 531 -228 l 29
 152 -228 l 29
 152 -152 l 29
 531 -152 l 29xff
455 -38 m 29xff80
 455 -114 l 29
 303 -114 l 29
 303 -38 l 29
 455 -38 l 29xff80
EndSplineSet
Refer: 11 99 N 1 0 0 1 0 0 2
EndChar

StartChar: Ccedilla
Encoding: 199 199 114
Width: 758
VWidth: 0
Flags: W
HStem: -228 76<228 607> -114 76<379 531> 0 76<265 569> 114 76<152 303 531 683> 228 75<76 228> 341 76<76 228> 455 76<76 228> 569 76<152 303 531 683> 683 76<265 569>
VStem: 76 152<228 303 341 417 455 531> 152 151<114 190 569 645> 379 152<-114 -38> 531 152<114 190 569 645>
LayerCount: 2
Fore
SplineSet
607 -152 m 29xffc0
 607 -228 l 29
 228 -228 l 29
 228 -152 l 29
 607 -152 l 29xffc0
531 -38 m 29xff90
 531 -114 l 29
 379 -114 l 29
 379 -38 l 29
 531 -38 l 29xff90
EndSplineSet
Refer: 12 67 N 1 0 0 1 0 0 2
EndChar

StartChar: ograve
Encoding: 242 242 115
Width: 682
VWidth: 0
Flags: W
HStem: 0 76<190 493> 114 76<76 228 455 607> 228 75<76 228 455 607> 341 76<76 228 455 607> 455 76<190 493> 683 76<228 417> 796 76<114 303>
VStem: 76 152<114 190 228 303 341 417> 455 152<114 190 228 303 341 417>
LayerCount: 2
Fore
SplineSet
303 796 m 29
 114 796 l 29
 114 872 l 29
 303 872 l 29
 303 796 l 29
228 683 m 29
 228 759 l 29
 417 759 l 29
 417 683 l 29
 228 683 l 29
EndSplineSet
Refer: 8 111 N 1 0 0 1 0 0 2
EndChar

StartChar: oacute
Encoding: 243 243 116
Width: 682
VWidth: 0
Flags: W
HStem: 0 76<190 493> 114 76<76 228 455 607> 228 75<76 228 455 607> 341 76<76 228 455 607> 455 76<190 493> 683 76<265 455> 796 76<379 569>
VStem: 76 152<114 190 228 303 341 417> 455 152<114 190 228 303 341 417>
LayerCount: 2
Fore
SplineSet
569 796 m 29
 379 796 l 29
 379 872 l 29
 569 872 l 29
 569 796 l 29
265 683 m 29
 265 759 l 29
 455 759 l 29
 455 683 l 29
 265 683 l 29
EndSplineSet
Refer: 8 111 N 1 0 0 1 0 0 2
EndChar

StartChar: ocircumflex
Encoding: 244 244 117
Width: 682
VWidth: 0
Flags: W
HStem: 0 76<190 493> 114 76<76 228 455 607> 228 75<76 228 455 607> 341 76<76 228 455 607> 455 76<190 493> 683 76<114 265 417 569> 796 76<228 455>
VStem: 76 152<114 190 228 303 341 417> 114 151<683 759> 417 152<683 759> 455 152<114 190 228 303 341 417>
LayerCount: 2
Fore
SplineSet
417 759 m 29xfe40
 569 759 l 29
 569 683 l 29
 417 683 l 29
 417 759 l 29xfe40
265 759 m 29xfe80
 265 683 l 29
 114 683 l 29
 114 759 l 29
 265 759 l 29xfe80
228 796 m 29xff20
 228 872 l 29
 455 872 l 29
 455 796 l 29
 228 796 l 29xff20
EndSplineSet
Refer: 8 111 N 1 0 0 1 0 0 2
EndChar

StartChar: otilde
Encoding: 245 245 118
Width: 682
VWidth: 0
Flags: W
HStem: 0 76<190 493> 114 76<76 228 455 607> 228 75<76 228 455 607> 341 76<76 228 455 607> 455 76<190 493> 683 76<76 190 303 531> 796 76<152 379 493 607>
VStem: 76 114<683 759> 76 152<114 190 228 303 341 417> 455 152<114 190 228 303 341 417> 493 114<796 872>
LayerCount: 2
Fore
SplineSet
303 759 m 29xfe
 531 759 l 29
 531 683 l 29
 303 683 l 29
 303 759 l 29xfe
379 796 m 29
 152 796 l 29
 152 872 l 29
 379 872 l 29
 379 796 l 29
607 796 m 29xfe20
 493 796 l 29
 493 872 l 29
 607 872 l 29
 607 796 l 29xfe20
76 759 m 29xff
 190 759 l 29
 190 683 l 29
 76 683 l 29
 76 759 l 29xff
EndSplineSet
Refer: 8 111 N 1 0 0 1 0 0 2
EndChar

StartChar: odieresis
Encoding: 246 246 119
Width: 682
VWidth: 0
Flags: W
HStem: 0 76<190 493> 114 76<76 228 455 607> 228 75<76 228 455 607> 341 76<76 228 455 607> 455 76<190 493> 683 76<114 265 417 569>
VStem: 76 152<114 190 228 303 341 417> 114 151<683 759> 417 152<683 759> 455 152<114 190 228 303 341 417>
LayerCount: 2
Fore
SplineSet
417 759 m 29xfc80
 569 759 l 29
 569 683 l 29
 417 683 l 29
 417 759 l 29xfc80
265 759 m 29xfd
 265 683 l 29
 114 683 l 29
 114 759 l 29
 265 759 l 29xfd
EndSplineSet
Refer: 8 111 N 1 0 0 1 0 0 2
EndChar

StartChar: ntilde
Encoding: 241 241 120
Width: 682
VWidth: 0
Flags: W
HStem: 0 76<76 228 455 607> 114 76<76 228 455 607> 228 75<76 228 455 607> 341 76<76 303 455 607> 455 76<76 228 303 531> 683 76<76 190 303 531> 796 76<152 379 493 607>
VStem: 76 114<683 759> 76 152<0 76 114 190 228 303 455 531> 455 152<0 76 114 190 228 303 341 417> 493 114<796 872>
LayerCount: 2
Fore
SplineSet
303 759 m 29xfe
 531 759 l 29
 531 683 l 29
 303 683 l 29
 303 759 l 29xfe
379 796 m 29
 152 796 l 29
 152 872 l 29
 379 872 l 29
 379 796 l 29
607 796 m 29xfe20
 493 796 l 29
 493 872 l 29
 607 872 l 29
 607 796 l 29xfe20
76 759 m 29xff
 190 759 l 29
 190 683 l 29
 76 683 l 29
 76 759 l 29xff
EndSplineSet
Refer: 41 110 N 1 0 0 1 0 0 2
EndChar

StartChar: Ograve
Encoding: 210 210 121
Width: 834
VWidth: 0
Flags: W
HStem: 0 76<265 569> 114 76<152 303 531 683> 228 75<76 228 607 759> 341 76<76 228 607 759> 455 76<152 303 531 683> 569 76<265 569> 796 76<303 493> 910 76<190 379>
VStem: 76 152<228 303 341 417> 152 151<114 190 455 531> 531 152<114 190 455 531> 607 152<228 303 341 417>
LayerCount: 2
Fore
SplineSet
379 910 m 29xff
 190 910 l 29
 190 986 l 29
 379 986 l 29
 379 910 l 29xff
303 796 m 29xff40
 303 872 l 29
 493 872 l 29
 493 796 l 29
 303 796 l 29xff40
265 569 m 25
 265 645 l 25
 569 645 l 25
 569 569 l 25
 265 569 l 25
265 0 m 25
 265 76 l 25
 569 76 l 25
 569 0 l 25
 265 0 l 25
531 114 m 25xff20
 531 190 l 25
 683 190 l 25
 683 114 l 25
 531 114 l 25xff20
607 341 m 25xff10
 607 417 l 25
 759 417 l 25
 759 341 l 25
 607 341 l 25xff10
607 228 m 25
 607 303 l 25
 759 303 l 25
 759 228 l 25
 607 228 l 25
531 455 m 25xff20
 531 531 l 25
 683 531 l 25
 683 455 l 25
 531 455 l 25xff20
152 455 m 25xff40
 152 531 l 25
 303 531 l 25
 303 455 l 25
 152 455 l 25xff40
76 341 m 25xff80
 76 417 l 25
 228 417 l 25
 228 341 l 25
 76 341 l 25xff80
76 228 m 25
 76 303 l 25
 228 303 l 25
 228 228 l 25
 76 228 l 25
152 114 m 25xff40
 152 190 l 25
 303 190 l 25
 303 114 l 25
 152 114 l 25xff40
EndSplineSet
EndChar

StartChar: Oacute
Encoding: 211 211 122
Width: 834
VWidth: 0
Flags: W
HStem: 0 76<265 569> 114 76<152 303 531 683> 228 75<76 228 607 759> 341 76<76 228 607 759> 455 76<152 303 531 683> 569 76<265 569> 796 76<341 531> 910 76<455 645>
VStem: 76 152<228 303 341 417> 152 151<114 190 455 531> 531 152<114 190 455 531> 607 152<228 303 341 417>
LayerCount: 2
Fore
SplineSet
645 910 m 29xff
 455 910 l 29
 455 986 l 29
 645 986 l 29
 645 910 l 29xff
341 796 m 29
 341 872 l 29
 531 872 l 29
 531 796 l 29xff20
 341 796 l 29
265 569 m 25
 265 645 l 25
 569 645 l 25
 569 569 l 25
 265 569 l 25
265 0 m 25
 265 76 l 25
 569 76 l 25
 569 0 l 25
 265 0 l 25
531 114 m 25
 531 190 l 25
 683 190 l 25
 683 114 l 25
 531 114 l 25
607 341 m 25xff10
 607 417 l 25
 759 417 l 25
 759 341 l 25
 607 341 l 25xff10
607 228 m 25
 607 303 l 25
 759 303 l 25
 759 228 l 25
 607 228 l 25
531 455 m 25xff20
 531 531 l 25
 683 531 l 25
 683 455 l 25
 531 455 l 25xff20
152 455 m 25xff40
 152 531 l 25
 303 531 l 25
 303 455 l 25
 152 455 l 25xff40
76 341 m 25xff80
 76 417 l 25
 228 417 l 25
 228 341 l 25
 76 341 l 25xff80
76 228 m 25
 76 303 l 25
 228 303 l 25
 228 228 l 25
 76 228 l 25
152 114 m 25xff40
 152 190 l 25
 303 190 l 25
 303 114 l 25
 152 114 l 25xff40
EndSplineSet
EndChar

StartChar: Ocircumflex
Encoding: 212 212 123
Width: 834
VWidth: 0
Flags: W
HStem: 0 76<265 569> 114 76<152 303 531 683> 228 75<76 228 607 759> 341 76<76 228 607 759> 455 76<152 303 531 683> 569 76<265 569> 796 76<190 341 493 645> 910 76<303 531>
VStem: 76 152<228 303 341 417> 152 151<114 190 455 531> 190 151<796 872> 493 152<796 872> 531 152<114 190 455 531> 607 152<228 303 341 417>
LayerCount: 2
Fore
SplineSet
493 872 m 29xff10
 645 872 l 29
 645 796 l 29
 493 796 l 29
 493 872 l 29xff10
341 872 m 29xff20
 341 796 l 29
 190 796 l 29
 190 872 l 29
 341 872 l 29xff20
303 910 m 29xff48
 303 986 l 29
 531 986 l 29
 531 910 l 29
 303 910 l 29xff48
265 569 m 25
 265 645 l 25
 569 645 l 25
 569 569 l 25
 265 569 l 25
265 0 m 25
 265 76 l 25
 569 76 l 25
 569 0 l 25
 265 0 l 25
531 114 m 25
 531 190 l 25
 683 190 l 25
 683 114 l 25
 531 114 l 25
607 341 m 25xff04
 607 417 l 25
 759 417 l 25
 759 341 l 25
 607 341 l 25xff04
607 228 m 25
 607 303 l 25
 759 303 l 25
 759 228 l 25
 607 228 l 25
531 455 m 25xff08
 531 531 l 25
 683 531 l 25
 683 455 l 25
 531 455 l 25xff08
152 455 m 25xff40
 152 531 l 25
 303 531 l 25
 303 455 l 25
 152 455 l 25xff40
76 341 m 25xff80
 76 417 l 25
 228 417 l 25
 228 341 l 25
 76 341 l 25xff80
76 228 m 25
 76 303 l 25
 228 303 l 25
 228 228 l 25
 76 228 l 25
152 114 m 25xff40
 152 190 l 25
 303 190 l 25
 303 114 l 25
 152 114 l 25xff40
EndSplineSet
EndChar

StartChar: Otilde
Encoding: 213 213 124
Width: 834
VWidth: 0
Flags: W
HStem: 0 76<265 569> 114 76<152 303 531 683> 228 75<76 228 607 759> 341 76<76 228 607 759> 455 76<152 303 531 683> 569 76<265 569> 796 76<152 265 379 607> 910 76<228 455 569 683>
VStem: 76 152<228 303 341 417> 152 151<114 190 455 531> 152 113<796 872> 531 152<114 190 455 531> 569 114<910 986> 607 152<228 303 341 417>
LayerCount: 2
Fore
SplineSet
379 872 m 29xff04
 607 872 l 29
 607 796 l 29
 379 796 l 29
 379 872 l 29xff04
455 910 m 29
 228 910 l 29
 228 986 l 29xff80
 455 986 l 29
 455 910 l 29
683 910 m 29xff08
 569 910 l 29
 569 986 l 29
 683 986 l 29
 683 910 l 29xff08
152 872 m 29xff20
 265 872 l 29
 265 796 l 29
 152 796 l 29
 152 872 l 29xff20
265 569 m 25
 265 645 l 25
 569 645 l 25
 569 569 l 25xff28
 265 569 l 25
265 0 m 25
 265 76 l 25
 569 76 l 25
 569 0 l 25
 265 0 l 25
531 114 m 25xff10
 531 190 l 25
 683 190 l 25
 683 114 l 25
 531 114 l 25xff10
607 341 m 25xff04
 607 417 l 25
 759 417 l 25
 759 341 l 25
 607 341 l 25xff04
607 228 m 25
 607 303 l 25
 759 303 l 25
 759 228 l 25
 607 228 l 25
531 455 m 25xff10
 531 531 l 25
 683 531 l 25
 683 455 l 25
 531 455 l 25xff10
152 455 m 25xff40
 152 531 l 25
 303 531 l 25
 303 455 l 25
 152 455 l 25xff40
76 341 m 25xff80
 76 417 l 25
 228 417 l 25
 228 341 l 25
 76 341 l 25xff80
76 228 m 25
 76 303 l 25
 228 303 l 25
 228 228 l 25
 76 228 l 25
152 114 m 25xff40
 152 190 l 25
 303 190 l 25
 303 114 l 25
 152 114 l 25xff40
EndSplineSet
EndChar

StartChar: Odieresis
Encoding: 214 214 125
Width: 834
VWidth: 0
Flags: W
HStem: 0 76<265 569> 114 76<152 303 531 683> 228 75<76 228 607 759> 341 76<76 228 607 759> 455 76<76 228 607 759> 569 76<152 303 531 683> 683 76<265 569> 910 76<190 341 493 645>
VStem: 76 152<228 303 341 417 455 531> 152 151<114 190 569 645> 190 151<910 986> 493 152<910 986> 531 152<114 190 569 645> 607 152<228 303 341 417 455 531>
LayerCount: 2
Fore
SplineSet
493 986 m 29xff10
 645 986 l 29
 645 910 l 29
 493 910 l 29
 493 986 l 29xff10
341 986 m 29xff20
 341 910 l 29
 190 910 l 29
 190 986 l 29
 341 986 l 29xff20
EndSplineSet
Refer: 13 79 N 1 0 0 1 0 0 2
EndChar

StartChar: Eth
Encoding: 208 208 126
Width: 758
VWidth: 0
Flags: W
HStem: 0 76<76 455> 114 76<76 228 455 607> 228 75<76 228 531 683> 341 76<76 379 531 683> 455 76<76 228 531 683> 569 76<76 228 455 607> 683 76<76 455>
VStem: 76 152<114 190 228 303 455 531 569 645> 455 152<114 190 569 645> 531 152<228 303 341 417 455 531>
LayerCount: 2
Fore
SplineSet
76 683 m 25xff80
 76 759 l 25
 455 759 l 25
 455 683 l 25
 76 683 l 25xff80
76 0 m 25
 76 76 l 25
 455 76 l 25
 455 0 l 25
 76 0 l 25
455 114 m 25
 455 190 l 25
 607 190 l 25
 607 114 l 25
 455 114 l 25
531 455 m 25xff40
 531 531 l 25
 683 531 l 25
 683 455 l 25
 531 455 l 25xff40
531 341 m 25
 531 417 l 25
 683 417 l 25
 683 341 l 25
 531 341 l 25
531 228 m 25
 531 303 l 25
 683 303 l 25
 683 228 l 25
 531 228 l 25
455 569 m 25xff80
 455 645 l 25
 607 645 l 25
 607 569 l 25
 455 569 l 25xff80
76 569 m 25
 76 645 l 25
 228 645 l 25
 228 569 l 25
 76 569 l 25
76 455 m 25
 76 531 l 25
 228 531 l 25
 228 455 l 25
 76 455 l 25
76 341 m 25
 76 417 l 25
 379 417 l 29
 379 341 l 29
 76 341 l 25
76 228 m 25
 76 303 l 25
 228 303 l 25
 228 228 l 25
 76 228 l 25
76 114 m 25
 76 190 l 25
 228 190 l 25
 228 114 l 25
 76 114 l 25
EndSplineSet
EndChar

StartChar: Idieresis
Encoding: 207 207 127
Width: 455
VWidth: 0
Flags: W
HStem: 0 76<76 379> 114 76<152 303> 228 75<152 303> 341 76<152 303> 455 76<152 303> 569 76<152 303> 683 76<76 379> 910 76<0 152 303 455>
VStem: 0 152<910 986> 152 151<114 190 228 303 341 417 455 531 569 645> 303 152<910 986>
LayerCount: 2
Fore
SplineSet
303 986 m 29xff20
 455 986 l 29
 455 910 l 29
 303 910 l 29
 303 986 l 29xff20
152 986 m 29xff80
 152 910 l 29
 0 910 l 29
 0 986 l 29
 152 986 l 29xff80
EndSplineSet
Refer: 0 73 N 1 0 0 1 0 0 2
EndChar

StartChar: Igrave
Encoding: 204 204 128
Width: 455
VWidth: 0
Flags: W
HStem: 0 76<76 379> 114 76<152 303> 228 75<152 303> 341 76<152 303> 455 76<152 303> 569 76<76 379> 796 76<114 303> 910 76<0 190>
VStem: 152 151<114 190 228 303 341 417 455 531>
LayerCount: 2
Fore
SplineSet
190 910 m 29
 0 910 l 29
 0 986 l 29
 190 986 l 29
 190 910 l 29
114 796 m 29
 114 872 l 29
 303 872 l 29
 303 796 l 29
 114 796 l 29
76 569 m 25
 76 645 l 25
 379 645 l 25
 379 569 l 25
 76 569 l 25
152 455 m 25
 152 531 l 25
 303 531 l 25
 303 455 l 25
 152 455 l 25
152 341 m 25
 152 417 l 25
 303 417 l 25
 303 341 l 25
 152 341 l 25
152 228 m 25
 152 303 l 25
 303 303 l 25
 303 228 l 25
 152 228 l 25
152 114 m 25
 152 190 l 25
 303 190 l 25
 303 114 l 25
 152 114 l 25
76 0 m 25
 76 76 l 25
 379 76 l 25
 379 0 l 25
 76 0 l 25
EndSplineSet
EndChar

StartChar: Iacute
Encoding: 205 205 129
Width: 455
VWidth: 0
Flags: W
HStem: 0 76<76 379> 114 76<152 303> 228 75<152 303> 341 76<152 303> 455 76<152 303> 569 76<76 379> 796 76<152 341> 910 76<265 455>
VStem: 152 151<114 190 228 303 341 417 455 531>
LayerCount: 2
Fore
SplineSet
455 910 m 29
 265 910 l 29
 265 986 l 29
 455 986 l 29
 455 910 l 29
152 796 m 29
 152 872 l 29
 341 872 l 29
 341 796 l 29
 152 796 l 29
76 569 m 25
 76 645 l 25
 379 645 l 25
 379 569 l 25
 76 569 l 25
152 455 m 25
 152 531 l 25
 303 531 l 25
 303 455 l 25
 152 455 l 25
152 341 m 25
 152 417 l 25
 303 417 l 25
 303 341 l 25
 152 341 l 25
152 228 m 25
 152 303 l 25
 303 303 l 25
 303 228 l 25
 152 228 l 25
152 114 m 25
 152 190 l 25
 303 190 l 25
 303 114 l 25
 152 114 l 25
76 0 m 25
 76 76 l 25
 379 76 l 25
 379 0 l 25
 76 0 l 25
EndSplineSet
EndChar

StartChar: Icircumflex
Encoding: 206 206 130
Width: 455
VWidth: 0
Flags: W
HStem: 0 76<76 379> 114 76<152 303> 228 75<152 303> 341 76<152 303> 455 76<152 303> 569 76<76 379> 796 76<0 152 303 455> 910 76<114 341>
VStem: 0 152<796 872> 152 151<114 190 228 303 341 417 455 531> 303 152<796 872>
LayerCount: 2
Fore
SplineSet
303 872 m 29xff20
 455 872 l 29
 455 796 l 29
 303 796 l 29
 303 872 l 29xff20
152 872 m 29xff80
 152 796 l 29
 0 796 l 29
 0 872 l 29
 152 872 l 29xff80
114 910 m 29
 114 986 l 29
 341 986 l 29
 341 910 l 29
 114 910 l 29
76 569 m 25
 76 645 l 25
 379 645 l 25
 379 569 l 25
 76 569 l 25
152 455 m 25xff40
 152 531 l 25
 303 531 l 25
 303 455 l 25
 152 455 l 25xff40
152 341 m 25
 152 417 l 25
 303 417 l 25
 303 341 l 25
 152 341 l 25
152 228 m 25
 152 303 l 25
 303 303 l 25
 303 228 l 25
 152 228 l 25
152 114 m 25
 152 190 l 25
 303 190 l 25
 303 114 l 25
 152 114 l 25
76 0 m 25
 76 76 l 25
 379 76 l 25
 379 0 l 25
 76 0 l 25
EndSplineSet
EndChar

StartChar: Edieresis
Encoding: 203 203 131
Width: 682
VWidth: 0
Flags: W
HStem: 0 76<76 607> 114 76<76 228> 228 75<76 228> 341 76<76 493> 455 76<76 228> 569 76<76 228> 683 76<76 607> 910 76<114 265 417 569>
VStem: 76 152<114 190 228 303 455 531 569 645> 114 151<910 986> 417 152<910 986>
LayerCount: 2
Fore
SplineSet
417 986 m 29xff20
 569 986 l 29
 569 910 l 29
 417 910 l 29
 417 986 l 29xff20
265 986 m 29xff60
 265 910 l 29
 114 910 l 29
 114 986 l 29
 265 986 l 29xff60
EndSplineSet
Refer: 4 69 N 1 0 0 1 0 0 2
EndChar

StartChar: Egrave
Encoding: 200 200 132
Width: 682
VWidth: 0
Flags: W
HStem: 0 76<76 607> 114 76<76 228> 228 75<76 228> 341 76<76 493> 455 76<76 228> 569 76<76 607> 796 76<228 417> 910 76<114 303>
VStem: 76 152<114 190 228 303 455 531>
LayerCount: 2
Fore
SplineSet
303 910 m 29
 114 910 l 29
 114 986 l 29
 303 986 l 29
 303 910 l 29
228 796 m 29
 228 872 l 29
 417 872 l 29
 417 796 l 29
 228 796 l 29
76 569 m 25
 76 645 l 25
 607 645 l 25
 607 569 l 25
 76 569 l 25
76 455 m 25
 76 531 l 25
 228 531 l 25
 228 455 l 25
 76 455 l 25
76 341 m 25
 76 417 l 25
 493 417 l 25
 493 341 l 25
 76 341 l 25
76 228 m 25
 76 303 l 25
 228 303 l 25
 228 228 l 25
 76 228 l 25
76 114 m 25
 76 190 l 25
 228 190 l 25
 228 114 l 25
 76 114 l 25
76 0 m 25
 76 76 l 25
 607 76 l 25
 607 0 l 25
 76 0 l 25
EndSplineSet
EndChar

StartChar: Eacute
Encoding: 201 201 133
Width: 682
VWidth: 0
Flags: W
HStem: 0 76<76 607> 114 76<76 228> 228 75<76 228> 341 76<76 493> 455 76<76 228> 569 76<76 607> 796 76<265 455> 910 76<379 569>
VStem: 76 152<114 190 228 303 455 531>
LayerCount: 2
Fore
SplineSet
569 910 m 29
 379 910 l 29
 379 986 l 29
 569 986 l 29
 569 910 l 29
265 796 m 29
 265 872 l 29
 455 872 l 29
 455 796 l 29
 265 796 l 29
76 569 m 25
 76 645 l 25
 607 645 l 25
 607 569 l 25
 76 569 l 25
76 455 m 25
 76 531 l 25
 228 531 l 25
 228 455 l 25
 76 455 l 25
76 341 m 25
 76 417 l 25
 493 417 l 25
 493 341 l 25
 76 341 l 25
76 228 m 25
 76 303 l 25
 228 303 l 25
 228 228 l 25
 76 228 l 25
76 114 m 25
 76 190 l 25
 228 190 l 25
 228 114 l 25
 76 114 l 25
76 0 m 25
 76 76 l 25
 607 76 l 25
 607 0 l 25
 76 0 l 25
EndSplineSet
EndChar

StartChar: Ecircumflex
Encoding: 202 202 134
Width: 682
VWidth: 0
Flags: W
HStem: 0 76<76 607> 114 76<76 228> 228 75<76 228> 341 76<76 493> 455 76<76 228> 569 76<76 607> 796 76<114 265 417 569> 910 76<228 455>
VStem: 76 152<114 190 228 303 455 531> 114 151<796 872> 417 152<796 872>
LayerCount: 2
Fore
SplineSet
417 872 m 29xff20
 569 872 l 29
 569 796 l 29
 417 796 l 29
 417 872 l 29xff20
265 872 m 29xff60
 265 796 l 29
 114 796 l 29
 114 872 l 29
 265 872 l 29xff60
228 910 m 29xffa0
 228 986 l 29
 455 986 l 29
 455 910 l 29
 228 910 l 29xffa0
76 569 m 25
 76 645 l 25
 607 645 l 25
 607 569 l 25
 76 569 l 25
76 455 m 25
 76 531 l 25
 228 531 l 25
 228 455 l 25
 76 455 l 25
76 341 m 25
 76 417 l 25
 493 417 l 25
 493 341 l 25
 76 341 l 25
76 228 m 25
 76 303 l 25
 228 303 l 25
 228 228 l 25
 76 228 l 25
76 114 m 25
 76 190 l 25
 228 190 l 25
 228 114 l 25
 76 114 l 25
76 0 m 25
 76 76 l 25
 607 76 l 25
 607 0 l 25
 76 0 l 25
EndSplineSet
EndChar

StartChar: Udieresis
Encoding: 220 220 135
Width: 758
VWidth: 0
Flags: W
HStem: 0 76<228 531> 114 76<114 265 493 645> 228 75<76 228 531 683> 341 76<76 228 531 683> 455 76<76 228 531 683> 569 76<76 228 531 683> 683 76<76 228 531 683> 910 76<152 303 455 607>
VStem: 76 152<228 303 341 417 455 531 569 645 683 759> 114 151<114 190> 152 151<910 986> 455 152<910 986> 493 152<114 190> 531 152<228 303 341 417 455 531 569 645 683 759>
LayerCount: 2
Fore
SplineSet
455 986 m 29xff10
 607 986 l 29
 607 910 l 29
 455 910 l 29
 455 986 l 29xff10
303 986 m 29xff20
 303 910 l 29
 152 910 l 29
 152 986 l 29
 303 986 l 29xff20
EndSplineSet
Refer: 15 85 N 1 0 0 1 0 0 2
EndChar

StartChar: Ugrave
Encoding: 217 217 136
Width: 758
VWidth: 0
Flags: W
HStem: 0 76<228 531> 114 76<114 265 493 645> 228 75<76 228 531 683> 341 76<76 228 531 683> 455 76<76 228 531 683> 569 76<76 228 531 683> 796 76<265 455> 910 76<152 341>
VStem: 76 152<228 303 341 417 455 531 569 645> 114 151<114 190> 493 152<114 190> 531 152<228 303 341 417 455 531 569 645>
LayerCount: 2
Fore
SplineSet
341 910 m 29xff
 152 910 l 29
 152 986 l 29
 341 986 l 29
 341 910 l 29xff
265 796 m 29xff40
 265 872 l 29
 455 872 l 29
 455 796 l 29
 265 796 l 29xff40
531 569 m 25xff10
 531 645 l 25
 683 645 l 25
 683 569 l 25
 531 569 l 25xff10
531 455 m 25
 531 531 l 25
 683 531 l 25
 683 455 l 25
 531 455 l 25
531 341 m 25
 531 417 l 25
 683 417 l 25
 683 341 l 25
 531 341 l 25
531 228 m 25
 531 303 l 25
 683 303 l 25
 683 228 l 25
 531 228 l 25
493 114 m 25xff20
 493 190 l 25
 645 190 l 25
 645 114 l 25
 493 114 l 25xff20
76 569 m 25xff80
 76 645 l 25
 228 645 l 25
 228 569 l 25
 76 569 l 25xff80
76 455 m 25
 76 531 l 25
 228 531 l 25
 228 455 l 25
 76 455 l 25
76 341 m 25
 76 417 l 25
 228 417 l 25
 228 341 l 25
 76 341 l 25
76 228 m 25
 76 303 l 25
 228 303 l 25
 228 228 l 25
 76 228 l 25
114 114 m 25xff40
 114 190 l 25
 265 190 l 25
 265 114 l 25
 114 114 l 25xff40
228 0 m 25xff90
 228 76 l 25
 531 76 l 25
 531 0 l 25
 228 0 l 25xff90
EndSplineSet
EndChar

StartChar: Uacute
Encoding: 218 218 137
Width: 758
VWidth: 0
Flags: W
HStem: 0 76<228 531> 114 76<114 265 493 645> 228 75<76 228 531 683> 341 76<76 228 531 683> 455 76<76 228 531 683> 569 76<76 228 531 683> 796 76<303 493> 910 76<417 607>
VStem: 76 152<228 303 341 417 455 531 569 645> 114 151<114 190> 493 152<114 190> 531 152<228 303 341 417 455 531 569 645>
LayerCount: 2
Fore
SplineSet
607 910 m 29xff
 417 910 l 29
 417 986 l 29
 607 986 l 29
 607 910 l 29xff
303 796 m 29
 303 872 l 29
 493 872 l 29
 493 796 l 29xff20
 303 796 l 29
531 569 m 25xff10
 531 645 l 25
 683 645 l 25
 683 569 l 25
 531 569 l 25xff10
531 455 m 25
 531 531 l 25
 683 531 l 25
 683 455 l 25
 531 455 l 25
531 341 m 25
 531 417 l 25
 683 417 l 25
 683 341 l 25
 531 341 l 25
531 228 m 25
 531 303 l 25
 683 303 l 25
 683 228 l 25
 531 228 l 25
493 114 m 25xff20
 493 190 l 25
 645 190 l 25
 645 114 l 25
 493 114 l 25xff20
76 569 m 25xff80
 76 645 l 25
 228 645 l 25
 228 569 l 25
 76 569 l 25xff80
76 455 m 25
 76 531 l 25
 228 531 l 25
 228 455 l 25
 76 455 l 25
76 341 m 25
 76 417 l 25
 228 417 l 25
 228 341 l 25
 76 341 l 25
76 228 m 25
 76 303 l 25
 228 303 l 25
 228 228 l 25
 76 228 l 25
114 114 m 25xff40
 114 190 l 25
 265 190 l 25
 265 114 l 25
 114 114 l 25xff40
228 0 m 25xff90
 228 76 l 25
 531 76 l 25
 531 0 l 25
 228 0 l 25xff90
EndSplineSet
EndChar

StartChar: Ucircumflex
Encoding: 219 219 138
Width: 758
VWidth: 0
Flags: W
HStem: 0 76<228 531> 114 76<114 265 493 645> 228 75<76 228 531 683> 341 76<76 228 531 683> 455 76<76 228 531 683> 569 76<76 228 531 683> 796 76<152 303 455 607> 910 76<265 493>
VStem: 76 152<228 303 341 417 455 531 569 645> 114 151<114 190> 152 151<796 872> 455 152<796 872> 493 152<114 190> 531 152<228 303 341 417 455 531 569 645>
LayerCount: 2
Fore
SplineSet
455 872 m 29xff10
 607 872 l 29
 607 796 l 29
 455 796 l 29
 455 872 l 29xff10
303 872 m 29xff20
 303 796 l 29
 152 796 l 29
 152 872 l 29
 303 872 l 29xff20
265 910 m 29xff48
 265 986 l 29
 493 986 l 29
 493 910 l 29
 265 910 l 29xff48
531 569 m 25xff04
 531 645 l 25
 683 645 l 25
 683 569 l 25
 531 569 l 25xff04
531 455 m 25
 531 531 l 25
 683 531 l 25
 683 455 l 25
 531 455 l 25
531 341 m 25
 531 417 l 25
 683 417 l 25
 683 341 l 25
 531 341 l 25
531 228 m 25
 531 303 l 25
 683 303 l 25
 683 228 l 25
 531 228 l 25
493 114 m 25xff08
 493 190 l 25
 645 190 l 25
 645 114 l 25
 493 114 l 25xff08
76 569 m 25xff80
 76 645 l 25
 228 645 l 25
 228 569 l 25
 76 569 l 25xff80
76 455 m 25
 76 531 l 25
 228 531 l 25
 228 455 l 25
 76 455 l 25
76 341 m 25
 76 417 l 25
 228 417 l 25
 228 341 l 25
 76 341 l 25
76 228 m 25
 76 303 l 25
 228 303 l 25
 228 228 l 25
 76 228 l 25
114 114 m 25xff40
 114 190 l 25
 265 190 l 25
 265 114 l 25
 114 114 l 25xff40
228 0 m 25xff84
 228 76 l 25
 531 76 l 25
 531 0 l 25
 228 0 l 25xff84
EndSplineSet
EndChar

StartChar: paragraph
Encoding: 182 182 139
Width: 758
VWidth: 0
Flags: W
HStem: 0 76<303 455 531 683> 114 76<303 455 531 683> 228 75<303 455 531 683> 341 76<152 455 531 683> 455 76<76 455 531 683> 569 76<76 455 531 683> 683 76<152 683>
VStem: 303 152<0 76 114 190 228 303> 531 152<0 76 114 190 228 303 341 417 455 531 569 645>
LayerCount: 2
Fore
SplineSet
683 341 m 25
 531 341 l 25
 531 417 l 25
 683 417 l 25
 683 341 l 25
683 228 m 25
 531 228 l 25
 531 303 l 25
 683 303 l 25
 683 228 l 25
683 114 m 25
 531 114 l 25
 531 190 l 25
 683 190 l 25
 683 114 l 25
531 0 m 25
 531 76 l 25
 683 76 l 25
 683 0 l 25
 531 0 l 25
683 683 m 25
 152 683 l 25
 152 759 l 25
 683 759 l 25
 683 683 l 25
531 569 m 25
 531 645 l 25
 683 645 l 25
 683 569 l 25
 531 569 l 25
531 455 m 25
 531 531 l 25
 683 531 l 25
 683 455 l 25
 531 455 l 25
76 569 m 25
 76 645 l 25
 455 645 l 25
 455 569 l 25
 76 569 l 25
76 455 m 25
 76 531 l 25
 455 531 l 25
 455 455 l 25
 76 455 l 25
152 341 m 25
 152 417 l 25
 455 417 l 25
 455 341 l 25
 152 341 l 25
455 228 m 25
 303 228 l 25
 303 303 l 25
 455 303 l 25
 455 228 l 25
455 114 m 25
 303 114 l 25
 303 190 l 25
 455 190 l 25
 455 114 l 25
303 0 m 25
 303 76 l 25
 455 76 l 25
 455 0 l 25
 303 0 l 25
EndSplineSet
EndChar

StartChar: periodcentered
Encoding: 183 183 140
Width: 379
VWidth: 0
Flags: W
HStem: 228 75<76 303> 341 76<76 303>
VStem: 76 227<228 303 341 417>
LayerCount: 2
Fore
SplineSet
303 341 m 29
 76 341 l 29
 76 417 l 29
 303 417 l 29
 303 341 l 29
76 228 m 29
 76 303 l 29
 303 303 l 29
 303 228 l 29
 76 228 l 29
EndSplineSet
EndChar

StartChar: yen
Encoding: 165 165 141
Width: 758
VWidth: 0
Flags: W
HStem: 0 76<303 455> 114 76<76 683> 228 75<303 455> 341 76<76 683> 455 76<228 531> 569 76<152 303 455 607> 683 76<76 228 531 683>
VStem: 76 152<683 759> 152 151<569 645> 303 152<0 76 228 303> 455 152<569 645> 531 152<683 759>
LayerCount: 2
Fore
SplineSet
303 228 m 25xfe40
 303 303 l 25
 455 303 l 25
 455 228 l 25
 303 228 l 25xfe40
683 683 m 25xfe10
 531 683 l 25
 531 759 l 25
 683 759 l 25
 683 683 l 25xfe10
607 569 m 25xfe20
 455 569 l 25
 455 645 l 25
 607 645 l 25
 607 569 l 25xfe20
76 683 m 25xff
 76 759 l 25
 228 759 l 25
 228 683 l 25
 76 683 l 25xff
152 569 m 25xfe80
 152 645 l 25
 303 645 l 25
 303 569 l 25
 152 569 l 25xfe80
228 455 m 25xff10
 228 531 l 25
 531 531 l 25
 531 455 l 25
 228 455 l 25xff10
76 341 m 29
 76 417 l 29
 683 417 l 25
 683 341 l 25
 76 341 l 29
76 114 m 29
 76 190 l 29
 683 190 l 25
 683 114 l 25
 76 114 l 29
303 0 m 25xfe40
 303 76 l 25
 455 76 l 25
 455 0 l 25
 303 0 l 25xfe40
EndSplineSet
EndChar

StartChar: cent
Encoding: 162 162 142
Width: 758
VWidth: 0
Flags: W
HStem: -114 76<303 455> 0 76<303 455> 114 76<152 607> 228 75<76 228 303 455 531 683> 341 76<76 228 303 455> 455 76<76 228 303 455 531 683> 569 76<152 607> 683 76<303 455> 796 76<303 455>
VStem: 76 152<228 303 341 417 455 531> 303 152<-114 -38 0 76 228 303 341 417 455 531 683 759 796 872> 531 152<228 303 455 531>
LayerCount: 2
Fore
SplineSet
303 0 m 29
 303 76 l 29
 455 76 l 29
 455 0 l 29
 303 0 l 29
303 -114 m 29
 303 -38 l 29
 455 -38 l 29
 455 -114 l 29
 303 -114 l 29
303 796 m 29
 303 872 l 29
 455 872 l 29
 455 796 l 29
 303 796 l 29
303 683 m 29
 303 759 l 29
 455 759 l 29
 455 683 l 29
 303 683 l 29
303 228 m 29
 303 303 l 29
 455 303 l 29
 455 228 l 29
 303 228 l 29
303 341 m 29
 303 417 l 29
 455 417 l 29
 455 341 l 29
 303 341 l 29
303 455 m 29
 303 531 l 29
 455 531 l 29
 455 455 l 29
 303 455 l 29
607 569 m 29
 152 569 l 29
 152 645 l 29
 607 645 l 29
 607 569 l 29
531 455 m 29
 531 531 l 29
 683 531 l 29
 683 455 l 29
 531 455 l 29
531 228 m 29
 531 303 l 29
 683 303 l 29
 683 228 l 29
 531 228 l 29
228 455 m 29
 76 455 l 29
 76 531 l 29
 228 531 l 29
 228 455 l 29
228 341 m 29
 76 341 l 29
 76 417 l 29
 228 417 l 29
 228 341 l 29
228 228 m 29
 76 228 l 29
 76 303 l 29
 228 303 l 29
 228 228 l 29
152 114 m 29
 152 190 l 29
 607 190 l 29
 607 114 l 29
 152 114 l 29
EndSplineSet
EndChar

StartChar: AE
Encoding: 198 198 143
Width: 986
VWidth: 0
Flags: W
HStem: 0 76<76 228 455 910> 114 76<76 228 455 607> 228 75<76 228 455 607> 341 76<76 834> 455 76<76 228 455 607> 569 76<114 265 455 607> 683 76<190 910>
VStem: 76 152<0 76 114 190 228 303 455 531> 114 151<569 645> 455 152<114 190 228 303 455 531 569 645>
LayerCount: 2
Fore
SplineSet
455 228 m 25xfe40
 455 303 l 25
 607 303 l 25
 607 228 l 25
 455 228 l 25xfe40
455 114 m 25
 455 190 l 25
 607 190 l 25
 607 114 l 25
 455 114 l 25
455 0 m 25
 455 76 l 25
 910 76 l 25
 910 0 l 25
 455 0 l 25
455 455 m 25
 455 531 l 25
 607 531 l 25
 607 455 l 25
 455 455 l 25
607 645 m 25
 607 569 l 25
 455 569 l 25
 455 645 l 25
 607 645 l 25
190 683 m 25
 190 759 l 25
 910 759 l 25
 910 683 l 25
 190 683 l 25
114 569 m 25xfec0
 114 645 l 25
 265 645 l 25
 265 569 l 25
 114 569 l 25xfec0
76 455 m 25xff40
 76 531 l 25
 228 531 l 25
 228 455 l 25
 76 455 l 25xff40
76 341 m 25
 76 417 l 25
 834 417 l 25
 834 341 l 25
 76 341 l 25
76 228 m 25
 76 303 l 25
 228 303 l 25
 228 228 l 25
 76 228 l 25
76 114 m 25
 76 190 l 25
 228 190 l 25
 228 114 l 25
 76 114 l 25
76 0 m 25
 76 76 l 25
 228 76 l 25
 228 0 l 25
 76 0 l 25
EndSplineSet
EndChar

StartChar: divide
Encoding: 247 247 144
Width: 682
VWidth: 0
Flags: W
HStem: 114 76<265 417> 341 76<76 607> 569 76<265 417>
VStem: 265 152<114 190 569 645>
LayerCount: 2
Fore
SplineSet
265 569 m 29
 265 645 l 25
 417 645 l 25
 417 569 l 25
 265 569 l 29
265 190 m 25
 417 190 l 25
 417 114 l 25
 265 114 l 25
 265 190 l 25
76 341 m 25
 76 417 l 25
 607 417 l 25
 607 341 l 25
 76 341 l 25
EndSplineSet
EndChar

StartChar: Ntilde
Encoding: 209 209 146
Width: 758
VWidth: 0
Flags: W
HStem: 0 76<76 228 531 683> 114 76<76 228 455 683> 228 75<76 228 341 683> 341 76<76 417 531 683> 455 76<76 303 531 683> 569 76<76 228 531 683> 796 76<114 228 341 569> 910 76<190 417 531 645>
VStem: 76 152<0 76 114 190 228 303 569 645> 114 114<796 872> 531 152<0 76 341 417 455 531 569 645> 531 114<910 986>
LayerCount: 2
Fore
SplineSet
341 872 m 29xff
 569 872 l 29
 569 796 l 29
 341 796 l 29
 341 872 l 29xff
417 910 m 29
 190 910 l 29
 190 986 l 29
 417 986 l 29
 417 910 l 29
645 910 m 29xff10
 531 910 l 29
 531 986 l 29
 645 986 l 29
 645 910 l 29xff10
114 872 m 29xff40
 228 872 l 29
 228 796 l 29
 114 796 l 29
 114 872 l 29xff40
531 76 m 25xff20
 683 76 l 25
 683 0 l 25
 531 0 l 25
 531 76 l 25xff20
455 190 m 25
 683 190 l 25
 683 114 l 25
 455 114 l 25
 455 190 l 25
341 303 m 25
 683 303 l 25
 683 228 l 25
 341 228 l 25
 341 303 l 25
531 417 m 25
 683 417 l 25
 683 341 l 25
 531 341 l 25
 531 417 l 25
531 531 m 25
 683 531 l 25
 683 455 l 25
 531 455 l 25
 531 531 l 25
531 645 m 25
 683 645 l 25
 683 569 l 25
 531 569 l 25
 531 645 l 25
76 190 m 25xff80
 228 190 l 25
 228 114 l 25
 76 114 l 25
 76 190 l 25xff80
76 303 m 25
 228 303 l 25
 228 228 l 25
 76 228 l 25
 76 303 l 25
76 417 m 25
 417 417 l 25
 417 341 l 25
 76 341 l 25
 76 417 l 25
76 531 m 25
 303 531 l 25
 303 455 l 25
 76 455 l 25
 76 531 l 25
76 645 m 25
 228 645 l 25
 228 569 l 25
 76 569 l 25
 76 645 l 25
76 0 m 25
 76 76 l 25
 228 76 l 25
 228 0 l 25
 76 0 l 25
EndSplineSet
EndChar

StartChar: agrave
Encoding: 224 224 147
Width: 682
VWidth: 0
Flags: W
HStem: 0 76<152 607> 114 76<76 228 455 607> 228 75<152 607> 341 76<455 607> 455 76<190 493> 683 76<228 417> 796 76<114 303>
VStem: 76 152<114 190> 455 152<114 190 341 417>
LayerCount: 2
Fore
SplineSet
303 796 m 29
 114 796 l 29
 114 872 l 29
 303 872 l 29
 303 796 l 29
228 683 m 29
 228 759 l 29
 417 759 l 29
 417 683 l 29
 228 683 l 29
EndSplineSet
Refer: 23 97 N 1 0 0 1 0 0 2
EndChar

StartChar: aacute
Encoding: 225 225 148
Width: 682
VWidth: 0
Flags: W
HStem: 0 76<152 607> 114 76<76 228 455 607> 228 75<152 607> 341 76<455 607> 455 76<190 493> 683 76<265 455> 796 76<379 569>
VStem: 76 152<114 190> 455 152<114 190 341 417>
LayerCount: 2
Fore
SplineSet
569 796 m 29
 379 796 l 29
 379 872 l 29
 569 872 l 29
 569 796 l 29
265 683 m 29
 265 759 l 29
 455 759 l 29
 455 683 l 29
 265 683 l 29
EndSplineSet
Refer: 23 97 N 1 0 0 1 0 0 2
EndChar

StartChar: acircumflex
Encoding: 226 226 149
Width: 682
VWidth: 0
Flags: W
HStem: 0 76<152 607> 114 76<76 228 455 607> 228 75<152 607> 341 76<455 607> 455 76<190 493> 683 76<114 265 417 569> 796 76<228 455>
VStem: 76 152<114 190> 114 151<683 759> 417 152<683 759> 455 152<114 190 341 417>
LayerCount: 2
Fore
SplineSet
417 759 m 29xfe40
 569 759 l 29
 569 683 l 29
 417 683 l 29
 417 759 l 29xfe40
265 759 m 29xfe80
 265 683 l 29
 114 683 l 29
 114 759 l 29
 265 759 l 29xfe80
228 796 m 29xff20
 228 872 l 29
 455 872 l 29
 455 796 l 29
 228 796 l 29xff20
EndSplineSet
Refer: 23 97 N 1 0 0 1 0 0 2
EndChar

StartChar: atilde
Encoding: 227 227 150
Width: 682
VWidth: 0
Flags: W
HStem: 0 76<152 607> 114 76<76 228 455 607> 228 75<152 607> 341 76<455 607> 455 76<190 493> 683 76<76 190 303 531> 796 76<152 379 493 607>
VStem: 76 114<683 759> 76 152<114 190> 455 152<114 190 341 417> 493 114<796 872>
LayerCount: 2
Fore
SplineSet
303 759 m 29xfe
 531 759 l 29
 531 683 l 29
 303 683 l 29
 303 759 l 29xfe
379 796 m 29
 152 796 l 29
 152 872 l 29
 379 872 l 29
 379 796 l 29
607 796 m 29xfe20
 493 796 l 29
 493 872 l 29
 607 872 l 29
 607 796 l 29xfe20
76 759 m 29xff
 190 759 l 29
 190 683 l 29
 76 683 l 29
 76 759 l 29xff
EndSplineSet
Refer: 23 97 N 1 0 0 1 0 0 2
EndChar

StartChar: adieresis
Encoding: 228 228 151
Width: 682
VWidth: 0
Flags: W
HStem: 0 76<152 607> 114 76<76 228 455 607> 228 75<152 607> 341 76<455 607> 455 76<190 493> 683 76<114 265 417 569>
VStem: 76 152<114 190> 114 151<683 759> 417 152<683 759> 455 152<114 190 341 417>
LayerCount: 2
Fore
SplineSet
417 759 m 29xfc80
 569 759 l 29
 569 683 l 29
 417 683 l 29
 417 759 l 29xfc80
265 759 m 29xfd
 265 683 l 29
 114 683 l 29
 114 759 l 29
 265 759 l 29xfd
EndSplineSet
Refer: 23 97 N 1 0 0 1 0 0 2
EndChar

StartChar: aring
Encoding: 229 229 152
Width: 682
VWidth: 0
Flags: W
HStem: 0 76<152 607> 114 76<76 228 455 607> 228 75<152 607> 341 76<455 607> 455 76<190 493> 683 76<190 493> 796 76<114 265 417 569> 910 76<190 493>
VStem: 76 152<114 190> 114 151<796 872> 417 152<796 872> 455 152<114 190 341 417>
LayerCount: 2
Fore
SplineSet
190 683 m 29xff
 190 759 l 29
 493 759 l 29
 493 683 l 29
 190 683 l 29xff
417 872 m 29xff20
 569 872 l 29
 569 796 l 29
 417 796 l 29
 417 872 l 29xff20
265 872 m 29xff40
 265 796 l 29
 114 796 l 29
 114 872 l 29
 265 872 l 29xff40
190 910 m 29
 190 986 l 29
 493 986 l 29
 493 910 l 29
 190 910 l 29
EndSplineSet
Refer: 23 97 N 1 0 0 1 0 0 2
EndChar

StartChar: Adieresis
Encoding: 196 196 153
Width: 758
VWidth: 0
Flags: W
HStem: 0 76<76 228 531 683> 114 76<76 228 531 683> 228 75<76 228 531 683> 341 76<76 683> 455 76<76 228 531 683> 569 76<114 265 493 645> 683 76<190 569> 910 76<152 303 455 607>
VStem: 76 152<0 76 114 190 228 303 455 531> 114 151<569 645> 152 151<910 986> 455 152<910 986> 493 152<569 645> 531 152<0 76 114 190 228 303 455 531>
LayerCount: 2
Fore
SplineSet
455 986 m 29xff10
 607 986 l 29
 607 910 l 29
 455 910 l 29
 455 986 l 29xff10
303 986 m 29xff20
 303 910 l 29
 152 910 l 29
 152 986 l 29
 303 986 l 29xff20
EndSplineSet
Refer: 21 65 N 1 0 0 1 0 0 2
EndChar

StartChar: Aring
Encoding: 197 197 154
Width: 758
VWidth: 0
Flags: W
HStem: 0 76<76 228 531 683> 114 76<76 228 531 683> 228 75<76 683> 341 76<76 228 531 683> 455 76<114 265 493 645> 569 76<190 569> 683 76<228 531> 796 76<152 303 455 607> 910 76<228 531>
VStem: 76 152<0 76 114 190 341 417> 114 151<455 531> 152 151<796 872> 455 152<796 872> 493 152<455 531> 531 152<0 76 114 190 341 417>
LayerCount: 2
Fore
SplineSet
228 683 m 25xffc2
 228 759 l 25
 531 759 l 25
 531 683 l 25
 228 683 l 25xffc2
455 872 m 25xff88
 607 872 l 25
 607 796 l 25
 455 796 l 25
 455 872 l 25xff88
303 872 m 25xff90
 303 796 l 25
 152 796 l 25
 152 872 l 25
 303 872 l 25xff90
228 910 m 25xffc2
 228 986 l 25
 531 986 l 25
 531 910 l 25
 228 910 l 25xffc2
531 114 m 25
 531 190 l 25
 683 190 l 25
 683 114 l 25
 531 114 l 25
531 0 m 25
 531 76 l 25
 683 76 l 25
 683 0 l 25
 531 0 l 25
531 341 m 25
 531 417 l 25
 683 417 l 25
 683 341 l 25
 531 341 l 25
645 531 m 25xff84
 645 455 l 25
 493 455 l 25
 493 531 l 25
 645 531 l 25xff84
190 569 m 25
 190 645 l 25
 569 645 l 25
 569 569 l 25
 190 569 l 25
114 455 m 25xffa0
 114 531 l 25
 265 531 l 25
 265 455 l 25
 114 455 l 25xffa0
76 341 m 25xffc0
 76 417 l 25
 228 417 l 25
 228 341 l 25
 76 341 l 25xffc0
76 228 m 25
 76 303 l 25
 683 303 l 25
 683 228 l 25xffc2
 76 228 l 25
76 114 m 25
 76 190 l 25
 228 190 l 25
 228 114 l 25
 76 114 l 25
76 0 m 25
 76 76 l 25
 228 76 l 25
 228 0 l 25
 76 0 l 25
EndSplineSet
EndChar

StartChar: Agrave
Encoding: 192 192 155
Width: 758
VWidth: 0
Flags: W
HStem: 0 76<76 228 531 683> 114 76<76 228 531 683> 228 75<76 683> 341 76<76 228 531 683> 455 76<114 265 493 645> 569 76<190 569> 796 76<265 455> 910 76<152 341>
VStem: 76 152<0 76 114 190 341 417> 114 151<455 531> 493 152<455 531> 531 152<0 76 114 190 341 417>
LayerCount: 2
Fore
SplineSet
341 910 m 29xff
 152 910 l 29
 152 986 l 29
 341 986 l 29
 341 910 l 29xff
265 796 m 29xff40
 265 872 l 29
 455 872 l 29
 455 796 l 29
 265 796 l 29xff40
531 114 m 25xff10
 531 190 l 25
 683 190 l 25
 683 114 l 25
 531 114 l 25xff10
531 0 m 25
 531 76 l 25
 683 76 l 25
 683 0 l 25
 531 0 l 25
531 341 m 25
 531 417 l 25
 683 417 l 25
 683 341 l 25
 531 341 l 25
645 531 m 25xff20
 645 455 l 25
 493 455 l 25
 493 531 l 25
 645 531 l 25xff20
190 569 m 25
 190 645 l 25
 569 645 l 25
 569 569 l 25
 190 569 l 25
114 455 m 25xff40
 114 531 l 25
 265 531 l 25
 265 455 l 25
 114 455 l 25xff40
76 341 m 25xff80
 76 417 l 25
 228 417 l 25
 228 341 l 25
 76 341 l 25xff80
76 228 m 25
 76 303 l 25
 683 303 l 25
 683 228 l 25xff90
 76 228 l 25
76 114 m 25
 76 190 l 25
 228 190 l 25
 228 114 l 25
 76 114 l 25
76 0 m 25
 76 76 l 25
 228 76 l 25
 228 0 l 25
 76 0 l 25
EndSplineSet
EndChar

StartChar: Aacute
Encoding: 193 193 156
Width: 758
VWidth: 0
Flags: W
HStem: 0 76<76 228 531 683> 114 76<76 228 531 683> 228 75<76 683> 341 76<76 228 531 683> 455 76<114 265 493 645> 569 76<190 569> 796 76<303 493> 910 76<417 607>
VStem: 76 152<0 76 114 190 341 417> 114 151<455 531> 493 152<455 531> 531 152<0 76 114 190 341 417>
LayerCount: 2
Fore
SplineSet
607 910 m 29xff
 417 910 l 29
 417 986 l 29
 607 986 l 29
 607 910 l 29xff
303 796 m 29
 303 872 l 29
 493 872 l 29
 493 796 l 29xff20
 303 796 l 29
531 114 m 25xff10
 531 190 l 25
 683 190 l 25
 683 114 l 25
 531 114 l 25xff10
531 0 m 25
 531 76 l 25
 683 76 l 25
 683 0 l 25
 531 0 l 25
531 341 m 25
 531 417 l 25
 683 417 l 25
 683 341 l 25
 531 341 l 25
645 531 m 25xff20
 645 455 l 25
 493 455 l 25
 493 531 l 25
 645 531 l 25xff20
190 569 m 25
 190 645 l 25
 569 645 l 25
 569 569 l 25
 190 569 l 25
114 455 m 25xff40
 114 531 l 25
 265 531 l 25
 265 455 l 25
 114 455 l 25xff40
76 341 m 25xff80
 76 417 l 25
 228 417 l 25
 228 341 l 25
 76 341 l 25xff80
76 228 m 25
 76 303 l 25
 683 303 l 25
 683 228 l 25xff90
 76 228 l 25
76 114 m 25
 76 190 l 25
 228 190 l 25
 228 114 l 25
 76 114 l 25
76 0 m 25
 76 76 l 25
 228 76 l 25
 228 0 l 25
 76 0 l 25
EndSplineSet
EndChar

StartChar: Acircumflex
Encoding: 194 194 157
Width: 758
VWidth: 0
Flags: W
HStem: 0 76<76 228 531 683> 114 76<76 228 531 683> 228 75<76 683> 341 76<76 228 531 683> 455 76<114 265 493 645> 569 76<190 569> 796 76<152 303 455 607> 910 76<265 493>
VStem: 76 152<0 76 114 190 341 417> 114 151<455 531> 152 151<796 872> 455 152<796 872> 493 152<455 531> 531 152<0 76 114 190 341 417>
LayerCount: 2
Fore
SplineSet
455 872 m 29xff10
 607 872 l 29
 607 796 l 29
 455 796 l 29
 455 872 l 29xff10
303 872 m 29xff20
 303 796 l 29
 152 796 l 29
 152 872 l 29
 303 872 l 29xff20
265 910 m 29xff48
 265 986 l 29
 493 986 l 29
 493 910 l 29
 265 910 l 29xff48
531 114 m 25xff04
 531 190 l 25
 683 190 l 25
 683 114 l 25
 531 114 l 25xff04
531 0 m 25
 531 76 l 25
 683 76 l 25
 683 0 l 25
 531 0 l 25
531 341 m 25
 531 417 l 25
 683 417 l 25
 683 341 l 25
 531 341 l 25
645 531 m 25xff08
 645 455 l 25
 493 455 l 25
 493 531 l 25
 645 531 l 25xff08
190 569 m 25
 190 645 l 25
 569 645 l 25
 569 569 l 25
 190 569 l 25
114 455 m 25xff40
 114 531 l 25
 265 531 l 25
 265 455 l 25
 114 455 l 25xff40
76 341 m 25xff80
 76 417 l 25
 228 417 l 25
 228 341 l 25
 76 341 l 25xff80
76 228 m 25
 76 303 l 25
 683 303 l 25
 683 228 l 25xff84
 76 228 l 25
76 114 m 25
 76 190 l 25
 228 190 l 25
 228 114 l 25
 76 114 l 25
76 0 m 25
 76 76 l 25
 228 76 l 25
 228 0 l 25
 76 0 l 25
EndSplineSet
EndChar

StartChar: Atilde
Encoding: 195 195 158
Width: 758
VWidth: 0
Flags: W
HStem: 0 76<76 228 531 683> 114 76<76 228 531 683> 228 75<76 683> 341 76<76 228 531 683> 455 76<114 265 493 645> 569 76<190 569> 796 76<114 228 341 569> 910 76<190 417 531 645>
VStem: 76 152<0 76 114 190 341 417> 114 151<455 531> 114 114<796 872> 493 152<455 531> 531 152<0 76 114 190 341 417> 531 114<910 986>
LayerCount: 2
Fore
SplineSet
341 872 m 29xff
 569 872 l 29
 569 796 l 29
 341 796 l 29
 341 872 l 29xff
417 910 m 29
 190 910 l 29
 190 986 l 29
 417 986 l 29
 417 910 l 29
645 910 m 29xff04
 531 910 l 29
 531 986 l 29
 645 986 l 29
 645 910 l 29xff04
114 872 m 29xff20
 228 872 l 29
 228 796 l 29
 114 796 l 29
 114 872 l 29xff20
531 114 m 25xff08
 531 190 l 25
 683 190 l 25
 683 114 l 25
 531 114 l 25xff08
531 0 m 25
 531 76 l 25
 683 76 l 25
 683 0 l 25
 531 0 l 25
531 341 m 25
 531 417 l 25
 683 417 l 25
 683 341 l 25
 531 341 l 25
645 531 m 25xff10
 645 455 l 25
 493 455 l 25
 493 531 l 25
 645 531 l 25xff10
190 569 m 25
 190 645 l 25
 569 645 l 25
 569 569 l 25
 190 569 l 25
114 455 m 25xff40
 114 531 l 25
 265 531 l 25
 265 455 l 25
 114 455 l 25xff40
76 341 m 25xff80
 76 417 l 25
 228 417 l 25
 228 341 l 25
 76 341 l 25xff80
76 228 m 25
 76 303 l 25
 683 303 l 25
 683 228 l 25xff88
 76 228 l 25
76 114 m 25
 76 190 l 25
 228 190 l 25
 228 114 l 25
 76 114 l 25
76 0 m 25
 76 76 l 25
 228 76 l 25
 228 0 l 25
 76 0 l 25
EndSplineSet
EndChar

StartChar: ae
Encoding: 230 230 159
Width: 910
VWidth: 0
Flags: W
HStem: 0 76<152 417 493 759> 114 76<76 228 379 531> 228 75<152 834> 341 76<379 531 683 834> 455 76<190 417 493 759>
VStem: 76 152<114 190> 379 152<114 190 341 417> 683 151<341 417>
LayerCount: 2
Fore
SplineSet
759 455 m 25
 493 455 l 25
 493 531 l 25
 759 531 l 25
 759 455 l 25
683 341 m 25
 683 417 l 25
 834 417 l 25
 834 341 l 25
 683 341 l 25
493 0 m 25
 493 76 l 25
 759 76 l 25
 759 0 l 25
 493 0 l 25
417 455 m 25
 190 455 l 25
 190 531 l 25
 417 531 l 25
 417 455 l 25
531 341 m 25
 379 341 l 25
 379 417 l 25
 531 417 l 25
 531 341 l 25
152 228 m 25
 152 303 l 25
 834 303 l 25
 834 228 l 25
 152 228 l 25
228 114 m 25
 76 114 l 25
 76 190 l 25
 228 190 l 25
 228 114 l 25
531 114 m 25
 379 114 l 25
 379 190 l 25
 531 190 l 25
 531 114 l 25
417 0 m 25
 152 0 l 25
 152 76 l 25
 417 76 l 25
 417 0 l 25
EndSplineSet
EndChar

StartChar: germandbls
Encoding: 223 223 160
Width: 758
VWidth: 0
Flags: W
HStem: 0 76<76 228 379 607> 114 76<76 228 531 683> 228 75<76 228 455 607> 341 76<76 228 379 531> 455 76<76 228 455 607> 569 76<152 303 531 683> 683 76<228 607>
VStem: 76 152<0 76 114 190 228 303 341 417 455 531> 152 151<569 645> 379 152<341 417> 455 152<228 303 455 531> 531 152<114 190 569 645>
LayerCount: 2
Fore
SplineSet
76 0 m 25xff
 76 76 l 25
 228 76 l 25
 228 0 l 25
 76 0 l 25xff
76 341 m 25
 76 417 l 25
 228 417 l 25
 228 341 l 25
 76 341 l 25
379 0 m 25xfe40
 379 76 l 25xfe40
 607 76 l 29
 607 0 l 29xfe20
 379 0 l 25xfe40
228 683 m 25xff20
 228 759 l 25
 607 759 l 25
 607 683 l 25
 228 683 l 25xff20
531 569 m 25xfe10
 531 645 l 25
 683 645 l 25
 683 569 l 25
 531 569 l 25xfe10
455 455 m 25xfe20
 455 531 l 25
 607 531 l 25
 607 455 l 25
 455 455 l 25xfe20
379 341 m 25xfe40
 379 417 l 25
 531 417 l 25
 531 341 l 25
 379 341 l 25xfe40
455 228 m 25xfe20
 455 303 l 25
 607 303 l 25
 607 228 l 25
 455 228 l 25xfe20
531 114 m 25xfe10
 531 190 l 25
 683 190 l 25
 683 114 l 25
 531 114 l 25xfe10
152 569 m 25xfe80
 152 645 l 25
 303 645 l 25
 303 569 l 25
 152 569 l 25xfe80
76 455 m 25xff
 76 531 l 25
 228 531 l 25
 228 455 l 25
 76 455 l 25xff
76 228 m 25
 76 303 l 25
 228 303 l 25
 228 228 l 25
 76 228 l 25
76 114 m 25
 76 190 l 25
 228 190 l 25
 228 114 l 25
 76 114 l 25
EndSplineSet
EndChar

StartChar: Thorn
Encoding: 222 222 161
Width: 758
VWidth: 0
Flags: W
HStem: 0 76<76 228> 114 76<76 607> 228 75<76 228 531 683> 341 76<76 228 531 683> 455 76<76 228 531 683> 569 76<76 607> 683 76<76 228>
VStem: 76 152<0 76 228 303 341 417 455 531 683 759> 531 152<228 303 341 417 455 531>
LayerCount: 2
Fore
SplineSet
76 683 m 29
 76 759 l 29
 228 759 l 29
 228 683 l 29
 76 683 l 29
683 228 m 29
 531 228 l 29
 531 303 l 29
 683 303 l 29
 683 228 l 29
607 569 m 29
 76 569 l 29
 76 645 l 29
 607 645 l 29
 607 569 l 29
531 455 m 29
 531 531 l 29
 683 531 l 29
 683 455 l 29
 531 455 l 29
531 341 m 29
 531 417 l 29
 683 417 l 29
 683 341 l 29
 531 341 l 29
76 455 m 29
 76 531 l 29
 228 531 l 29
 228 455 l 29
 76 455 l 29
76 341 m 29
 76 417 l 29
 228 417 l 29
 228 341 l 29
 76 341 l 29
76 114 m 29
 76 190 l 29
 607 190 l 29
 607 114 l 29
 76 114 l 29
228 228 m 29
 76 228 l 29
 76 303 l 29
 228 303 l 29
 228 228 l 29
228 0 m 29
 76 0 l 29
 76 76 l 29
 228 76 l 29
 228 0 l 29
EndSplineSet
EndChar

StartChar: thorn
Encoding: 254 254 162
Width: 682
VWidth: 0
Flags: W
HStem: -228 76<76 228> -114 76<76 228> 0 76<76 531> 114 76<76 228 455 607> 228 75<76 228 455 607> 341 76<76 303 455 607> 455 76<76 228 303 531> 569 76<76 228> 683 76<76 228>
VStem: 76 152<-228 -152 -114 -38 114 190 228 303 455 531 569 645 683 759> 455 152<114 190 228 303 341 417>
LayerCount: 2
Fore
SplineSet
228 -228 m 29
 76 -228 l 29
 76 -152 l 29
 228 -152 l 29
 228 -228 l 29
228 -114 m 25
 76 -114 l 25
 76 -38 l 25
 228 -38 l 25
 228 -114 l 25
228 683 m 25
 76 683 l 25
 76 759 l 25
 228 759 l 25
 228 683 l 25
228 569 m 25
 76 569 l 25
 76 645 l 25
 228 645 l 25
 228 569 l 25
228 455 m 25
 76 455 l 25
 76 531 l 25
 228 531 l 25
 228 455 l 25
228 303 m 25
 228 228 l 25
 76 228 l 25
 76 303 l 25
 228 303 l 25
303 417 m 25
 303 341 l 25
 76 341 l 25
 76 417 l 25
 303 417 l 25
531 455 m 25
 303 455 l 25
 303 531 l 25
 531 531 l 25
 531 455 l 25
607 341 m 25
 455 341 l 25
 455 417 l 25
 607 417 l 25
 607 341 l 25
607 228 m 25
 455 228 l 25
 455 303 l 25
 607 303 l 25
 607 228 l 25
607 114 m 25
 455 114 l 25
 455 190 l 25
 607 190 l 25
 607 114 l 25
76 114 m 25
 76 190 l 25
 228 190 l 25
 228 114 l 25
 76 114 l 25
76 0 m 25
 76 76 l 25
 531 76 l 25
 531 0 l 25
 76 0 l 25
EndSplineSet
EndChar

StartChar: degree
Encoding: 176 176 163
Width: 606
VWidth: 0
Flags: W
HStem: 455 76<152 455> 569 76<76 228 379 531> 683 76<76 228 379 531> 796 76<152 455>
VStem: 76 152<569 645 683 759> 379 152<569 645 683 759>
LayerCount: 2
Fore
SplineSet
152 455 m 29
 152 531 l 29
 455 531 l 29
 455 455 l 29
 152 455 l 29
379 645 m 29
 531 645 l 29
 531 569 l 29
 379 569 l 29
 379 645 l 29
379 759 m 29
 531 759 l 29
 531 683 l 29
 379 683 l 29
 379 759 l 29
76 645 m 29
 228 645 l 29
 228 569 l 29
 76 569 l 29
 76 645 l 29
76 759 m 29
 228 759 l 29
 228 683 l 29
 76 683 l 29
 76 759 l 29
152 796 m 29
 152 872 l 29
 455 872 l 29
 455 796 l 29
 152 796 l 29
EndSplineSet
EndChar

StartChar: ordmasculine
Encoding: 186 186 164
Width: 606
VWidth: 0
Flags: W
HStem: 228 75<76 531> 455 76<152 455> 569 76<76 228 379 531> 683 76<76 228 379 531> 796 76<152 455>
VStem: 76 152<569 645 683 759> 379 152<569 645 683 759>
LayerCount: 2
Fore
SplineSet
76 303 m 29
 531 303 l 25
 531 228 l 25
 76 228 l 25
 76 303 l 29
152 455 m 25
 152 531 l 25
 455 531 l 25
 455 455 l 25
 152 455 l 25
379 645 m 25
 531 645 l 25
 531 569 l 25
 379 569 l 25
 379 645 l 25
379 759 m 25
 531 759 l 25
 531 683 l 25
 379 683 l 25
 379 759 l 25
76 645 m 25
 228 645 l 25
 228 569 l 25
 76 569 l 25
 76 645 l 25
76 759 m 25
 228 759 l 25
 228 683 l 25
 76 683 l 25
 76 759 l 25
152 796 m 25
 152 872 l 25
 455 872 l 25
 455 796 l 25
 152 796 l 25
EndSplineSet
EndChar

StartChar: ordfeminine
Encoding: 170 170 165
Width: 606
VWidth: 0
Flags: W
HStem: 228 75<76 531> 455 76<152 341 417 531> 569 76<76 228 341 531> 683 76<114 265 379 531> 796 76<228 531>
VStem: 76 152<569 645> 114 151<683 759> 379 152<683 759> 417 114<455 531>
LayerCount: 2
Fore
SplineSet
417 531 m 25xf880
 531 531 l 25
 531 455 l 25
 417 455 l 25
 417 531 l 25xf880
76 303 m 25xfc80
 531 303 l 25
 531 228 l 25
 76 228 l 25
 76 303 l 25xfc80
152 455 m 25
 152 531 l 25
 341 531 l 25
 341 455 l 25
 152 455 l 25
341 645 m 25
 531 645 l 25
 531 569 l 25
 341 569 l 25
 341 645 l 25
379 759 m 25xf9
 531 759 l 25
 531 683 l 25
 379 683 l 25
 379 759 l 25xf9
76 645 m 25xfc
 228 645 l 25
 228 569 l 25
 76 569 l 25
 76 645 l 25xfc
114 759 m 29xfa
 265 759 l 29
 265 683 l 29
 114 683 l 29
 114 759 l 29xfa
228 796 m 29xfc80
 228 872 l 29
 531 872 l 25
 531 796 l 25
 228 796 l 29xfc80
EndSplineSet
EndChar

StartChar: onehalf
Encoding: 189 189 166
Width: 910
VWidth: 0
Flags: W
HStem: -228 76<455 834> -114 76<455 607> 0 76<152 303 531 759> 114 76<228 379 683 834> 228 75<303 759> 341 76<379 531> 455 76<114 417 455 607> 569 76<190 341 531 683> 683 76<190 341 607 759> 796 76<114 341> 910 76<190 341>
VStem: 152 151<0 76> 190 151<569 645 683 759 910 986> 228 151<114 190> 379 152<341 417> 455 152<-114 -38 455 531> 531 152<569 645> 607 152<683 759> 683 151<114 190>
LayerCount: 2
Fore
SplineSet
455 -152 m 25xffe120
 834 -152 l 25
 834 -228 l 25
 455 -228 l 25
 455 -152 l 25xffe120
455 -38 m 25
 607 -38 l 25
 607 -114 l 25
 455 -114 l 25
 455 -38 l 25
759 76 m 25xffe040
 759 0 l 25xffe040
 531 0 l 25
 531 76 l 25xffe080
 759 76 l 25xffe040
683 190 m 25xffe020
 834 190 l 25
 834 114 l 25
 683 114 l 25
 683 190 l 25xffe020
303 228 m 25xfff040
 303 303 l 25
 759 303 l 25
 759 228 l 25
 303 228 l 25xfff040
114 531 m 25
 417 531 l 25
 417 455 l 25
 114 455 l 25
 114 531 l 25
190 645 m 25xffe8
 341 645 l 25
 341 569 l 25
 190 569 l 25
 190 645 l 25xffe8
341 759 m 25
 341 683 l 25
 190 683 l 25
 190 759 l 25
 341 759 l 25
114 872 m 25
 341 872 l 25
 341 796 l 25
 114 796 l 25
 114 872 l 25
190 910 m 25
 190 986 l 25
 341 986 l 25
 341 910 l 25
 190 910 l 25
152 76 m 25xfff0
 303 76 l 25
 303 0 l 25
 152 0 l 25
 152 76 l 25xfff0
228 190 m 25xffe4
 379 190 l 25
 379 114 l 25
 228 114 l 25
 228 190 l 25xffe4
607 683 m 25xffe040
 607 759 l 25
 759 759 l 25
 759 683 l 25
 607 683 l 25xffe040
531 569 m 25xffe080
 531 645 l 25
 683 645 l 25
 683 569 l 25
 531 569 l 25xffe080
455 455 m 25xffe1
 455 531 l 25
 607 531 l 25
 607 455 l 25
 455 455 l 25xffe1
379 417 m 25xffe2
 531 417 l 25
 531 341 l 25
 379 341 l 25
 379 417 l 25xffe2
EndSplineSet
EndChar

StartChar: uni00B2
Encoding: 178 178 167
Width: 530
VWidth: 0
Flags: W
HStem: 341 76<76 455> 455 76<76 228> 569 76<152 379> 683 76<303 455> 796 76<76 379>
VStem: 76 152<455 531> 303 152<683 759>
LayerCount: 2
Fore
SplineSet
76 417 m 29
 455 417 l 29
 455 341 l 29
 76 341 l 29
 76 417 l 29
76 531 m 29
 228 531 l 29
 228 455 l 29
 76 455 l 29
 76 531 l 29
379 645 m 29
 379 569 l 29
 152 569 l 29
 152 645 l 29
 379 645 l 29
303 759 m 29
 455 759 l 29
 455 683 l 29
 303 683 l 29
 303 759 l 29
76 796 m 29
 76 872 l 29
 379 872 l 29
 379 796 l 29
 76 796 l 29
EndSplineSet
EndChar

StartChar: uni00B3
Encoding: 179 179 168
Width: 530
VWidth: 0
Flags: W
HStem: 341 76<76 379> 455 76<303 455> 569 76<152 379> 683 76<303 455> 796 76<76 379>
VStem: 303 152<455 531 683 759>
LayerCount: 2
Fore
SplineSet
76 417 m 25
 379 417 l 29
 379 341 l 29
 76 341 l 25
 76 417 l 25
303 531 m 25
 455 531 l 25
 455 455 l 25
 303 455 l 25
 303 531 l 25
379 645 m 25
 379 569 l 25
 152 569 l 25
 152 645 l 25
 379 645 l 25
303 759 m 25
 455 759 l 25
 455 683 l 25
 303 683 l 25
 303 759 l 25
76 796 m 25
 76 872 l 25
 379 872 l 25
 379 796 l 25
 76 796 l 25
EndSplineSet
EndChar

StartChar: uni00B9
Encoding: 185 185 169
Width: 530
VWidth: 0
Flags: W
HStem: 341 76<114 417> 455 76<190 341> 569 76<190 341> 683 76<114 341> 796 76<190 341>
VStem: 190 151<455 531 569 645 796 872>
LayerCount: 2
Fore
SplineSet
114 417 m 25
 417 417 l 25
 417 341 l 25
 114 341 l 25
 114 417 l 25
190 531 m 25
 341 531 l 25
 341 455 l 25
 190 455 l 25
 190 531 l 25
341 645 m 25
 341 569 l 25
 190 569 l 25
 190 645 l 25
 341 645 l 25
114 759 m 29
 341 759 l 25
 341 683 l 25
 114 683 l 29
 114 759 l 29
190 796 m 25
 190 872 l 25
 341 872 l 25
 341 796 l 25
 190 796 l 25
EndSplineSet
EndChar

StartChar: threequarters
Encoding: 190 190 170
Width: 910
VWidth: 0
Flags: W
HStem: -228 76<683 834> -114 76<455 834> 0 76<152 303 455 569 683 834> 114 76<228 379 531 645 683 834> 228 75<303 455 607 834> 341 76<379 531> 455 76<76 379 455 607> 569 76<303 455 531 683> 683 76<152 379 607 759> 796 76<303 455> 910 76<76 379>
VStem: 152 151<0 76> 228 151<114 190> 303 152<228 303 569 645 796 872> 379 152<341 417> 455 152<455 531> 455 114<0 76> 531 152<569 645> 531 114<114 190> 607 152<683 759> 683 151<-228 -152 0 76 114 190>
LayerCount: 2
Fore
SplineSet
152 76 m 25xfff0
 303 76 l 25
 303 0 l 25
 152 0 l 25
 152 76 l 25xfff0
228 190 m 25xffe8
 379 190 l 25
 379 114 l 25
 228 114 l 25
 228 190 l 25xffe8
303 303 m 25xffe4
 455 303 l 25
 455 228 l 25
 303 228 l 25
 303 303 l 25xffe4
455 0 m 25xffe080
 455 76 l 25
 569 76 l 25
 569 0 l 25
 455 0 l 25xffe080
607 683 m 25xffe010
 607 759 l 25
 759 759 l 25
 759 683 l 25
 607 683 l 25xffe010
531 569 m 25xffe040
 531 645 l 25
 683 645 l 25
 683 569 l 25
 531 569 l 25xffe040
455 455 m 25xffe1
 455 531 l 25
 607 531 l 25
 607 455 l 25
 455 455 l 25xffe1
379 417 m 25xffe2
 531 417 l 25
 531 341 l 25
 379 341 l 25
 379 417 l 25xffe2
683 76 m 25xffe008
 834 76 l 25
 834 0 l 25
 683 0 l 25
 683 76 l 25xffe008
683 -152 m 25
 834 -152 l 25
 834 -228 l 25
 683 -228 l 25
 683 -152 l 25
455 -38 m 25xffe088
 834 -38 l 25
 834 -114 l 25
 455 -114 l 25
 455 -38 l 25xffe088
683 190 m 25
 834 190 l 25
 834 114 l 25
 683 114 l 25
 683 190 l 25
531 190 m 25xffe020
 645 190 l 25
 645 114 l 25
 531 114 l 25
 531 190 l 25xffe020
607 303 m 25xffe010
 834 303 l 25
 834 228 l 25xffe008
 607 228 l 25
 607 303 l 25xffe010
76 531 m 25
 379 531 l 25
 379 455 l 25xffe2
 76 455 l 25
 76 531 l 25
303 645 m 25xffe4
 455 645 l 25
 455 569 l 25
 303 569 l 25
 303 645 l 25xffe4
379 759 m 25xfff2
 379 683 l 25
 152 683 l 25
 152 759 l 25
 379 759 l 25xfff2
303 872 m 25xffe4
 455 872 l 25
 455 796 l 25
 303 796 l 25
 303 872 l 25xffe4
76 910 m 25
 76 986 l 25
 379 986 l 25
 379 910 l 25xffe2
 76 910 l 25
EndSplineSet
EndChar

StartChar: onequarter
Encoding: 188 188 171
Width: 910
VWidth: 0
Flags: W
HStem: -228 76<683 834> -114 76<455 834> 0 76<152 303 455 569 683 834> 114 76<228 379 531 645 683 834> 228 75<303 455 607 834> 341 76<379 531> 455 76<114 417 455 607> 569 76<190 341 531 683> 683 76<190 341 607 759> 796 76<114 341> 910 76<190 341>
VStem: 152 151<0 76> 190 151<569 645 683 759 910 986> 228 151<114 190> 303 152<228 303> 379 152<341 417> 455 152<455 531> 455 114<0 76> 531 152<569 645> 531 114<114 190> 607 152<683 759> 683 151<-228 -152 0 76 114 190>
LayerCount: 2
Fore
SplineSet
114 531 m 25xffe0
 417 531 l 25
 417 455 l 25
 114 455 l 25
 114 531 l 25xffe0
190 645 m 25xffe8
 341 645 l 25
 341 569 l 25
 190 569 l 25
 190 645 l 25xffe8
341 759 m 25
 341 683 l 25
 190 683 l 25
 190 759 l 25
 341 759 l 25
114 872 m 25
 341 872 l 25
 341 796 l 25
 114 796 l 25
 114 872 l 25
190 910 m 25
 190 986 l 25
 341 986 l 25
 341 910 l 25
 190 910 l 25
152 76 m 25xfff0
 303 76 l 25
 303 0 l 25
 152 0 l 25
 152 76 l 25xfff0
228 190 m 25xffe4
 379 190 l 25
 379 114 l 25
 228 114 l 25
 228 190 l 25xffe4
303 303 m 25xffe2
 455 303 l 25
 455 228 l 25
 303 228 l 25
 303 303 l 25xffe2
455 0 m 25xffe040
 455 76 l 25
 569 76 l 29
 569 0 l 29
 455 0 l 25xffe040
607 683 m 25xffe008
 607 759 l 25
 759 759 l 25
 759 683 l 25
 607 683 l 25xffe008
531 569 m 25xffe020
 531 645 l 25
 683 645 l 25
 683 569 l 25
 531 569 l 25xffe020
455 455 m 25xffe080
 455 531 l 25
 607 531 l 25
 607 455 l 25
 455 455 l 25xffe080
379 417 m 25xffe1
 531 417 l 25
 531 341 l 25
 379 341 l 25
 379 417 l 25xffe1
683 76 m 25xffe004
 834 76 l 25
 834 0 l 25
 683 0 l 25
 683 76 l 25xffe004
683 -152 m 25
 834 -152 l 25
 834 -228 l 25
 683 -228 l 25
 683 -152 l 25
455 -38 m 25xffe044
 834 -38 l 25
 834 -114 l 25
 455 -114 l 25
 455 -38 l 25xffe044
683 190 m 25
 834 190 l 25
 834 114 l 25
 683 114 l 25
 683 190 l 25
531 190 m 25xffe010
 645 190 l 29
 645 114 l 29
 531 114 l 25
 531 190 l 25xffe010
607 303 m 25xffe008
 834 303 l 25
 834 228 l 25xffe004
 607 228 l 25
 607 303 l 25xffe008
EndSplineSet
EndChar

StartChar: guillemotleft
Encoding: 171 171 172
Width: 910
VWidth: 0
Flags: W
HStem: 114 76<303 493 645 834> 228 75<190 379 531 721> 341 76<76 265 417 607> 455 76<190 379 531 721> 569 76<303 493 645 834>
VStem: 190 189<228 303 455 531> 303 190<114 190 569 645> 531 190<228 303 455 531> 645 189<114 190 569 645>
LayerCount: 2
Fore
SplineSet
645 114 m 25xf880
 645 190 l 25
 834 190 l 25
 834 114 l 25
 645 114 l 25xf880
531 228 m 25xf9
 531 303 l 25
 721 303 l 25
 721 228 l 25
 531 228 l 25xf9
645 569 m 25xf880
 645 645 l 25
 834 645 l 25
 834 569 l 25
 645 569 l 25xf880
531 455 m 25xf9
 531 531 l 25
 721 531 l 25
 721 455 l 25
 531 455 l 25xf9
417 341 m 25
 417 417 l 25
 607 417 l 25
 607 341 l 25
 417 341 l 25
303 114 m 25xfa
 303 190 l 25
 493 190 l 25
 493 114 l 25
 303 114 l 25xfa
190 228 m 25xfc
 190 303 l 25
 379 303 l 25
 379 228 l 25
 190 228 l 25xfc
303 569 m 25xfa
 303 645 l 25
 493 645 l 25
 493 569 l 25
 303 569 l 25xfa
190 455 m 25xfc
 190 531 l 25
 379 531 l 25
 379 455 l 25
 190 455 l 25xfc
76 341 m 25
 76 417 l 25
 265 417 l 25
 265 341 l 25
 76 341 l 25
EndSplineSet
EndChar

StartChar: guillemotright
Encoding: 187 187 173
Width: 910
VWidth: 0
Flags: W
HStem: 114 76<76 265 417 607> 228 75<190 379 531 721> 341 76<303 493 645 834> 455 76<190 379 531 721> 569 76<76 265 417 607>
VStem: 76 189<114 190 569 645> 190 189<228 303 455 531> 417 190<114 190 569 645> 531 190<228 303 455 531>
LayerCount: 2
Fore
SplineSet
417 569 m 25xf9
 417 645 l 25
 607 645 l 25
 607 569 l 25
 417 569 l 25xf9
531 455 m 25xf880
 531 531 l 25
 721 531 l 25
 721 455 l 25
 531 455 l 25xf880
645 341 m 25
 645 417 l 25
 834 417 l 25
 834 341 l 25
 645 341 l 25
531 228 m 25
 531 303 l 25
 721 303 l 25
 721 228 l 25
 531 228 l 25
417 114 m 25xf9
 417 190 l 25
 607 190 l 25
 607 114 l 25
 417 114 l 25xf9
76 569 m 25xfc
 76 645 l 25
 265 645 l 25
 265 569 l 25
 76 569 l 25xfc
190 455 m 25xfa
 190 531 l 25
 379 531 l 25
 379 455 l 25
 190 455 l 25xfa
303 341 m 25
 303 417 l 25
 493 417 l 25
 493 341 l 25
 303 341 l 25
190 228 m 25
 190 303 l 25
 379 303 l 25
 379 228 l 25
 190 228 l 25
76 114 m 25xfc
 76 190 l 25
 265 190 l 25
 265 114 l 25
 76 114 l 25xfc
EndSplineSet
EndChar

StartChar: plusminus
Encoding: 177 177 174
Width: 682
VWidth: 0
Flags: W
HStem: 0 76<76 607> 228 75<265 417> 341 76<265 417> 455 76<76 607> 569 76<265 417> 683 76<265 417>
VStem: 265 152<228 303 341 417 569 645 683 759>
LayerCount: 2
Fore
SplineSet
76 0 m 29
 76 76 l 29
 607 76 l 29
 607 0 l 29
 76 0 l 29
265 228 m 29
 265 303 l 29
 417 303 l 29
 417 228 l 29
 265 228 l 29
265 341 m 29
 265 417 l 29
 417 417 l 29
 417 341 l 29
 265 341 l 29
265 683 m 29
 265 759 l 29
 417 759 l 29
 417 683 l 29
 265 683 l 29
265 569 m 29
 265 645 l 29
 417 645 l 29
 417 569 l 29
 265 569 l 29
76 455 m 29
 76 531 l 29
 607 531 l 29
 607 455 l 29
 76 455 l 29
EndSplineSet
EndChar

StartChar: macron
Encoding: 175 175 176
Width: 682
VWidth: 0
Flags: W
HStem: 796 76<76 607>
LayerCount: 2
Fore
SplineSet
76 872 m 29
 607 872 l 29
 607 796 l 29
 76 796 l 29
 76 872 l 29
EndSplineSet
EndChar

StartChar: brokenbar
Encoding: 166 166 177
Width: 303
VWidth: 0
Flags: W
HStem: -114 76<76 228> 0 76<76 228> 114 76<76 228> 228 75<76 228> 455 76<76 228> 569 76<76 228> 683 76<76 228> 796 76<76 228>
VStem: 76 152<-114 -38 0 76 114 190 228 303 455 531 569 645 683 759 796 872>
LayerCount: 2
Fore
SplineSet
76 796 m 25
 76 872 l 25
 228 872 l 25
 228 796 l 25
 76 796 l 25
76 -114 m 25
 76 -38 l 25
 228 -38 l 25
 228 -114 l 25
 76 -114 l 25
76 683 m 25
 76 759 l 25
 228 759 l 25
 228 683 l 25
 76 683 l 25
76 569 m 25
 76 645 l 25
 228 645 l 25
 228 569 l 25
 76 569 l 25
76 455 m 25
 76 531 l 25
 228 531 l 25
 228 455 l 25
 76 455 l 25
76 228 m 25
 76 303 l 25
 228 303 l 25
 228 228 l 25
 76 228 l 25
76 114 m 25
 76 190 l 25
 228 190 l 25
 228 114 l 25
 76 114 l 25
76 0 m 25
 76 76 l 25
 228 76 l 25
 228 0 l 25
 76 0 l 25
EndSplineSet
EndChar

StartChar: section
Encoding: 167 167 178
Width: 682
VWidth: 0
Flags: W
HStem: 0 76<152 531> 114 76<455 607> 228 75<190 493> 341 76<76 228 455 607> 455 76<190 493> 569 76<76 228> 683 76<152 531>
VStem: 76 152<341 417 569 645> 455 152<114 190 341 417>
LayerCount: 2
Fore
SplineSet
152 683 m 25
 152 759 l 25
 531 759 l 25
 531 683 l 25
 152 683 l 25
228 569 m 25
 76 569 l 25
 76 645 l 25
 228 645 l 25
 228 569 l 25
607 341 m 25
 455 341 l 25
 455 417 l 25
 607 417 l 25
 607 341 l 25
190 455 m 25
 190 531 l 25
 493 531 l 25
 493 455 l 25
 190 455 l 25
228 341 m 25
 76 341 l 25
 76 417 l 25
 228 417 l 25
 228 341 l 25
493 228 m 25
 190 228 l 25
 190 303 l 25
 493 303 l 25
 493 228 l 25
607 114 m 25
 455 114 l 25
 455 190 l 25
 607 190 l 25
 607 114 l 25
152 0 m 25
 152 76 l 25
 531 76 l 25
 531 0 l 25
 152 0 l 25
EndSplineSet
EndChar

StartChar: Oslash
Encoding: 216 216 179
Width: 834
VWidth: 0
Flags: W
HStem: 0 76<76 228 303 569> 114 76<152 341 531 683> 228 75<76 228 265 417 607 759> 341 76<76 228 341 493 607 759> 455 76<76 228 417 569 607 759> 569 76<152 303 493 683> 683 76<265 531 607 759>
VStem: 76 152<0 76 228 303 341 417 455 531> 152 151<569 645> 265 152<228 303> 341 152<341 417> 417 152<455 531> 531 152<114 190> 607 152<228 303 341 417 455 531 683 759>
LayerCount: 2
Fore
SplineSet
607 683 m 25xfe04
 607 759 l 25
 759 759 l 25
 759 683 l 25
 607 683 l 25xfe04
417 455 m 25xfe10
 417 531 l 25
 569 531 l 25
 569 455 l 25
 417 455 l 25xfe10
341 341 m 25xfe20
 341 417 l 25
 493 417 l 25
 493 341 l 25
 341 341 l 25xfe20
265 228 m 25xfe40
 265 303 l 25
 417 303 l 25
 417 228 l 25
 265 228 l 25xfe40
76 0 m 25xff
 76 76 l 25
 228 76 l 25
 228 0 l 25
 76 0 l 25xff
265 683 m 25xfe48
 265 759 l 25
 531 759 l 25
 531 683 l 25
 265 683 l 25xfe48
303 0 m 25xfe90
 303 76 l 25
 569 76 l 25
 569 0 l 25
 303 0 l 25xfe90
531 114 m 25xfe08
 531 190 l 25
 683 190 l 25
 683 114 l 25
 531 114 l 25xfe08
607 455 m 25xfe04
 607 531 l 25
 759 531 l 25
 759 455 l 25
 607 455 l 25xfe04
607 341 m 25
 607 417 l 25
 759 417 l 25
 759 341 l 25
 607 341 l 25
607 228 m 25
 607 303 l 25
 759 303 l 25
 759 228 l 25
 607 228 l 25
493 569 m 25xfe28
 493 645 l 25
 683 645 l 25
 683 569 l 25
 493 569 l 25xfe28
152 569 m 25xfe80
 152 645 l 25
 303 645 l 25
 303 569 l 25
 152 569 l 25xfe80
76 455 m 25xff
 76 531 l 25
 228 531 l 25
 228 455 l 25
 76 455 l 25xff
76 341 m 25
 76 417 l 25
 228 417 l 25
 228 341 l 25
 76 341 l 25
76 228 m 25
 76 303 l 25
 228 303 l 25
 228 228 l 25
 76 228 l 25
152 114 m 25xfea0
 152 190 l 25
 341 190 l 25
 341 114 l 25
 152 114 l 25xfea0
EndSplineSet
EndChar

StartChar: sterling
Encoding: 163 163 180
Width: 758
VWidth: 0
Flags: W
HStem: 0 76<76 683> 114 76<152 303> 228 75<190 341> 341 76<76 569> 455 76<190 341> 569 76<190 341 531 683> 683 76<265 607>
VStem: 152 151<114 190> 190 151<228 303 455 531 569 645> 531 152<569 645>
LayerCount: 2
Fore
SplineSet
76 0 m 25xfe40
 76 76 l 25
 683 76 l 25
 683 0 l 25
 76 0 l 25xfe40
265 683 m 25
 265 759 l 25
 607 759 l 25
 607 683 l 25
 265 683 l 25
190 569 m 25xfec0
 190 645 l 25
 341 645 l 25
 341 569 l 25
 190 569 l 25xfec0
683 569 m 25
 531 569 l 25
 531 645 l 25
 683 645 l 25
 683 569 l 25
190 455 m 25
 190 531 l 25
 341 531 l 25
 341 455 l 25
 190 455 l 25
76 341 m 25
 76 417 l 25
 569 417 l 25
 569 341 l 25
 76 341 l 25
190 228 m 25
 190 303 l 25
 341 303 l 25
 341 228 l 25
 190 228 l 25
152 114 m 25xff40
 152 190 l 25
 303 190 l 29
 303 114 l 25
 152 114 l 25xff40
EndSplineSet
EndChar

StartChar: Yacute
Encoding: 221 221 181
Width: 758
VWidth: 0
Flags: W
HStem: 0 76<303 455> 114 76<303 455> 228 75<303 455> 341 76<228 531> 455 76<152 303 455 607> 569 76<76 228 531 683> 796 76<303 493> 910 76<417 607>
VStem: 76 152<569 645> 152 151<455 531> 303 152<0 76 114 190 228 303> 455 152<455 531> 531 152<569 645>
LayerCount: 2
Fore
SplineSet
607 910 m 29xff10
 417 910 l 29
 417 986 l 29
 607 986 l 29
 607 910 l 29xff10
303 796 m 29xff20
 303 872 l 29
 493 872 l 29
 493 796 l 29
 303 796 l 29xff20
683 569 m 25xff08
 531 569 l 25
 531 645 l 25
 683 645 l 25
 683 569 l 25xff08
607 455 m 25xff10
 455 455 l 25
 455 531 l 25
 607 531 l 25
 607 455 l 25xff10
76 569 m 25xff80
 76 645 l 25
 228 645 l 25
 228 569 l 25
 76 569 l 25xff80
152 455 m 25xff40
 152 531 l 25
 303 531 l 25
 303 455 l 25
 152 455 l 25xff40
228 341 m 25xff88
 228 417 l 25
 531 417 l 25
 531 341 l 25
 228 341 l 25xff88
303 228 m 25xff20
 303 303 l 25
 455 303 l 25
 455 228 l 25
 303 228 l 25xff20
303 114 m 25
 303 190 l 25
 455 190 l 25
 455 114 l 25
 303 114 l 25
303 0 m 25
 303 76 l 25
 455 76 l 25
 455 0 l 25
 303 0 l 25
EndSplineSet
EndChar

StartChar: yacute
Encoding: 253 253 182
Width: 682
VWidth: 0
Flags: W
HStem: -228 76<152 531> -114 76<455 607> 0 76<152 379 455 607> 114 76<76 228 379 607> 228 75<76 228 455 607> 341 76<76 228 455 607> 455 76<76 228 455 607> 683 76<265 455> 796 76<379 569>
VStem: 76 152<114 190 228 303 341 417 455 531> 455 152<-114 -38 0 76 228 303 341 417 455 531>
LayerCount: 2
Fore
SplineSet
569 796 m 29
 379 796 l 29
 379 872 l 29
 569 872 l 29
 569 796 l 29
265 683 m 29
 265 759 l 29
 455 759 l 29
 455 683 l 29
 265 683 l 29
EndSplineSet
Refer: 47 121 N 1 0 0 1 0 0 2
EndChar

StartChar: ydieresis
Encoding: 255 255 183
Width: 682
VWidth: 0
Flags: W
HStem: -228 76<152 531> -114 76<455 607> 0 76<152 379 455 607> 114 76<76 228 379 607> 228 75<76 228 455 607> 341 76<76 228 455 607> 455 76<76 228 455 607> 683 76<114 265 417 569>
VStem: 76 152<114 190 228 303 341 417 455 531> 114 151<683 759> 417 152<683 759> 455 152<-114 -38 0 76 228 303 341 417 455 531>
LayerCount: 2
Fore
SplineSet
417 759 m 29xff20
 569 759 l 29
 569 683 l 29
 417 683 l 29
 417 759 l 29xff20
265 759 m 29xff40
 265 683 l 29
 114 683 l 29
 114 759 l 29
 265 759 l 29xff40
EndSplineSet
Refer: 47 121 N 1 0 0 1 0 0 2
EndChar

StartChar: oslash
Encoding: 248 248 184
Width: 758
VWidth: 0
Flags: W
HStem: -114 76<114 265> 0 76<190 569> 114 76<76 341 531 683> 228 75<76 228 303 455 531 683> 341 76<76 228 417 683> 455 76<190 569> 569 76<493 645>
VStem: 76 152<228 303 341 417> 114 151<-114 -38> 303 152<228 303> 493 152<569 645> 531 152<114 190 228 303>
LayerCount: 2
Fore
SplineSet
265 -114 m 25xfec0
 114 -114 l 25
 114 -38 l 25
 265 -38 l 25
 265 -114 l 25xfec0
645 569 m 29xfe60
 493 569 l 29
 493 645 l 29
 645 645 l 29
 645 569 l 29xfe60
303 228 m 25
 303 303 l 25
 455 303 l 25
 455 228 l 25
 303 228 l 25
569 455 m 25
 190 455 l 25
 190 531 l 25
 569 531 l 25
 569 455 l 25
417 341 m 25
 417 417 l 25
 683 417 l 25
 683 341 l 25xfe50
 417 341 l 25
531 228 m 25
 531 303 l 25
 683 303 l 25
 683 228 l 25
 531 228 l 25
531 114 m 25
 531 190 l 25
 683 190 l 25
 683 114 l 25
 531 114 l 25
228 341 m 25xff40
 76 341 l 25
 76 417 l 25
 228 417 l 25
 228 341 l 25xff40
228 228 m 25
 76 228 l 25
 76 303 l 25
 228 303 l 25
 228 228 l 25
341 114 m 25
 76 114 l 25
 76 190 l 25
 341 190 l 25
 341 114 l 25
190 0 m 25
 190 76 l 25
 569 76 l 25
 569 0 l 25
 190 0 l 25
EndSplineSet
EndChar

StartChar: logicalnot
Encoding: 172 172 185
Width: 682
VWidth: 0
Flags: W
HStem: 228 75<455 607> 341 76<455 607> 455 76<76 607>
VStem: 455 152<228 303 341 417>
LayerCount: 2
Fore
SplineSet
607 303 m 25
 607 228 l 25
 455 228 l 25
 455 303 l 25
 607 303 l 25
607 417 m 25
 607 341 l 25
 455 341 l 25
 455 417 l 25
 607 417 l 25
76 455 m 25
 76 531 l 25
 607 531 l 25
 607 455 l 25
 76 455 l 25
EndSplineSet
EndChar

StartChar: copyright
Encoding: 169 169 186
Width: 1137
VWidth: 0
Flags: W
HStem: -114 76<303 834> 0 76<152 303 834 986> 114 76<76 228 379 759 910 1062> 228 75<76 228 303 455 683 834 910 1062> 341 76<76 228 303 455 910 1062> 455 76<76 228 303 455 683 834 910 1062> 569 76<76 228 379 759 910 1062> 683 76<152 303 834 986> 796 76<303 834>
VStem: 76 152<114 190 228 303 341 417 455 531 569 645> 152 151<0 76 683 759> 303 152<228 303 341 417 455 531> 683 151<228 303 455 531> 834 152<0 76 683 759> 910 152<114 190 228 303 341 417 455 531 569 645>
LayerCount: 2
Fore
SplineSet
303 -114 m 25xff94
 303 -38 l 25
 834 -38 l 25
 834 -114 l 25
 303 -114 l 25xff94
834 76 m 25
 986 76 l 25
 986 0 l 25
 834 0 l 25
 834 76 l 25
303 76 m 25xffa0
 303 0 l 25
 152 0 l 25
 152 76 l 25
 303 76 l 25xffa0
1062 190 m 25xff82
 1062 114 l 25
 910 114 l 25
 910 190 l 25
 1062 190 l 25xff82
1062 303 m 25
 1062 228 l 25
 910 228 l 25
 910 303 l 25
 1062 303 l 25
1062 417 m 25
 1062 341 l 25
 910 341 l 25
 910 417 l 25
 1062 417 l 25
1062 531 m 25
 1062 455 l 25
 910 455 l 25
 910 531 l 25
 1062 531 l 25
1062 645 m 25
 1062 569 l 25
 910 569 l 25
 910 645 l 25
 1062 645 l 25
228 190 m 25xffc0
 228 114 l 25
 76 114 l 25
 76 190 l 25
 228 190 l 25xffc0
228 303 m 25
 228 228 l 25
 76 228 l 25
 76 303 l 25
 228 303 l 25
228 417 m 25
 228 341 l 25
 76 341 l 25
 76 417 l 25
 228 417 l 25
228 531 m 25
 228 455 l 25
 76 455 l 25
 76 531 l 25
 228 531 l 25
228 645 m 25
 228 569 l 25
 76 569 l 25
 76 645 l 25
 228 645 l 25
834 759 m 25xff84
 986 759 l 25
 986 683 l 25
 834 683 l 25
 834 759 l 25xff84
303 759 m 25xffa0
 303 683 l 25
 152 683 l 25
 152 759 l 25
 303 759 l 25xffa0
303 796 m 25xff94
 303 872 l 25
 834 872 l 25
 834 796 l 25
 303 796 l 25xff94
759 569 m 25
 379 569 l 25
 379 645 l 25
 759 645 l 25
 759 569 l 25
683 455 m 25xff88
 683 531 l 25
 834 531 l 25
 834 455 l 25
 683 455 l 25xff88
683 228 m 25
 683 303 l 25
 834 303 l 25
 834 228 l 25
 683 228 l 25
455 455 m 25xff90
 303 455 l 25
 303 531 l 25
 455 531 l 25
 455 455 l 25xff90
455 341 m 25
 303 341 l 25
 303 417 l 25
 455 417 l 25
 455 341 l 25
455 228 m 25
 303 228 l 25
 303 303 l 25
 455 303 l 25
 455 228 l 25
379 114 m 25
 379 190 l 25
 759 190 l 25
 759 114 l 25
 379 114 l 25
EndSplineSet
EndChar

StartChar: registered
Encoding: 174 174 187
Width: 1137
VWidth: 0
Flags: W
HStem: -114 76<303 834> 0 76<152 303 834 986> 114 76<76 228 303 455 683 834 910 1062> 228 75<76 228 303 455 569 721 910 1062> 341 76<76 228 303 759 910 1062> 455 76<76 228 303 455 683 834 910 1062> 569 76<76 228 303 759 910 1062> 683 76<152 303 834 986> 796 76<303 834>
VStem: 76 152<114 190 228 303 341 417 455 531 569 645> 152 151<0 76 683 759> 303 152<114 190 228 303 455 531> 569 152<228 303> 683 151<114 190 455 531> 834 152<0 76 683 759> 910 152<114 190 228 303 341 417 455 531 569 645>
LayerCount: 2
Fore
SplineSet
569 228 m 25xff88
 569 303 l 25
 721 303 l 25
 721 228 l 25
 569 228 l 25xff88
303 -114 m 25xff92
 303 -38 l 25
 834 -38 l 25
 834 -114 l 25
 303 -114 l 25xff92
834 76 m 25
 986 76 l 25
 986 0 l 25
 834 0 l 25
 834 76 l 25
303 76 m 25xffa0
 303 0 l 25
 152 0 l 25
 152 76 l 25
 303 76 l 25xffa0
1062 190 m 25xff81
 1062 114 l 25
 910 114 l 25
 910 190 l 25
 1062 190 l 25xff81
1062 303 m 25
 1062 228 l 25
 910 228 l 25
 910 303 l 25
 1062 303 l 25
1062 417 m 25
 1062 341 l 25
 910 341 l 25
 910 417 l 25
 1062 417 l 25
1062 531 m 25
 1062 455 l 25
 910 455 l 25
 910 531 l 25
 1062 531 l 25
1062 645 m 25
 1062 569 l 25
 910 569 l 25
 910 645 l 25
 1062 645 l 25
228 190 m 25xffc0
 228 114 l 25
 76 114 l 25
 76 190 l 25
 228 190 l 25xffc0
228 303 m 25
 228 228 l 25
 76 228 l 25
 76 303 l 25
 228 303 l 25
228 417 m 25
 228 341 l 25
 76 341 l 25
 76 417 l 25
 228 417 l 25
228 531 m 25
 228 455 l 25
 76 455 l 25
 76 531 l 25
 228 531 l 25
228 645 m 25
 228 569 l 25
 76 569 l 25
 76 645 l 25
 228 645 l 25
834 759 m 25xff82
 986 759 l 25
 986 683 l 25
 834 683 l 25
 834 759 l 25xff82
303 759 m 25xffa0
 303 683 l 25
 152 683 l 25
 152 759 l 25
 303 759 l 25xffa0
303 796 m 25xff92
 303 872 l 25
 834 872 l 25
 834 796 l 25
 303 796 l 25xff92
759 569 m 25
 303 569 l 25
 303 645 l 25
 759 645 l 25
 759 569 l 25
683 455 m 25xff84
 683 531 l 25
 834 531 l 25
 834 455 l 25
 683 455 l 25xff84
683 114 m 25
 683 190 l 25
 834 190 l 25
 834 114 l 25
 683 114 l 25
455 455 m 25xff90
 303 455 l 25
 303 531 l 25
 455 531 l 25
 455 455 l 25xff90
759 341 m 25
 303 341 l 25
 303 417 l 25
 759 417 l 25
 759 341 l 25
455 228 m 25
 303 228 l 25
 303 303 l 25
 455 303 l 25
 455 228 l 25
303 114 m 25
 303 190 l 25
 455 190 l 25
 455 114 l 25
 303 114 l 25
EndSplineSet
EndChar

StartChar: dieresis
Encoding: 168 168 188
Width: 682
VWidth: 0
Flags: W
HStem: 607 76<76 303 379 607> 721 75<76 303 379 607>
VStem: 76 227<607 683 721 796> 379 228<607 683 721 796>
LayerCount: 2
Fore
SplineSet
607 721 m 25
 379 721 l 25
 379 796 l 25
 607 796 l 25
 607 721 l 25
379 607 m 25
 379 683 l 25
 607 683 l 25
 607 607 l 25
 379 607 l 25
303 721 m 25
 76 721 l 25
 76 796 l 25
 303 796 l 25
 303 721 l 25
76 607 m 25
 76 683 l 25
 303 683 l 25
 303 607 l 25
 76 607 l 25
EndSplineSet
EndChar

StartChar: uni00B5
Encoding: 181 181 189
Width: 834
VWidth: 0
Flags: W
HStem: -228 76<76 228> -114 76<76 228> 0 76<76 228 303 531 607 759> 114 76<76 303 455 683> 228 75<76 228 531 683> 341 76<76 228 531 683> 455 76<76 228 531 683>
VStem: 76 152<-228 -152 -114 -38 0 76 228 303 341 417 455 531> 531 152<228 303 341 417 455 531> 607 152<0 76>
LayerCount: 2
Fore
SplineSet
531 455 m 25xff80
 531 531 l 25
 683 531 l 25
 683 455 l 25
 531 455 l 25xff80
531 341 m 25
 531 417 l 25
 683 417 l 25
 683 341 l 25
 531 341 l 25
531 228 m 25
 531 303 l 25
 683 303 l 25
 683 228 l 25
 531 228 l 25
607 76 m 25xff40
 759 76 l 25
 759 0 l 25
 607 0 l 25
 607 76 l 25xff40
455 114 m 25
 455 190 l 25
 683 190 l 25
 683 114 l 25xff80
 455 114 l 25
303 76 m 25
 531 76 l 25
 531 0 l 25
 303 0 l 25
 303 76 l 25
76 455 m 25
 76 531 l 25
 228 531 l 25
 228 455 l 25
 76 455 l 25
76 341 m 25
 76 417 l 25
 228 417 l 25
 228 341 l 25
 76 341 l 25
76 228 m 25
 76 303 l 25
 228 303 l 25
 228 228 l 25
 76 228 l 25
76 114 m 25
 76 190 l 25
 303 190 l 25
 303 114 l 25
 76 114 l 25
228 0 m 25
 76 0 l 25
 76 76 l 25
 228 76 l 25
 228 0 l 25
76 -114 m 25
 76 -38 l 25
 228 -38 l 25
 228 -114 l 25
 76 -114 l 25
76 -228 m 25
 76 -152 l 25
 228 -152 l 25
 228 -228 l 25
 76 -228 l 25
EndSplineSet
EndChar

StartChar: cedilla
Encoding: 184 184 190
Width: 455
VWidth: 0
Flags: W
HStem: 0 76<76 303> 114 76<228 379> 228 75<152 303>
VStem: 152 151<228 303> 228 151<114 190>
LayerCount: 2
Fore
SplineSet
152 228 m 25xf0
 152 303 l 25
 303 303 l 25
 303 228 l 25
 152 228 l 25xf0
228 114 m 25xe8
 228 190 l 25
 379 190 l 25
 379 114 l 25
 228 114 l 25xe8
76 0 m 25
 76 76 l 25
 303 76 l 25
 303 0 l 25xf0
 76 0 l 25
EndSplineSet
EndChar

StartChar: eth
Encoding: 240 240 191
Width: 682
VWidth: 0
Flags: W
HStem: 0 76<190 493> 114 76<76 228 455 607> 228 75<76 228 455 607> 341 76<190 607> 455 76<455 607> 569 76<190 341 455 607> 683 76<76 493> 796 76<190 341>
VStem: 76 152<114 190 228 303> 190 151<569 645 796 872> 455 152<114 190 228 303 455 531 569 645>
LayerCount: 2
Fore
SplineSet
190 796 m 25xff60
 190 872 l 25
 341 872 l 25
 341 796 l 25
 190 796 l 25xff60
76 683 m 25xffa0
 76 759 l 25
 493 759 l 25
 493 683 l 25
 76 683 l 25xffa0
190 569 m 25xff60
 190 645 l 25
 341 645 l 25
 341 569 l 25
 190 569 l 25xff60
455 569 m 29
 455 645 l 29
 607 645 l 29
 607 569 l 29
 455 569 l 29
455 455 m 25
 455 531 l 25
 607 531 l 25
 607 455 l 25
 455 455 l 25
607 341 m 25
 190 341 l 25
 190 417 l 25
 607 417 l 25
 607 341 l 25
455 228 m 25
 455 303 l 25
 607 303 l 25
 607 228 l 25
 455 228 l 25
455 114 m 25
 455 190 l 25
 607 190 l 25
 607 114 l 25
 455 114 l 25
228 228 m 25xffa0
 76 228 l 25
 76 303 l 25
 228 303 l 25
 228 228 l 25xffa0
228 114 m 25
 76 114 l 25
 76 190 l 25
 228 190 l 25
 228 114 l 25
190 0 m 25xff60
 190 76 l 25
 493 76 l 25
 493 0 l 25
 190 0 l 25xff60
EndSplineSet
EndChar

StartChar: currency
Encoding: 164 164 192
Width: 682
VWidth: 0
Flags: W
HStem: 114 76<76 228 455 607> 228 75<152 531> 341 76<76 228 455 607> 455 76<152 531> 569 76<76 228 455 607>
VStem: 76 152<114 190 341 417 569 645> 455 152<114 190 341 417 569 645>
LayerCount: 2
Fore
SplineSet
455 569 m 25
 455 645 l 25
 607 645 l 25
 607 569 l 25
 455 569 l 25
455 341 m 25
 455 417 l 25
 607 417 l 25
 607 341 l 25
 455 341 l 25
455 114 m 25
 455 190 l 25
 607 190 l 25
 607 114 l 25
 455 114 l 25
76 190 m 25
 228 190 l 25
 228 114 l 25
 76 114 l 25
 76 190 l 25
152 303 m 25
 531 303 l 25
 531 228 l 25
 152 228 l 25
 152 303 l 25
228 569 m 25
 76 569 l 25
 76 645 l 25
 228 645 l 25
 228 569 l 25
152 455 m 25
 152 531 l 25
 531 531 l 25
 531 455 l 25
 152 455 l 25
76 341 m 25
 76 417 l 25
 228 417 l 25
 228 341 l 25
 76 341 l 25
EndSplineSet
EndChar
